<svg width="41" height="41" viewBox="0 0 41 41" fill="none" xmlns="http://www.w3.org/2000/svg">
<rect width="7.14286" height="3" rx="0.5" transform="matrix(-0.707107 -0.707107 -0.707107 0.707107 15.1924 11.3103)" fill="black"/>
<rect width="6.93296" height="3" rx="0.5" transform="matrix(-0.707107 -0.707107 -0.707107 0.707107 36.1309 32.2485)" fill="black"/>
<circle cx="20.5" cy="20.9032" r="18.5" stroke="black" stroke-width="3"/>
<rect x="19.0713" y="22.3318" width="2.85714" height="7.14286" rx="0.714286" fill="black"/>
<path d="M16.1045 29.5114L19.5966 28.3473C20.1831 28.1518 20.8172 28.1518 21.4036 28.3473L24.8958 29.5114C25.6645 29.7676 25.4802 30.9033 24.6699 30.9033H16.3303C15.52 30.9033 15.3358 29.7676 16.1045 29.5114Z" fill="black"/>
<path fill-rule="evenodd" clip-rule="evenodd" d="M24.1191 13.3869C23.9504 12.7642 23.3854 12.3318 22.7402 12.3318H18.2598C17.6146 12.3318 17.0496 12.7642 16.8809 13.3869L16.3942 15.1841C15.8007 17.3755 15.1941 19.8524 16.5278 21.6897C17.4416 22.9485 18.8809 23.7604 20.5 23.7604C22.1191 23.7604 23.5584 22.9485 24.4722 21.6897C25.8059 19.8524 25.1993 17.3755 24.6058 15.1841L24.1191 13.3869Z" fill="black"/>
</svg>
