<svg width="1440" height="768" viewBox="0 0 1440 768" fill="none" xmlns="http://www.w3.org/2000/svg">
<rect width="1440" height="768" fill="#FFF5EB"/>
<g clip-path="url(#clip0)">
<rect width="1473.31" height="768" transform="matrix(-1 0 0 1 1473.61 0)" fill="#FFF5EB"/>
<mask id="mask0" mask-type="alpha" maskUnits="userSpaceOnUse" x="-368" y="-282" width="653" height="585">
<rect width="554.479" height="343.038" transform="matrix(0.848048 0.529919 0.529919 -0.848048 -368 8.91229)" fill="white"/>
</mask>
<g mask="url(#mask0)">
<rect width="554.479" height="343.038" transform="matrix(0.848048 0.529919 0.529919 -0.848048 -368 8.91229)" fill="white"/>
<rect opacity="0.5" width="554.479" height="20.5001" transform="matrix(0.848048 0.529919 0.529919 -0.848048 -348.37 -22.5006)" fill="#FA4545"/>
<rect opacity="0.5" width="20.5001" height="342.645" transform="matrix(0.848048 0.529919 0.529919 -0.848048 -141.993 150.137)" fill="#FA4545"/>
<rect opacity="0.5" width="20.5001" height="342.645" transform="matrix(0.848048 0.529919 0.529919 -0.848048 -74.9358 192.039)" fill="#FA4545"/>
<rect opacity="0.5" width="20.5001" height="342.645" transform="matrix(0.848048 0.529919 0.529919 -0.848048 -7.87866 233.94)" fill="#FA4545"/>
<rect opacity="0.5" width="20.5001" height="342.645" transform="matrix(0.848048 0.529919 0.529919 -0.848048 59.1782 275.842)" fill="#FA4545"/>
<rect opacity="0.5" width="554.479" height="20.5001" transform="matrix(0.848048 0.529919 0.529919 -0.848048 -304.301 -93.0253)" fill="#FA4545"/>
<rect opacity="0.5" width="554.479" height="20.5001" transform="matrix(0.848048 0.529919 0.529919 -0.848048 -260.231 -163.55)" fill="#FA4545"/>
<rect opacity="0.5" width="554.479" height="20.5001" transform="matrix(0.848048 0.529919 0.529919 -0.848048 -216.165 -234.074)" fill="#FA4545"/>
</g>
<path d="M276.623 100.949C279.463 100.528 280.331 95.6097 277.806 94.2424C274.965 94.6636 274.098 99.5821 276.623 100.949Z" fill="#FFE3AD"/>
<path d="M291.268 73.7781C294.108 73.3569 294.975 68.4385 292.45 67.0711C289.61 67.4923 288.743 72.4108 291.268 73.7781Z" fill="#FFE3AD"/>
<path d="M285.309 63.4057C287.457 65.311 291.783 62.8138 291.207 60.0005C289.058 58.0953 284.733 60.5925 285.309 63.4057Z" fill="#FFE3AD"/>
<path d="M236.09 33.2932C238.429 31.6283 236.969 26.8522 234.098 26.7803C231.759 28.4452 233.219 33.2213 236.09 33.2932Z" fill="#FFE3AD"/>
<circle cx="269.491" cy="60.4311" r="1.72576" transform="rotate(-150 269.491 60.4311)" fill="#861719"/>
<circle cx="299.642" cy="61.6027" r="1.72576" transform="rotate(-150 299.642 61.6027)" fill="#861719"/>
<circle cx="233.704" cy="56.9239" r="1.72576" transform="rotate(-150 233.704 56.9239)" fill="#861719"/>
<rect x="274.853" y="78.8694" width="3.45152" height="3.45152" transform="rotate(-120 274.853 78.8694)" fill="#20C06B"/>
<rect x="241.54" y="57.4963" width="3.45152" height="3.45152" transform="rotate(-120 241.54 57.4963)" fill="#20C06B"/>
<g filter="url(#filter0_d)">
<circle cx="80.8819" cy="88.9849" r="142.087" fill="white"/>
<circle cx="80.8816" cy="88.9847" r="134.056" fill="#FFE3AD"/>
<circle cx="80.8825" cy="88.9846" r="106.874" fill="#FFF5EB"/>
<g filter="url(#filter1_d)">
<mask id="mask1" mask-type="alpha" maskUnits="userSpaceOnUse" x="-14" y="-6" width="190" height="190">
<path d="M78.3105 -4.66975C79.9017 -5.58723 81.8612 -5.58723 83.4524 -4.66975C84.8779 -3.84779 86.6105 -3.75699 88.1141 -4.42544C89.7925 -5.17156 91.7413 -4.96674 93.2278 -3.88796C94.5596 -2.9215 96.2732 -2.65009 97.8385 -3.15771C99.5857 -3.72431 101.502 -3.3169 102.868 -2.08864C104.091 -0.988266 105.767 -0.53922 107.377 -0.880439C109.174 -1.26131 111.038 -0.655786 112.267 0.708492C113.369 1.93073 114.989 2.55249 116.625 2.3814C118.452 2.19043 120.242 2.98744 121.323 4.4728C122.291 5.8035 123.837 6.59117 125.482 6.59209C127.319 6.59312 129.016 7.57288 129.935 9.16304C130.759 10.5876 132.214 11.5326 133.85 11.7055C135.677 11.8985 137.262 13.0503 138.01 14.7278C138.68 16.2307 140.028 17.3225 141.638 17.6656C143.434 18.0485 144.89 19.3596 145.459 21.1062C145.968 22.6709 147.195 23.8977 148.76 24.407C150.506 24.9756 151.818 26.4318 152.201 28.2282C152.544 29.8376 153.635 31.1859 155.138 31.856C156.816 32.604 157.968 34.1893 158.161 36.0159C158.333 37.6523 159.278 39.1074 160.703 39.9309C162.293 40.8502 163.273 42.5472 163.274 44.3839C163.275 46.0295 164.063 47.5753 165.393 48.5433C166.879 49.6237 167.676 51.4139 167.485 53.2406C167.314 54.8772 167.935 56.497 169.158 57.5987C170.522 58.8285 171.127 60.6921 170.746 62.489C170.405 64.0987 170.854 65.7746 171.955 66.998C173.183 68.3637 173.59 70.2804 173.024 72.0276C172.516 73.5928 172.788 75.3064 173.754 76.6382C174.833 78.1248 175.038 80.0736 174.291 81.7519C173.623 83.2556 173.714 84.9882 174.536 86.4137C175.453 88.0049 175.453 89.9644 174.536 91.5556C173.714 92.9811 173.623 94.7137 174.291 96.2173C175.038 97.8957 174.833 99.8445 173.754 101.331C172.788 102.663 172.516 104.376 173.024 105.942C173.59 107.689 173.183 109.606 171.955 110.971C170.854 112.195 170.405 113.871 170.746 115.48C171.127 117.277 170.522 119.141 169.158 120.371C167.935 121.472 167.314 123.092 167.485 124.729C167.676 126.555 166.879 128.346 165.393 129.426C164.063 130.394 163.275 131.94 163.274 133.585C163.273 135.422 162.293 137.119 160.703 138.038C159.278 138.862 158.333 140.317 158.161 141.953C157.968 143.78 156.816 145.365 155.138 146.113C153.635 146.783 152.544 148.132 152.201 149.741C151.818 151.537 150.506 152.994 148.76 153.562C147.195 154.072 145.968 155.298 145.459 156.863C144.89 158.61 143.434 159.921 141.638 160.304C140.028 160.647 138.68 161.739 138.01 163.241C137.262 164.919 135.677 166.071 133.85 166.264C132.214 166.437 130.759 167.382 129.935 168.806C129.016 170.396 127.319 171.376 125.482 171.377C123.837 171.378 122.291 172.166 121.323 173.496C120.242 174.982 118.452 175.779 116.625 175.588C114.989 175.417 113.369 176.039 112.267 177.261C111.038 178.625 109.174 179.231 107.377 178.85C105.767 178.508 104.091 178.958 102.868 180.058C101.502 181.286 99.5857 181.694 97.8385 181.127C96.2732 180.619 94.5596 180.891 93.2278 181.857C91.7413 182.936 89.7925 183.141 88.1141 182.395C86.6105 181.726 84.8779 181.817 83.4524 182.639C81.8612 183.556 79.9017 183.556 78.3105 182.639C76.885 181.817 75.1524 181.726 73.6487 182.395C71.9704 183.141 70.0216 182.936 68.535 181.857C67.2032 180.891 65.4896 180.619 63.9244 181.127C62.1772 181.694 60.2605 181.286 58.8948 180.058C57.6713 178.958 55.9955 178.508 54.3857 178.85C52.5889 179.231 50.7253 178.625 49.4955 177.261C48.3938 176.039 46.774 175.417 45.1374 175.588C43.3106 175.779 41.5205 174.982 40.4401 173.496C39.4721 172.166 37.9263 171.378 36.2807 171.377C34.444 171.376 32.747 170.396 31.8277 168.806C31.0042 167.382 29.5491 166.437 27.9127 166.264C26.0861 166.071 24.5008 164.919 23.7528 163.241C23.0827 161.739 21.7344 160.647 20.125 160.304C18.3286 159.921 16.8724 158.61 16.3038 156.863C15.7945 155.298 14.5676 154.072 13.003 153.562C11.2564 152.994 9.94524 151.537 9.56236 149.741C9.21934 148.132 8.12747 146.783 6.6246 146.113C4.94707 145.365 3.79529 143.78 3.60227 141.953C3.42936 140.317 2.48442 138.862 1.05983 138.038C-0.530326 137.119 -1.51009 135.422 -1.51112 133.585C-1.51204 131.94 -2.29971 130.394 -3.63041 129.426C-5.11576 128.346 -5.91278 126.555 -5.72181 124.729C-5.55072 123.092 -6.17248 121.472 -7.39472 120.371C-8.759 119.141 -9.36452 117.277 -8.98365 115.48C-8.64243 113.871 -9.09148 112.195 -10.1919 110.971C-11.4201 109.606 -11.8275 107.689 -11.2609 105.942C-10.7533 104.376 -11.0247 102.663 -11.9912 101.331C-13.0699 99.8445 -13.2748 97.8957 -12.5286 96.2173C-11.8602 94.7137 -11.951 92.9811 -12.773 91.5556C-13.6904 89.9644 -13.6904 88.0049 -12.773 86.4137C-11.951 84.9882 -11.8602 83.2556 -12.5286 81.7519C-13.2748 80.0736 -13.0699 78.1248 -11.9912 76.6382C-11.0247 75.3064 -10.7533 73.5928 -11.2609 72.0276C-11.8275 70.2804 -11.4201 68.3637 -10.1919 66.998C-9.09148 65.7746 -8.64243 64.0987 -8.98365 62.489C-9.36452 60.6921 -8.759 58.8285 -7.39472 57.5987C-6.17248 56.497 -5.55072 54.8772 -5.72181 53.2406C-5.91278 51.4139 -5.11576 49.6237 -3.63041 48.5433C-2.29971 47.5753 -1.51204 46.0295 -1.51112 44.3839C-1.51009 42.5472 -0.530328 40.8502 1.05982 39.9309C2.48442 39.1074 3.42936 37.6523 3.60227 36.0159C3.79529 34.1893 4.94707 32.604 6.6246 31.856C8.12748 31.1859 9.21933 29.8376 9.56236 28.2282C9.94525 26.4318 11.2564 24.9756 13.003 24.407C14.5676 23.8977 15.7945 22.6709 16.3038 21.1062C16.8724 19.3596 18.3286 18.0485 20.125 17.6656C21.7344 17.3225 23.0827 16.2307 23.7528 14.7278C24.5008 13.0503 26.0861 11.8985 27.9127 11.7055C29.5491 11.5326 31.0042 10.5876 31.8277 9.16303C32.747 7.57288 34.444 6.59312 36.2807 6.59209C37.9263 6.59117 39.4721 5.8035 40.4401 4.4728C41.5205 2.98744 43.3106 2.19043 45.1374 2.3814C46.774 2.55249 48.3938 1.93073 49.4955 0.708493C50.7253 -0.655786 52.5889 -1.26131 54.3857 -0.880439C55.9955 -0.53922 57.6713 -0.988266 58.8948 -2.08864C60.2605 -3.3169 62.1772 -3.72431 63.9243 -3.15771C65.4896 -2.65009 67.2032 -2.9215 68.535 -3.88796C70.0216 -4.96674 71.9704 -5.17156 73.6487 -4.42544C75.1524 -3.75699 76.885 -3.84779 78.3105 -4.66975Z" fill="white"/>
</mask>
<g mask="url(#mask1)">
<g filter="url(#filter2_d)">
<path d="M78.3105 -4.66975C79.9017 -5.58723 81.8612 -5.58723 83.4524 -4.66975C84.8779 -3.84779 86.6105 -3.75699 88.1141 -4.42544C89.7925 -5.17156 91.7413 -4.96674 93.2278 -3.88796C94.5596 -2.9215 96.2732 -2.65009 97.8385 -3.15771C99.5857 -3.72431 101.502 -3.3169 102.868 -2.08864C104.091 -0.988266 105.767 -0.53922 107.377 -0.880439C109.174 -1.26131 111.038 -0.655786 112.267 0.708492C113.369 1.93073 114.989 2.55249 116.625 2.3814C118.452 2.19043 120.242 2.98744 121.323 4.4728C122.291 5.8035 123.837 6.59117 125.482 6.59209C127.319 6.59312 129.016 7.57288 129.935 9.16304C130.759 10.5876 132.214 11.5326 133.85 11.7055C135.677 11.8985 137.262 13.0503 138.01 14.7278C138.68 16.2307 140.028 17.3225 141.638 17.6656C143.434 18.0485 144.89 19.3596 145.459 21.1062C145.968 22.6709 147.195 23.8977 148.76 24.407C150.506 24.9756 151.818 26.4318 152.201 28.2282C152.544 29.8376 153.635 31.1859 155.138 31.856C156.816 32.604 157.968 34.1893 158.161 36.0159C158.333 37.6523 159.278 39.1074 160.703 39.9309C162.293 40.8502 163.273 42.5472 163.274 44.3839C163.275 46.0295 164.063 47.5753 165.393 48.5433C166.879 49.6237 167.676 51.4139 167.485 53.2406C167.314 54.8772 167.935 56.497 169.158 57.5987C170.522 58.8285 171.127 60.6921 170.746 62.489C170.405 64.0987 170.854 65.7746 171.955 66.998C173.183 68.3637 173.59 70.2804 173.024 72.0276C172.516 73.5928 172.788 75.3064 173.754 76.6382C174.833 78.1248 175.038 80.0736 174.291 81.7519C173.623 83.2556 173.714 84.9882 174.536 86.4137C175.453 88.0049 175.453 89.9644 174.536 91.5556C173.714 92.9811 173.623 94.7137 174.291 96.2173C175.038 97.8957 174.833 99.8445 173.754 101.331C172.788 102.663 172.516 104.376 173.024 105.942C173.59 107.689 173.183 109.606 171.955 110.971C170.854 112.195 170.405 113.871 170.746 115.48C171.127 117.277 170.522 119.141 169.158 120.371C167.935 121.472 167.314 123.092 167.485 124.729C167.676 126.555 166.879 128.346 165.393 129.426C164.063 130.394 163.275 131.94 163.274 133.585C163.273 135.422 162.293 137.119 160.703 138.038C159.278 138.862 158.333 140.317 158.161 141.953C157.968 143.78 156.816 145.365 155.138 146.113C153.635 146.783 152.544 148.132 152.201 149.741C151.818 151.537 150.506 152.994 148.76 153.562C147.195 154.072 145.968 155.298 145.459 156.863C144.89 158.61 143.434 159.921 141.638 160.304C140.028 160.647 138.68 161.739 138.01 163.241C137.262 164.919 135.677 166.071 133.85 166.264C132.214 166.437 130.759 167.382 129.935 168.806C129.016 170.396 127.319 171.376 125.482 171.377C123.837 171.378 122.291 172.166 121.323 173.496C120.242 174.982 118.452 175.779 116.625 175.588C114.989 175.417 113.369 176.039 112.267 177.261C111.038 178.625 109.174 179.231 107.377 178.85C105.767 178.508 104.091 178.958 102.868 180.058C101.502 181.286 99.5857 181.694 97.8385 181.127C96.2732 180.619 94.5596 180.891 93.2278 181.857C91.7413 182.936 89.7925 183.141 88.1141 182.395C86.6105 181.726 84.8779 181.817 83.4524 182.639C81.8612 183.556 79.9017 183.556 78.3105 182.639C76.885 181.817 75.1524 181.726 73.6487 182.395C71.9704 183.141 70.0216 182.936 68.535 181.857C67.2032 180.891 65.4896 180.619 63.9244 181.127C62.1772 181.694 60.2605 181.286 58.8948 180.058C57.6713 178.958 55.9955 178.508 54.3857 178.85C52.5889 179.231 50.7253 178.625 49.4955 177.261C48.3938 176.039 46.774 175.417 45.1374 175.588C43.3106 175.779 41.5205 174.982 40.4401 173.496C39.4721 172.166 37.9263 171.378 36.2807 171.377C34.444 171.376 32.747 170.396 31.8277 168.806C31.0042 167.382 29.5491 166.437 27.9127 166.264C26.0861 166.071 24.5008 164.919 23.7528 163.241C23.0827 161.739 21.7344 160.647 20.125 160.304C18.3286 159.921 16.8724 158.61 16.3038 156.863C15.7945 155.298 14.5676 154.072 13.003 153.562C11.2564 152.994 9.94524 151.537 9.56236 149.741C9.21934 148.132 8.12747 146.783 6.6246 146.113C4.94707 145.365 3.79529 143.78 3.60227 141.953C3.42936 140.317 2.48442 138.862 1.05983 138.038C-0.530326 137.119 -1.51009 135.422 -1.51112 133.585C-1.51204 131.94 -2.29971 130.394 -3.63041 129.426C-5.11576 128.346 -5.91278 126.555 -5.72181 124.729C-5.55072 123.092 -6.17248 121.472 -7.39472 120.371C-8.759 119.141 -9.36452 117.277 -8.98365 115.48C-8.64243 113.871 -9.09148 112.195 -10.1919 110.971C-11.4201 109.606 -11.8275 107.689 -11.2609 105.942C-10.7533 104.376 -11.0247 102.663 -11.9912 101.331C-13.0699 99.8445 -13.2748 97.8957 -12.5286 96.2173C-11.8602 94.7137 -11.951 92.9811 -12.773 91.5556C-13.6904 89.9644 -13.6904 88.0049 -12.773 86.4137C-11.951 84.9882 -11.8602 83.2556 -12.5286 81.7519C-13.2748 80.0736 -13.0699 78.1248 -11.9912 76.6382C-11.0247 75.3064 -10.7533 73.5928 -11.2609 72.0276C-11.8275 70.2804 -11.4201 68.3637 -10.1919 66.998C-9.09148 65.7746 -8.64243 64.0987 -8.98365 62.489C-9.36452 60.6921 -8.759 58.8285 -7.39472 57.5987C-6.17248 56.497 -5.55072 54.8772 -5.72181 53.2406C-5.91278 51.4139 -5.11576 49.6237 -3.63041 48.5433C-2.29971 47.5753 -1.51204 46.0295 -1.51112 44.3839C-1.51009 42.5472 -0.530328 40.8502 1.05982 39.9309C2.48442 39.1074 3.42936 37.6523 3.60227 36.0159C3.79529 34.1893 4.94707 32.604 6.6246 31.856C8.12748 31.1859 9.21933 29.8376 9.56236 28.2282C9.94525 26.4318 11.2564 24.9756 13.003 24.407C14.5676 23.8977 15.7945 22.6709 16.3038 21.1062C16.8724 19.3596 18.3286 18.0485 20.125 17.6656C21.7344 17.3225 23.0827 16.2307 23.7528 14.7278C24.5008 13.0503 26.0861 11.8985 27.9127 11.7055C29.5491 11.5326 31.0042 10.5876 31.8277 9.16303C32.747 7.57288 34.444 6.59312 36.2807 6.59209C37.9263 6.59117 39.4721 5.8035 40.4401 4.4728C41.5205 2.98744 43.3106 2.19043 45.1374 2.3814C46.774 2.55249 48.3938 1.93073 49.4955 0.708493C50.7253 -0.655786 52.5889 -1.26131 54.3857 -0.880439C55.9955 -0.53922 57.6713 -0.988266 58.8948 -2.08864C60.2605 -3.3169 62.1772 -3.72431 63.9243 -3.15771C65.4896 -2.65009 67.2032 -2.9215 68.535 -3.88796C70.0216 -4.96674 71.9704 -5.17156 73.6487 -4.42544C75.1524 -3.75699 76.885 -3.84779 78.3105 -4.66975Z" fill="white"/>
</g>
<line x1="99.1506" y1="-38.4388" x2="-49.3717" y2="110.084" stroke="#FFF5EB" stroke-width="1.85331" stroke-dasharray="6.18 9.27"/>
<line x1="122.151" y1="-17.8224" x2="-26.3717" y2="130.7" stroke="#FFF5EB" stroke-width="1.85331" stroke-dasharray="6.18 9.27"/>
<line x1="145.153" y1="2.79392" x2="-3.36975" y2="151.316" stroke="#FFF5EB" stroke-width="1.85331" stroke-dasharray="6.18 9.27"/>
<line x1="168.154" y1="23.4103" x2="19.632" y2="171.933" stroke="#FFF5EB" stroke-width="1.85331" stroke-dasharray="6.18 9.27"/>
<line x1="191.156" y1="44.0266" x2="42.6337" y2="192.549" stroke="#FFF5EB" stroke-width="1.85331" stroke-dasharray="6.18 9.27"/>
<line x1="214.158" y1="64.6426" x2="65.6356" y2="213.165" stroke="#FFF5EB" stroke-width="1.85331" stroke-dasharray="6.18 9.27"/>
<line x1="237.159" y1="85.2592" x2="88.6371" y2="233.782" stroke="#FFF5EB" stroke-width="1.85331" stroke-dasharray="6.18 9.27"/>
<line y1="-0.926657" x2="210.042" y2="-0.926657" transform="matrix(0.766044 0.642788 0.642788 -0.766044 82.9355 -44.2954)" stroke="#FFF5EB" stroke-width="1.85331" stroke-dasharray="6.18 9.27"/>
<line y1="-0.926657" x2="210.042" y2="-0.926657" transform="matrix(0.766044 0.642788 0.642788 -0.766044 61.8181 -21.753)" stroke="#FFF5EB" stroke-width="1.85331" stroke-dasharray="6.18 9.27"/>
<line y1="-0.926657" x2="210.042" y2="-0.926657" transform="matrix(0.766044 0.642788 0.642788 -0.766044 40.7002 0.789856)" stroke="#FFF5EB" stroke-width="1.85331" stroke-dasharray="6.18 9.27"/>
<line y1="-0.926657" x2="210.042" y2="-0.926657" transform="matrix(0.766044 0.642788 0.642788 -0.766044 19.5828 23.3323)" stroke="#FFF5EB" stroke-width="1.85331" stroke-dasharray="6.18 9.27"/>
<line y1="-0.926657" x2="210.042" y2="-0.926657" transform="matrix(0.766044 0.642788 0.642788 -0.766044 -1.53491 45.8748)" stroke="#FFF5EB" stroke-width="1.85331" stroke-dasharray="6.18 9.27"/>
<line y1="-0.926657" x2="210.042" y2="-0.926657" transform="matrix(0.766044 0.642788 0.642788 -0.766044 -22.6506 68.4172)" stroke="#FFF5EB" stroke-width="1.85331" stroke-dasharray="6.18 9.27"/>
<line y1="-0.926657" x2="210.042" y2="-0.926657" transform="matrix(0.766044 0.642788 0.642788 -0.766044 -43.7683 90.9604)" stroke="#FFF5EB" stroke-width="1.85331" stroke-dasharray="6.18 9.27"/>
</g>
</g>
<g filter="url(#filter3_d)">
<mask id="mask2" mask-type="alpha" maskUnits="userSpaceOnUse" x="3" y="-15" width="177" height="205">
<path d="M40.2482 112.593C21.3584 85.8899 0.527765 20.6055 3.42178 16.0105C8.71847 7.60058 51.7206 -14.9931 58.4447 -14.1608C66.8498 -13.1204 89.3789 26.9345 100.557 41.3266C111.735 55.7186 178.109 126.639 179.582 136.782C181.055 146.926 131.838 192.963 121.959 189.495C112.081 186.027 59.138 139.297 40.2482 112.593Z" fill="#FF8E5E"/>
</mask>
<g mask="url(#mask2)">
<path d="M40.2482 112.593C21.3584 85.8899 0.527764 20.6055 3.42178 16.0105C8.71847 7.60058 51.7206 -14.9931 58.4447 -14.1608C66.8498 -13.1204 89.3789 26.9345 100.557 41.3266C111.735 55.7187 178.109 126.639 179.582 136.782C181.055 146.926 131.838 192.963 121.959 189.495C112.081 186.027 59.138 139.297 40.2482 112.593Z" fill="#FF6937"/>
<path d="M184.184 127.342C170.636 97.2192 161.14 64.8823 134.775 70.5764C108.411 76.2705 136.882 165.59 82.3104 183.792C38.6532 198.354 13.4674 151.395 6.33161 126.095" stroke="#FCC3C3" stroke-width="0.617772"/>
<path d="M168.928 88.7511C160.815 56.7335 148.99 55.3507 122.038 56.3801C95.0849 57.4096 107.614 150.316 50.7103 158.766C5.18768 165.525 -11.4611 114.906 -14.0951 88.7511" stroke="#FCC3C3" stroke-width="0.617772"/>
<path d="M153.324 78.2785C150.895 45.3387 139.489 41.9235 112.767 38.257C86.0453 34.5905 82.2505 128.261 24.7445 126.701C-21.2604 125.453 -28.8662 72.7118 -26.9185 46.4969" stroke="#FCC3C3" stroke-width="0.617772"/>
<path d="M140.721 78.4076C149.705 46.6235 140.156 39.5135 116.299 26.9286C92.4426 14.3438 56.8396 101.067 3.33506 79.9333C-39.4686 63.0263 -28.577 10.864 -17.7808 -13.1037" stroke="#FCC3C3" stroke-width="0.617772"/>
<path d="M4.46867 112.356C-25.6538 98.8069 -24.9623 86.9214 -19.2682 60.5569C-13.5741 34.1924 75.7451 62.6636 93.9477 8.09218C108.51 -35.565 61.5502 -60.7508 36.2502 -67.8866" stroke="#FCC3C3" stroke-width="0.617772"/>
<path d="M-11.1525 83.8593C-38.4647 65.2857 -35.7197 53.7009 -25.534 28.7257C-15.3482 3.75048 67.67 47.2993 95.0724 -3.28225C116.994 -43.7475 75.1216 -76.7051 51.445 -88.1258" stroke="#FCC3C3" stroke-width="0.617772"/>
<path d="M-25.3952 52.7505C-49.0671 29.7163 -44.3522 18.7842 -29.9843 -4.04286C-15.6164 -26.8699 58.5784 30.4333 94.3478 -14.6215C122.963 -50.6652 87.4498 -90.3933 66.1162 -105.752" stroke="#FCC3C3" stroke-width="0.617772"/>
<path d="M227.273 137.607C200.478 118.294 176.085 95.0378 156.1 113.151C136.115 131.265 205.431 194.382 167.272 237.431C136.745 271.871 91.4538 243.796 72.624 225.453" stroke="#FCC3C3" stroke-width="0.617772"/>
<path d="M245.836 135.824C216.095 121.458 188.035 102.79 171.498 124.099C154.962 145.407 234.186 195.529 204.082 244.551C179.999 283.768 130.52 263.984 108.791 249.19" stroke="#FCC3C3" stroke-width="0.617772"/>
<path d="M205.372 133.808C186.799 106.495 171.832 76.2988 146.856 86.4845C121.881 96.6702 165.43 179.688 114.848 207.091C74.3832 229.013 41.4256 187.14 30.0049 163.463" stroke="#FCC3C3" stroke-width="0.617772"/>
</g>
</g>
<mask id="mask3" mask-type="alpha" maskUnits="userSpaceOnUse" x="-26" y="-18" width="214" height="214">
<circle cx="80.8825" cy="88.9846" r="106.874" fill="#FFF5EB"/>
</mask>
<g mask="url(#mask3)">
<g style="mix-blend-mode:multiply">
<path d="M-0.11557 30.362C1.21436 26.934 -0.669708 21.238 -1.778 18.8186L-19.1897 22.1417L-30.1266 70.8515L-28.9825 104.738L-19.1897 138.625L23.2458 186.985L86.1553 199.841C92.5133 198.966 108.681 192.307 108.681 184.122C108.681 178.253 91.6768 167.524 87.6772 162.191C83.6776 156.858 99.3645 155.192 103.739 153.851C125.577 141.643 149.751 113.8 146.366 93.9271C127.523 71.0695 104.497 49.3375 86.1328 18.8186C67.5643 0.157413 27.2137 58.335 29.9156 89.2938C31.6519 109.188 54.0232 124.975 57.4064 135.936C61.3437 153.338 43.6323 163.986 23.2458 144.572C2.85927 125.158 -0.11557 89.216 1.80933 77.4102C3.73424 65.6045 -13.9399 57.9963 -14.6399 51.4375C-15.3399 44.8788 -1.778 34.6471 -0.11557 30.362Z" fill="#C91D1D"/>
</g>
</g>
<g filter="url(#filter4_d)">
<path d="M114.259 99.5034C110.726 88.0133 97.7986 82.1747 92.0358 80.2431C90.1426 86.9751 87.6892 101.239 90.9484 108.025C94.2075 114.811 107.109 119.399 113.153 120.844C114.994 118.518 117.793 110.994 114.259 99.5034Z" fill="#20C06B"/>
</g>
<g filter="url(#filter5_d)">
<path d="M82.9196 60.5359C92.5081 67.7865 93.5733 81.9309 93.4175 88.0069C86.4439 87.4833 72.2015 84.9104 66.9394 79.5268C61.6773 74.1432 61.7787 60.4505 62.4872 54.2771C65.3027 53.3423 73.331 53.2854 82.9196 60.5359Z" fill="#20C06B"/>
</g>
<g filter="url(#filter6_d)">
<path d="M69.4898 99.2436C73.0236 87.7535 85.9507 81.9148 91.7135 79.9832C93.6066 86.7152 96.0601 100.979 92.8009 107.765C89.5417 114.551 76.6401 119.139 70.5967 120.584C68.7553 118.258 65.956 110.734 69.4898 99.2436Z" fill="#166B42"/>
</g>
<path d="M71.8905 29.2237C69.641 31.0087 71.3492 35.7019 74.2197 35.6234C76.469 33.8384 74.7608 29.1453 71.8905 29.2237Z" fill="white"/>
<path d="M72.7935 60.0769C70.5441 61.8619 72.2523 66.5551 75.1228 66.4767C77.3721 64.6916 75.6639 59.9985 72.7935 60.0769Z" fill="white"/>
<path d="M83.1403 66.0805C80.327 65.5047 77.8298 69.83 79.735 71.9785C82.5483 72.5541 85.0454 68.2289 83.1403 66.0805Z" fill="white"/>
<path d="M53.7753 104.056C52.5361 106.647 56.1287 110.116 58.6743 108.787C59.9135 106.197 56.3208 102.728 53.7753 104.056Z" fill="white"/>
<path d="M96.4943 150.122C95.255 152.712 98.8477 156.182 101.393 154.853C102.632 152.263 99.0398 148.793 96.4943 150.122Z" fill="white"/>
<path d="M53.8222 170.908C52.5829 168.317 56.1756 164.848 58.7212 166.177C59.9603 168.767 56.3677 172.237 53.8222 170.908Z" fill="white"/>
<path d="M143.638 149.975C144.917 152.546 149.863 151.851 150.383 149.027C149.104 146.456 144.159 147.151 143.638 149.975Z" fill="white"/>
<path d="M41.3869 24.9194C38.5736 24.3436 36.0764 28.6689 37.9816 30.8174C40.7948 31.3931 43.292 27.0678 41.3869 24.9194Z" fill="white"/>
<path d="M129.547 109.451C129.719 112.318 134.543 113.61 136.125 111.214C135.953 108.348 131.129 107.055 129.547 109.451Z" fill="white"/>
<path d="M111.467 78.7553C108.874 79.9886 109.483 84.9458 112.297 85.5151C114.89 84.2818 114.282 79.3246 111.467 78.7553Z" fill="white"/>
<path d="M16.3378 118.988C14.627 121.295 17.4917 125.386 20.2441 124.567C21.9547 122.261 19.0901 118.17 16.3378 118.988Z" fill="#FFE3AD"/>
<path d="M117.956 13.0524C115.103 12.7241 112.993 17.2505 115.078 19.2248C117.93 19.5531 120.041 15.0266 117.956 13.0524Z" fill="#FFE3AD"/>
<path d="M16.1481 27.6706C16.4201 30.5293 21.2864 31.6528 22.784 29.2027C22.512 26.3441 17.6457 25.2206 16.1481 27.6706Z" fill="white"/>
<path d="M140.822 67.5491C139.628 70.1608 143.28 73.5669 145.803 72.1939C146.996 69.5822 143.344 66.1761 140.822 67.5491Z" fill="#FFE3AD"/>
<ellipse cx="98.326" cy="60.7479" rx="1.72571" ry="1.72576" fill="#861719"/>
<circle cx="71.6288" cy="74.8089" r="1.72576" fill="#861719"/>
<ellipse cx="85.4349" cy="102.679" rx="1.72571" ry="1.72576" fill="#861719"/>
<circle cx="57.3337" cy="13.1518" r="1.72576" fill="#861719"/>
<circle cx="127.142" cy="18.7119" r="1.72576" fill="#861719"/>
<circle cx="17.766" cy="100.293" r="1.72576" fill="#861719"/>
<ellipse cx="34.597" cy="142.074" rx="1.72571" ry="1.72576" fill="#FA4545"/>
<circle cx="113.432" cy="172.967" r="1.72576" fill="#861719"/>
<circle cx="49.2543" cy="54.2949" r="1.72576" fill="#861719"/>
<circle cx="162.578" cy="89.1354" r="1.72576" fill="#861719"/>
<circle cx="131.073" cy="45.8911" r="1.72576" fill="#861719"/>
<circle cx="160.37" cy="132.079" r="1.72576" fill="#861719"/>
<rect x="84.4631" y="47.4606" width="3.45152" height="3.45152" transform="rotate(30 84.4631 47.4606)" fill="#20C06B"/>
<rect x="124" y="49.314" width="3.45152" height="3.45152" transform="rotate(30 124 49.314)" fill="#20C06B"/>
<rect x="167.244" y="80.2025" width="3.45152" height="3.45152" transform="rotate(30 167.244 80.2025)" fill="#20C06B"/>
<rect x="48.6226" y="64.0178" width="3.45152" height="3.45152" transform="rotate(30 48.6226 64.0178)" fill="#166B42"/>
<rect x="100.396" y="137.525" width="3.45152" height="3.45152" transform="rotate(30 100.396 137.525)" fill="#20C06B"/>
<rect x="65.9404" y="183.504" width="3.45152" height="3.45152" transform="rotate(-150 65.9404 183.504)" fill="#20C06B"/>
<rect x="140.158" y="158.995" width="3.45152" height="3.45152" transform="rotate(30 140.158 158.995)" fill="#20C06B"/>
<rect x="130.954" y="92.8407" width="3.45152" height="3.45152" transform="rotate(30 130.954 92.8407)" fill="#166B42"/>
<rect x="76.7498" y="104.348" width="3.45152" height="3.45152" transform="rotate(30 76.7498 104.348)" fill="#20C06B"/>
<rect x="48.9897" y="-3.67444" width="3.45152" height="3.45152" transform="rotate(30 48.9897 -3.67444)" fill="#166B42"/>
<rect x="21.8608" y="43.3088" width="3.45152" height="3.45152" transform="rotate(30 21.8608 43.3088)" fill="#20C06B"/>
<rect x="32.2402" y="128.786" width="3.45152" height="3.45152" transform="rotate(30 32.2402 128.786)" fill="#20C06B"/>
</g>
<g filter="url(#filter7_d)">
<circle r="89.9403" transform="matrix(-0.939693 -0.34202 -0.34202 0.939693 126.901 746.854)" fill="white"/>
</g>
<g filter="url(#filter8_i)">
<path d="M158.456 679.045C154.928 676.416 150.708 674.88 146.316 674.626L136.027 674.032L125.91 672.069C121.591 671.231 117.122 671.678 113.055 673.355L103.527 677.284L93.5599 679.905C89.3055 681.024 85.4727 683.366 82.5362 686.641L75.6567 694.315L67.8138 701.001C64.4662 703.855 62.0292 707.628 60.8047 711.854L57.936 721.752L53.7708 731.179C51.9929 735.203 51.4344 739.66 52.1644 743.998L53.8746 754.161L54.212 764.462C54.3561 768.858 55.7866 773.116 58.3266 776.708L64.2771 785.122L69.0504 794.256C71.0878 798.155 74.2241 801.371 78.0708 803.505L87.083 808.504L95.3467 814.663C98.874 817.291 103.095 818.828 107.487 819.081L117.775 819.675L127.893 821.638C132.211 822.476 136.681 822.029 140.748 820.352L150.275 816.423L160.243 813.802C164.497 812.683 168.33 810.341 171.266 807.066L178.146 799.392L185.989 792.706C189.336 789.852 191.773 786.079 192.998 781.854L195.866 771.955L200.032 762.528C201.81 758.504 202.368 754.047 201.638 749.709L199.928 739.546L199.59 729.246C199.446 724.849 198.016 720.591 195.476 716.999L189.525 708.585L184.752 699.451C182.715 695.552 179.578 692.336 175.732 690.203L166.719 685.203L158.456 679.045Z" fill="#166B42"/>
</g>
<path d="M160.986 718.813L154.069 703.277L146.231 701.754L153.148 717.291L160.986 718.813Z" fill="#20C06B"/>
<path d="M127.168 713.342L113.766 702.872L106.131 705.207L119.533 715.678L127.168 713.342Z" fill="#15433D"/>
<path d="M122.271 774.53L120.198 757.65L113.148 753.902L115.22 770.782L122.271 774.53Z" fill="#15433D"/>
<path d="M186.808 755.215L177.545 740.952L169.566 740.674L178.828 754.937L186.808 755.215Z" fill="#15433D"/>
<path d="M87.2522 740.079L71.2709 734.263L64.7311 738.843L80.7124 744.66L87.2522 740.079Z" fill="#20C06B"/>
<rect width="5.39642" height="5.39642" transform="matrix(-0.939693 0.34202 0.34202 0.939693 150.106 744.554)" fill="white"/>
<rect width="5.39642" height="5.39642" transform="matrix(-0.984808 0.173648 0.173648 0.984808 116.952 729.739)" fill="#FFC044"/>
<rect width="5.39642" height="5.39642" transform="matrix(0.292372 -0.956305 -0.956305 -0.292372 86.3618 716.63)" fill="white"/>
<rect width="5.39642" height="5.39642" transform="matrix(-0.866025 -0.5 -0.5 0.866025 143.888 687.035)" fill="#FFC044"/>
<circle r="2.69821" transform="matrix(-0.939693 -0.34202 -0.34202 0.939693 94.8551 753.375)" fill="white"/>
<circle r="2.69821" transform="matrix(-0.939693 -0.34202 -0.34202 0.939693 100.559 690.367)" fill="white"/>
<circle r="2.69821" transform="matrix(-0.939693 -0.34202 -0.34202 0.939693 182.771 722.204)" fill="#FFC044"/>
<g filter="url(#filter9_d)">
<path d="M213.028 671.217C249.857 639.361 250.106 634.436 256.181 641.676C262.256 648.916 250.567 651.389 218.775 678.065C203.267 691.078 186.03 701.164 178.093 710.201C173.75 715.146 175.956 737.669 154.682 746.517C142.742 751.483 127.184 737.827 134.652 722.645C143.31 705.044 171.14 707.052 173.988 705.309C184.245 699.037 200.132 682.372 213.028 671.217Z" fill="white"/>
</g>
<mask id="mask4" mask-type="alpha" maskUnits="userSpaceOnUse" x="132" y="638" width="126" height="110">
<path d="M213.028 671.217C249.857 639.361 250.106 634.436 256.181 641.676C262.256 648.916 250.567 651.389 218.775 678.065C203.267 691.078 186.03 701.164 178.093 710.201C173.75 715.146 175.956 737.669 154.682 746.517C142.742 751.483 127.184 737.827 134.652 722.645C143.31 705.044 171.14 707.052 173.988 705.309C184.245 699.037 200.132 682.372 213.028 671.217Z" fill="white"/>
</mask>
<g mask="url(#mask4)">
<path d="M213.028 671.217C249.857 639.361 250.106 634.436 256.181 641.676C262.256 648.916 250.567 651.389 218.775 678.065C203.267 691.078 186.03 701.164 178.093 710.201C173.75 715.146 175.956 737.669 154.682 746.517C142.742 751.483 127.184 737.827 134.652 722.645C143.31 705.044 171.14 707.052 173.988 705.309C184.245 699.037 200.132 682.372 213.028 671.217Z" fill="white"/>
<g style="mix-blend-mode:multiply">
<path d="M165.002 730.184C167.872 736.34 166.092 741.229 164.844 742.904L164.585 752.392L129.965 754.484L119.716 726.478C124.949 720.291 136.923 708.338 142.954 710.022C150.493 712.127 144.026 726.383 148.487 729.923C152.948 733.463 161.414 722.49 165.002 730.184Z" fill="#166B42"/>
</g>
</g>
<g filter="url(#filter10_d)">
<mask id="mask5" mask-type="alpha" maskUnits="userSpaceOnUse" x="268" y="663" width="145" height="91">
<path d="M290.436 664.236C284.175 661.809 273.233 668.537 268.545 672.204C271.605 677.533 278.488 688.67 281.538 690.585C284.588 692.5 291.265 689.986 294.222 688.49C295.651 693.572 300.326 705.261 307.587 711.358C316.664 718.979 324.118 712.905 330.899 714.218C337.68 715.532 340.757 741.304 362.349 749.833C396.324 763.519 421.313 736.355 409.632 706.571C397.951 676.787 350.894 682.57 345.597 680.716C340.3 678.862 339.184 670.024 329.704 665.911C322.119 662.621 306.349 669.089 299.412 672.735C299.029 670.913 296.698 666.663 290.436 664.236Z" fill="#20C06B"/>
</mask>
<g mask="url(#mask5)">
<path d="M290.436 664.236C284.175 661.809 273.233 668.537 268.545 672.204C271.605 677.533 278.488 688.67 281.538 690.585C284.588 692.5 291.265 689.986 294.222 688.49C295.651 693.572 300.326 705.261 307.587 711.358C316.664 718.979 324.118 712.905 330.899 714.218C337.68 715.532 340.757 741.304 362.349 749.833C396.324 763.519 421.313 736.355 409.632 706.571C397.951 676.787 350.894 682.57 345.597 680.716C340.3 678.862 339.184 670.024 329.704 665.911C322.119 662.621 306.349 669.089 299.412 672.735C299.029 670.913 296.698 666.663 290.436 664.236Z" fill="#20C06B"/>
<path d="M252.588 668.767C263.424 671.122 283.874 676.551 306.684 684.63M407.821 740.845C407.503 739.421 403.551 734.963 396.643 729.787M314.432 687.446L343.775 678.017M314.432 687.446C311.826 686.474 309.24 685.536 306.684 684.63M314.432 687.446L306.684 684.63M314.432 687.446C321.74 690.171 329.202 693.154 336.592 696.38M306.684 684.63L320.341 716.38M336.592 696.38L352.228 745.112M336.592 696.38C339.954 697.848 343.302 699.367 346.613 700.935M363.945 709.754C361.556 708.47 359.043 707.145 356.4 705.777C353.187 704.115 349.918 702.5 346.613 700.935M363.945 709.754L375.339 754.349M363.945 709.754C379.729 718.233 390.092 724.878 396.643 729.787M396.643 729.787L412.878 729.341M346.613 700.935L398.327 690.517" stroke="#9FDD7A" stroke-width="1.42445"/>
</g>
</g>
<g filter="url(#filter11_d)">
<mask id="mask6" mask-type="alpha" maskUnits="userSpaceOnUse" x="243" y="701" width="133" height="135">
<path d="M256.437 744.792C256.437 744.792 264.9 818.364 271.004 835.135C300.657 835.535 362.601 825.877 369.652 821.954C371.803 819.476 372.646 817.134 375.667 813.321C374.571 790.86 365.459 744.586 361.947 731.827C379.314 714.313 364.85 694.141 303.941 704.779C248.805 714.408 242.133 721.509 243.174 735.375C244.041 746.931 252.035 744.812 256.437 744.792Z" fill="#C4C4C4"/>
</mask>
<g mask="url(#mask6)">
<path d="M256.437 744.792C256.437 744.792 264.9 818.364 271.004 835.135C300.657 835.535 362.601 825.877 369.652 821.954C371.803 819.476 372.646 817.134 375.667 813.321C374.571 790.86 365.459 744.586 361.947 731.827C379.314 714.313 364.85 694.141 303.941 704.779C248.805 714.408 242.133 721.509 243.174 735.375C244.041 746.931 252.035 744.812 256.437 744.792Z" fill="#FFC044"/>
<path d="M256.084 746.617C256.084 746.617 264.799 819.948 270.297 835.054C296.976 835.425 362.711 825.704 369.054 822.173C368.059 801.944 357.949 739.482 354.785 727.991C358.245 725.031 360.394 722.452 358.245 716.005C356.096 709.558 347.347 705.27 302.554 713.083C253.76 721.594 242.308 725.676 243.092 736.082C243.877 746.49 252.123 746.633 256.084 746.617Z" fill="#FFE3AD"/>
<path d="M329.044 746.11L324.689 736.327L319.754 735.369L324.109 745.151L329.044 746.11Z" fill="#20C06B"/>
<path d="M307.751 742.665L299.313 736.072L294.505 737.542L302.943 744.135L307.751 742.665Z" fill="#15433D"/>
<path d="M304.668 781.192L303.363 770.563L298.923 768.204L300.228 778.832L304.668 781.192Z" fill="#15433D"/>
<path d="M345.303 769.029L339.471 760.049L334.447 759.874L340.279 768.855L345.303 769.029Z" fill="#15433D"/>
<path d="M282.618 759.5L272.555 755.838L268.437 758.722L278.5 762.385L282.618 759.5Z" fill="#20C06B"/>
<rect width="3.39786" height="3.39786" transform="matrix(-0.939693 0.34202 0.34202 0.939693 322.194 762.317)" fill="white"/>
<rect width="3.39786" height="3.39786" transform="matrix(-0.984808 0.173648 0.173648 0.984808 301.319 752.989)" fill="#FFC044"/>
<rect width="3.39786" height="3.39786" transform="matrix(0.292372 -0.956305 -0.956305 -0.292372 282.057 744.734)" fill="white"/>
<rect width="3.39786" height="3.39786" transform="matrix(-0.866025 -0.5 -0.5 0.866025 318.279 726.1)" fill="#FFC044"/>
<circle r="1.69893" transform="matrix(-0.939693 -0.34202 -0.34202 0.939693 287.405 767.872)" fill="white"/>
<circle r="1.69893" transform="matrix(-0.939693 -0.34202 -0.34202 0.939693 290.996 728.198)" fill="white"/>
<circle r="1.69893" transform="matrix(-0.939693 -0.34202 -0.34202 0.939693 342.761 748.244)" fill="#FFC044"/>
</g>
</g>
<mask id="mask7" mask-type="alpha" maskUnits="userSpaceOnUse" x="963" y="578" width="592" height="531">
<rect width="502.894" height="311.124" transform="matrix(0.848048 0.529919 0.529919 -0.848048 963.573 841.848)" fill="white"/>
</mask>
<g mask="url(#mask7)">
<rect width="502.894" height="311.124" transform="matrix(0.848048 0.529919 0.529919 -0.848048 963.573 841.848)" fill="white"/>
<rect opacity="0.5" width="18.5929" height="310.768" transform="matrix(0.848048 0.529919 0.529919 -0.848048 986.099 855.923)" fill="#FA4545"/>
<rect opacity="0.5" width="18.5929" height="310.768" transform="matrix(0.848048 0.529919 0.529919 -0.848048 1046.92 893.926)" fill="#FA4545"/>
<rect opacity="0.5" width="18.5929" height="310.768" transform="matrix(0.848048 0.529919 0.529919 -0.848048 1107.74 931.93)" fill="#FA4545"/>
<rect opacity="0.5" width="18.5929" height="310.768" transform="matrix(0.848048 0.529919 0.529919 -0.848048 1168.55 969.934)" fill="#FA4545"/>
<rect opacity="0.5" width="18.5929" height="310.768" transform="matrix(0.848048 0.529919 0.529919 -0.848048 1229.37 1007.94)" fill="#FA4545"/>
<rect opacity="0.5" width="502.894" height="18.5929" transform="matrix(0.848048 0.529919 0.529919 -0.848048 1021.35 749.393)" fill="#FA4545"/>
<rect opacity="0.5" width="502.894" height="18.5929" transform="matrix(0.848048 0.529919 0.529919 -0.848048 1061.32 685.43)" fill="#FA4545"/>
<rect opacity="0.5" width="502.894" height="18.5929" transform="matrix(0.848048 0.529919 0.529919 -0.848048 1101.28 621.467)" fill="#FA4545"/>
</g>
<path d="M1374.85 681.444C1374.03 678.973 1369.5 678.973 1368.68 681.444C1369.5 683.915 1374.03 683.915 1374.85 681.444Z" fill="white"/>
<path d="M1348.28 672.643C1347.45 670.172 1342.92 670.172 1342.1 672.643C1342.92 675.114 1347.45 675.114 1348.28 672.643Z" fill="white"/>
<path d="M1339.95 679.599C1341.31 677.38 1338.4 673.91 1335.98 674.867C1334.62 677.087 1337.53 680.556 1339.95 679.599Z" fill="white"/>
<path d="M1320.81 728.304C1318.95 726.476 1314.91 728.532 1315.3 731.108C1317.16 732.935 1321.19 730.879 1320.81 728.304Z" fill="#FFE3AD"/>
<circle cx="1339.78" cy="694.196" r="1.56521" transform="rotate(110 1339.78 694.196)" fill="#861719"/>
<circle cx="1336.08" cy="667.081" r="1.56521" transform="rotate(110 1336.08 667.081)" fill="#861719"/>
<circle cx="1342.29" cy="726.714" r="1.56521" transform="rotate(110 1342.29 726.714)" fill="#861719"/>
<rect x="1355.41" y="686.503" width="3.13041" height="3.13041" transform="rotate(140 1355.41 686.503)" fill="#20C06B"/>
<rect x="1341.57" y="719.623" width="3.13041" height="3.13041" transform="rotate(140 1341.57 719.623)" fill="#20C06B"/>
<g filter="url(#filter12_d)">
<circle cx="1168.87" cy="773.941" r="150.96" fill="#2F66D0"/>
</g>
<circle cx="1168.87" cy="773.94" r="142.428" fill="#D5E3FB"/>
<circle cx="1168.97" cy="773.796" r="121.424" fill="white"/>
<path d="M1158.97 659.542C1165.05 655.582 1172.89 655.582 1178.97 659.542L1205.68 676.929C1207.58 678.168 1209.7 679.043 1211.92 679.509L1243.11 686.042C1250.23 687.534 1255.8 693.092 1257.3 700.21L1263.84 731.265C1264.31 733.497 1265.19 735.621 1266.44 737.529L1283.82 764.082C1287.81 770.182 1287.81 778.067 1283.82 784.167L1266.44 810.721C1265.19 812.629 1264.31 814.753 1263.84 816.984L1257.3 848.04C1255.8 855.157 1250.23 860.715 1243.11 862.207L1211.92 868.74C1209.7 869.206 1207.58 870.081 1205.68 871.32L1178.97 888.707C1172.89 892.667 1165.05 892.667 1158.97 888.707L1132.26 871.32C1130.36 870.081 1128.24 869.206 1126.02 868.74L1094.83 862.207C1087.71 860.715 1082.14 855.157 1080.64 848.04L1074.1 816.984C1073.63 814.753 1072.75 812.629 1071.5 810.721L1054.12 784.167C1050.13 778.067 1050.13 770.182 1054.12 764.082L1071.5 737.529C1072.75 735.621 1073.63 733.497 1074.1 731.265L1080.64 700.21C1082.14 693.092 1087.71 687.534 1094.83 686.042L1126.02 679.509C1128.24 679.043 1130.36 678.168 1132.26 676.929L1158.97 659.542Z" fill="#15433D"/>
<rect x="1253.54" y="730.866" width="6.56348" height="6.56348" rx="0.656348" transform="rotate(20 1253.54 730.866)" fill="#FFA13D"/>
<path d="M1153.67 690.116C1172.98 710.896 1169.66 744.205 1166.81 758.262C1150.82 754.187 1118.77 742.371 1108.75 727.703C1098.73 713.035 1104.57 681.254 1108.75 667.197C1115.68 666.178 1134.36 669.336 1153.67 690.116Z" fill="#166B42"/>
<path d="M1085.04 818.823C1113.34 820.754 1137.14 797.212 1146.27 786.149C1133.04 776.285 1103.69 758.816 1085.98 760.258C1068.27 761.699 1047.25 786.244 1038.96 798.336C1042.52 804.36 1056.74 816.891 1085.04 818.823Z" fill="#861719"/>
<path d="M1217.73 692.152C1192.48 705.073 1184.21 737.509 1182.08 751.694C1198.5 753.335 1232.65 753.192 1247.09 742.836C1261.53 732.481 1266.9 700.617 1267.78 685.979C1261.62 682.653 1242.99 679.231 1217.73 692.152Z" fill="#861719"/>
<rect x="1091.81" y="706.2" width="6.56348" height="6.56348" rx="0.656348" transform="rotate(-20 1091.81 706.2)" fill="#FFA13D"/>
<rect x="1201.69" y="684.921" width="6.56348" height="6.56348" rx="0.656348" transform="rotate(20 1201.69 684.921)" fill="#FFA13D"/>
<rect x="1240.95" y="707.958" width="13.127" height="5.25079" rx="0.656348" transform="rotate(60 1240.95 707.958)" fill="#FFE261"/>
<rect x="1175.31" y="756.527" width="13.127" height="5.25079" rx="0.656348" transform="rotate(120 1175.31 756.527)" fill="#FFE261"/>
<rect x="1133.44" y="690.974" width="13.127" height="5.25079" rx="0.656348" transform="rotate(150 1133.44 690.974)" fill="#FFE261"/>
<g filter="url(#filter13_d)">
<mask id="mask8" mask-type="alpha" maskUnits="userSpaceOnUse" x="1234" y="751" width="32" height="26">
<path fill-rule="evenodd" clip-rule="evenodd" d="M1234.83 760.49L1234.83 760.49L1243.22 775.008L1250.79 776.014L1242.4 761.496L1242.4 761.496L1250.79 776.013L1265.3 767.632L1256.92 753.115L1256.92 753.115L1256.92 753.115L1256.92 753.114L1256.92 753.115L1250.56 751.41L1234.83 760.49Z" fill="#C4C4C4"/>
</mask>
<g mask="url(#mask8)">
<path d="M1242.41 761.496L1256.92 753.115L1264.98 767.063C1265.16 767.377 1265.05 767.779 1264.74 767.96L1250.79 776.013L1242.41 761.496Z" fill="#FFF5EB"/>
<path d="M1242.4 761.496L1234.83 760.49L1242.73 774.168C1243.04 774.697 1243.57 775.055 1244.18 775.135L1250.79 776.014L1242.4 761.496Z" fill="#FFE3AD"/>
<path d="M1242.4 761.496L1234.83 760.49L1250.33 751.546C1250.48 751.459 1250.66 751.436 1250.82 751.481L1256.92 753.115L1242.4 761.496Z" fill="#FFE3AD"/>
</g>
</g>
<g filter="url(#filter14_d)">
<mask id="mask9" mask-type="alpha" maskUnits="userSpaceOnUse" x="1116" y="752" width="125" height="98">
<path d="M1219.14 753.907C1224.44 750.703 1235.44 755.057 1240.29 757.635C1238.36 762.961 1233.9 774.17 1231.43 776.397C1228.97 778.623 1222.51 777.41 1219.59 776.525C1219.1 781.366 1216.73 792.722 1211.12 799.417C1204.1 807.786 1196.36 803.466 1190.42 805.744C1184.48 808.021 1185.81 831.903 1167.58 843.098C1138.93 860.956 1111.91 840.302 1117.74 811.403C1123.58 782.503 1167.21 780.221 1171.72 777.691C1176.23 775.161 1175.83 766.961 1183.77 761.711C1190.13 757.512 1205.48 760.858 1212.36 763.056C1212.41 761.342 1213.85 757.112 1219.14 753.907Z" fill="#20C06B"/>
</mask>
<g mask="url(#mask9)">
<path d="M1219.14 753.907C1224.44 750.703 1235.44 755.057 1240.29 757.635C1238.36 762.961 1233.9 774.17 1231.43 776.397C1228.97 778.623 1222.51 777.41 1219.59 776.525C1219.1 781.366 1216.73 792.722 1211.12 799.417C1204.1 807.786 1196.36 803.466 1190.42 805.744C1184.48 808.021 1185.81 831.903 1167.58 843.098C1138.93 860.956 1111.91 840.302 1117.74 811.403C1123.58 782.503 1167.21 780.221 1171.72 777.691C1176.23 775.161 1175.83 766.961 1183.77 761.711C1190.13 757.512 1205.48 760.858 1212.36 763.056C1212.41 761.342 1213.85 757.112 1219.14 753.907Z" fill="#20C06B"/>
<path d="M1254.22 751.963C1244.76 755.834 1227.07 764.033 1207.66 775.016M1124.87 842.219C1124.93 840.875 1127.8 836.197 1133.25 830.394M1201.08 778.812L1172.94 774.95M1201.08 778.812C1203.29 777.513 1205.49 776.247 1207.66 775.016M1201.08 778.812L1207.66 775.016M1201.08 778.812C1194.88 782.454 1188.59 786.355 1182.4 790.466M1207.66 775.016L1200.35 806.016M1182.4 790.466L1176.01 837.195M1182.4 790.466C1179.58 792.337 1176.79 794.251 1174.03 796.203M1159.71 806.98C1161.68 805.433 1163.75 803.828 1165.93 802.164C1168.57 800.141 1171.28 798.153 1174.03 796.203M1159.71 806.98L1156.51 849.276M1159.71 806.98C1146.75 817.201 1138.41 824.891 1133.25 830.394M1133.25 830.394L1118.44 832.587M1174.03 796.203L1125.43 795.024" stroke="#9FDD7A" stroke-width="1.3127"/>
</g>
</g>
<g filter="url(#filter15_d)">
<mask id="mask10" mask-type="alpha" maskUnits="userSpaceOnUse" x="1087" y="705" width="143" height="64">
<path d="M1101.53 733.104C1095.42 734.052 1089.78 744.463 1087.73 749.55C1092.63 752.393 1103.25 758.11 1106.57 758.233C1109.89 758.356 1114.06 753.273 1115.73 750.716C1119.21 754.114 1128.33 761.288 1136.93 762.808C1147.69 764.709 1150.84 756.426 1156.85 754.35C1162.87 752.274 1177.2 771.424 1198.36 768.282C1231.79 763.55 1239.21 730.357 1216.17 711.969C1193.12 693.581 1158.23 719.879 1153.15 720.84C1148.07 721.801 1143.1 715.262 1133.64 716.348C1126.07 717.217 1116.47 729.645 1112.61 735.751C1111.47 734.473 1107.65 732.156 1101.53 733.104Z" fill="#20C06B"/>
</mask>
<g mask="url(#mask10)">
<path d="M1101.53 733.104C1095.42 734.052 1089.78 744.463 1087.73 749.55C1092.63 752.393 1103.25 758.11 1106.57 758.233C1109.89 758.356 1114.06 753.273 1115.73 750.716C1119.21 754.114 1128.33 761.288 1136.93 762.808C1147.69 764.709 1150.84 756.426 1156.85 754.35C1162.87 752.274 1177.2 771.424 1198.36 768.282C1231.79 763.55 1239.21 730.357 1216.17 711.969C1193.12 693.581 1158.23 719.879 1153.15 720.84C1148.07 721.801 1143.1 715.262 1133.64 716.348C1126.07 717.217 1116.47 729.645 1112.61 735.751C1111.47 734.473 1107.65 732.156 1101.53 733.104Z" fill="#20C06B"/>
<path d="M1073.41 754.16C1083.15 751.045 1101.97 745.956 1123.9 741.894M1230.51 740.157C1229.6 739.166 1224.4 737.429 1216.5 736.482M1131.38 740.571L1150.45 719.525M1131.38 740.571C1128.85 740.996 1126.35 741.438 1123.9 741.894M1131.38 740.571L1123.9 741.894M1131.38 740.571C1138.47 739.378 1145.79 738.32 1153.18 737.49M1123.9 741.894L1149.42 760.94M1153.18 737.49L1188.11 769.178M1153.18 737.49C1156.54 737.113 1159.91 736.782 1163.28 736.508M1181.17 735.56C1178.67 735.636 1176.06 735.737 1173.32 735.863C1169.99 736.016 1166.63 736.234 1163.28 736.508M1181.17 735.56L1210.81 765.9M1181.17 735.56C1197.67 735.054 1209.01 735.583 1216.5 736.482M1216.5 736.482L1229.25 728.645M1163.28 736.508L1199.75 704.365" stroke="#9FDD7A" stroke-width="1.3127"/>
</g>
</g>
<g filter="url(#filter16_d)">
<mask id="mask11" mask-type="alpha" maskUnits="userSpaceOnUse" x="1076" y="726" width="32" height="26">
<path fill-rule="evenodd" clip-rule="evenodd" d="M1107.45 742.464L1107.45 742.464L1099.07 727.946L1091.5 726.94L1091.5 726.94L1076.98 735.322L1085.36 749.839L1099.88 741.457L1099.88 741.458L1099.88 741.458L1085.36 749.839L1091.72 751.544L1107.45 742.464Z" fill="#C4C4C4"/>
</mask>
<g mask="url(#mask11)">
<path d="M1099.88 741.458L1085.36 749.839L1077.31 735.89C1077.13 735.576 1077.23 735.175 1077.55 734.994L1091.5 726.94L1099.88 741.458Z" fill="#FFF5EB"/>
<path d="M1099.88 741.458L1107.45 742.464L1099.55 728.786C1099.25 728.257 1098.71 727.899 1098.11 727.819L1091.5 726.94L1099.88 741.458Z" fill="#FFE3AD"/>
<path d="M1099.88 741.458L1107.45 742.464L1091.96 751.408C1091.81 751.495 1091.63 751.518 1091.46 751.473L1085.36 749.839L1099.88 741.458Z" fill="#FFE3AD"/>
</g>
</g>
<circle cx="1189.27" cy="757.067" r="1.83352" fill="#FFE3AD"/>
<circle cx="1129.4" cy="768.068" r="1.83352" fill="#FFE3AD"/>
<circle cx="1133.9" cy="706.499" r="1.83352" fill="#FFE3AD"/>
<circle cx="1170" cy="675.65" r="1.83352" fill="#FFE3AD"/>
<circle cx="1208.07" cy="724.876" r="1.83352" fill="#FFE3AD"/>
<circle cx="1248.76" cy="705.186" r="1.83352" fill="#FFE3AD"/>
<g filter="url(#filter17_d)">
<mask id="mask12" mask-type="alpha" maskUnits="userSpaceOnUse" x="1143" y="689" width="58" height="61">
<path d="M1172.19 689.071C1190.34 688.194 1198.17 702.38 1200 710.421C1201.83 718.462 1180.97 725.044 1180.01 720.916C1179.05 716.787 1177.79 710.943 1167.42 714.075C1152.64 718.539 1156.09 730.826 1157.97 738.859C1168.31 737.407 1172.81 742.205 1173.77 744.785L1168.25 745.759C1169.88 745.819 1173.58 747.025 1174.28 749.69C1161.31 747.912 1149.96 738.877 1144.64 725.178C1139.32 711.479 1149.5 690.168 1172.19 689.071Z" fill="#FCC3C3"/>
</mask>
<g mask="url(#mask12)">
<path d="M1172.19 689.071C1190.34 688.194 1198.17 702.38 1200 710.421C1201.83 718.462 1180.97 725.044 1180.01 720.916C1179.05 716.787 1177.79 710.943 1167.42 714.075C1152.64 718.539 1156.09 730.826 1157.97 738.859C1168.31 737.407 1172.81 742.205 1173.77 744.785L1168.25 745.759C1169.88 745.819 1173.58 747.025 1174.28 749.69C1161.31 747.912 1149.96 738.877 1144.64 725.178C1139.32 711.479 1149.5 690.168 1172.19 689.071Z" fill="#FCC3C3"/>
<path d="M1144.44 728.698C1149.09 730.294 1154.74 731.044 1157.57 726.731C1160.59 722.133 1156.73 719.585 1151.69 713.132C1145.39 705.066 1148.39 698.379 1145.78 700.699C1139.12 706.616 1138.63 726.702 1144.44 728.698Z" fill="#FFF5EB"/>
<path d="M1173.13 714.811C1175.3 713.963 1186.38 694.468 1188.33 690.989C1184.67 686.29 1175.49 678.685 1168.02 685.857C1160.55 693.029 1162.6 709.155 1164.57 716.321C1166.69 716.1 1171.39 715.49 1173.13 714.811Z" fill="#FFF5EB"/>
<path d="M1151.02 729.746C1155.24 729.465 1157.25 727.756 1157.11 727.394L1174.35 734.925L1178.34 751.645L1161.28 751.053L1143.05 728.015C1144.35 728.404 1146.79 730.026 1151.02 729.746Z" fill="#FA4545"/>
</g>
</g>
<path fill-rule="evenodd" clip-rule="evenodd" d="M1304.08 662.118C1304.67 662.6 1305.55 662.515 1306 661.9C1306.61 661.08 1307.18 660.219 1307.7 659.318C1317.64 642.161 1307.54 616.934 1285.14 602.973C1266.2 591.166 1244.53 591.197 1232.28 601.866C1231.65 602.413 1231.7 603.387 1232.34 603.912L1304.08 662.118Z" fill="#861719" fill-opacity="0.08"/>
<mask id="mask13" mask-type="alpha" maskUnits="userSpaceOnUse" x="1231" y="591" width="84" height="65">
<path fill-rule="evenodd" clip-rule="evenodd" d="M1309.22 654.844C1309.86 655.261 1310.72 655.085 1311.11 654.426C1311.63 653.547 1312.1 652.631 1312.53 651.68C1320.62 633.578 1307.94 609.546 1284.2 598.002C1264.13 588.24 1242.58 590.537 1231.51 602.427C1230.94 603.037 1231.09 604.001 1231.79 604.455L1309.22 654.844Z" fill="#C4C4C4"/>
</mask>
<g mask="url(#mask13)">
<path fill-rule="evenodd" clip-rule="evenodd" d="M1309.1 654.811C1309.72 655.2 1310.54 655.041 1310.94 654.427C1311.71 653.264 1312.39 652.041 1312.99 650.758C1321.94 631.565 1308.48 606.347 1282.93 594.433C1260.86 584.143 1236.99 587.141 1225.13 600.514C1224.57 601.137 1224.74 602.098 1225.45 602.539L1309.1 654.811Z" fill="#FFE261"/>
<path fill-rule="evenodd" clip-rule="evenodd" d="M1302.82 658.732C1303.48 659.143 1304.36 658.939 1304.72 658.25C1304.87 657.955 1305.02 657.655 1305.16 657.351C1312.47 641.663 1300.15 620.433 1277.63 609.932C1259.69 601.568 1240.7 602.532 1230.02 611.197C1229.31 611.772 1229.41 612.859 1230.19 613.343L1302.82 658.732Z" fill="white"/>
<mask id="mask14" mask-type="alpha" maskUnits="userSpaceOnUse" x="1236" y="609" width="67" height="47">
<path fill-rule="evenodd" clip-rule="evenodd" d="M1297.61 655.227C1298.57 655.82 1299.84 655.524 1300.33 654.503L-nan -nanL1300.33 654.503C1306.59 641.262 1296.06 623.357 1276.81 614.51C1261.99 607.706 1246.34 608.242 1237.04 614.877C1235.92 615.68 1236.08 617.327 1237.25 618.052L1297.61 655.227Z" fill="#FFE3AD"/>
</mask>
<g mask="url(#mask14)">
<path fill-rule="evenodd" clip-rule="evenodd" d="M1297.61 655.227C1298.57 655.82 1299.84 655.524 1300.33 654.503L-nan -nanL1300.33 654.503C1306.59 641.262 1296.06 623.357 1276.81 614.51C1261.99 607.706 1246.34 608.242 1237.04 614.877C1235.92 615.68 1236.08 617.327 1237.25 618.052L1297.61 655.227Z" fill="#FFE3AD"/>
<path d="M1271.82 630.258L1282.75 616.857M1271.82 630.258L1296.11 628.921M1271.82 630.258L1302.12 643.291M1271.82 630.258L1250.95 609.249M1271.82 630.258L1266.58 610.307" stroke="white" stroke-width="1.39318"/>
</g>
</g>
<g filter="url(#filter18_d)">
<path d="M1411.38 697.272C1399.13 708.657 1379.5 706.699 1371.21 705.018C1373.61 695.591 1380.58 676.7 1389.23 670.791C1397.87 664.883 1416.61 668.329 1424.89 670.791C1425.49 674.874 1423.63 685.887 1411.38 697.272Z" fill="#166B42"/>
</g>
<g filter="url(#filter19_d)">
<path d="M1381.41 645.393C1379.68 659.241 1366.08 668.522 1359.88 671.891C1356.36 664.577 1350.68 648.765 1353.04 640.351C1355.4 631.936 1369.22 624.09 1375.84 621.219C1378.41 623.507 1383.13 631.545 1381.41 645.393Z" fill="#20C06B"/>
</g>
<g filter="url(#filter20_d)">
<path d="M1194.01 28.2738C1189.44 32.1117 1182.62 31.5151 1181.54 24.625C1174.94 22.3676 1175.54 15.5487 1180.11 11.7108C1184.69 7.87302 1191.51 8.4696 1195.34 13.0433C1199.18 17.6171 1198.58 24.436 1194.01 28.2738Z" fill="#FA4545"/>
</g>
<g filter="url(#filter21_d)">
<path d="M1189.59 21.2698C1187.32 22.4502 1184.5 21.3562 1183.34 20.7681C1184.08 19.4734 1185.89 16.9671 1187.41 16.4483C1188.93 15.9295 1191.55 17.2067 1192.68 17.9101C1192.6 18.5382 1191.87 20.0893 1189.59 21.2698Z" fill="#20C06B"/>
</g>
<g filter="url(#filter22_d)">
<circle cx="1196.03" cy="44.1979" r="10.1413" fill="#FA4545"/>
</g>
<g filter="url(#filter23_d)">
<path d="M1195.09 46.3167C1192.72 45.3313 1191.75 42.4667 1191.46 41.2034C1192.93 40.939 1196 40.7096 1197.38 41.5405C1198.75 42.3714 1199.46 45.2051 1199.65 46.518C1199.12 46.8615 1197.46 47.3021 1195.09 46.3167Z" fill="#20C06B"/>
</g>
<g filter="url(#filter24_d)">
<circle cx="1143.17" cy="32.2844" r="25.3578" transform="rotate(40 1143.17 32.2844)" fill="#FFE261"/>
<path opacity="0.2" fill-rule="evenodd" clip-rule="evenodd" d="M1128.67 20.1184C1136.67 26.8311 1148.6 25.795 1155.32 17.8084C1148.62 25.8157 1149.67 37.7376 1157.67 44.4503C1159.16 45.7014 1160.79 46.6834 1162.49 47.4013L1162.6 48.5841L1161.41 48.6876C1160.41 47.1336 1159.16 45.7015 1157.67 44.4504C1149.67 37.7377 1137.75 38.7738 1131.03 46.7604C1137.72 38.753 1136.67 26.8311 1128.67 20.1185C1127.18 18.8673 1125.55 17.8854 1123.85 17.1674L1123.75 15.9847L1124.93 15.8812C1125.93 17.4352 1127.18 18.8673 1128.67 20.1184ZM1126.77 50.5269L1126.87 51.7097L1128.06 51.6062C1128.77 49.9104 1129.74 48.291 1130.99 46.8062C1129.74 48.2871 1128.31 49.5291 1126.77 50.5269ZM1159.58 14.0418C1158.03 15.0397 1156.6 16.2816 1155.36 17.7626C1156.6 16.2778 1157.57 14.6584 1158.29 12.9626L1159.47 12.8592L1159.58 14.0418Z" fill="#861719"/>
<circle cx="1142.6" cy="25.7906" r="2.30526" transform="rotate(40 1142.6 25.7906)" fill="#151515"/>
<circle cx="1136.68" cy="32.8525" r="2.30526" transform="rotate(40 1136.68 32.8525)" fill="#151515"/>
<circle cx="1149.67" cy="31.7159" r="2.30526" transform="rotate(40 1149.67 31.7159)" fill="#151515"/>
<circle cx="1143.74" cy="38.7798" r="2.30526" transform="rotate(40 1143.74 38.7798)" fill="#151515"/>
</g>
<g filter="url(#filter25_d)">
<circle cx="1381.54" cy="35.5946" r="107.771" fill="#D5E3FB"/>
<g filter="url(#filter26_i)">
<path d="M1376.34 -59.0689C1379.73 -60.0869 1383.35 -60.0869 1386.75 -59.0689L1402.1 -54.4645L1417.93 -51.952C1421.43 -51.3964 1424.69 -49.8265 1427.3 -47.4366L1439.14 -36.6272L1452.31 -27.4953C1455.22 -25.4763 1457.48 -22.6474 1458.8 -19.359L1464.77 -4.48552L1472.67 9.45699C1474.42 12.5396 1475.23 16.0672 1474.99 19.6029L1473.92 35.5945L1474.99 51.5862C1475.23 55.1219 1474.42 58.6495 1472.67 61.7321L1464.77 75.6746L1458.8 90.548C1457.48 93.8365 1455.22 96.6654 1452.31 98.6844L1439.14 107.816L1427.3 118.626C1424.69 121.016 1421.43 122.585 1417.93 123.141L1402.1 125.654L1386.75 130.258C1383.35 131.276 1379.73 131.276 1376.34 130.258L1360.99 125.654L1345.16 123.141C1341.66 122.585 1338.4 121.016 1335.78 118.626L1323.95 107.816L1310.78 98.6844C1307.86 96.6654 1305.61 93.8365 1304.29 90.548L1298.31 75.6746L1290.41 61.7321C1288.66 58.6494 1287.86 55.1219 1288.09 51.5862L1289.17 35.5945L1288.09 19.6029C1287.86 16.0672 1288.66 12.5396 1290.41 9.45699L1298.31 -4.48552L1304.29 -19.359C1305.61 -22.6474 1307.86 -25.4763 1310.78 -27.4953L1323.95 -36.6272L1335.78 -47.4366C1338.4 -49.8265 1341.66 -51.3964 1345.16 -51.952L1360.99 -54.4645L1376.34 -59.0689Z" fill="white"/>
</g>
<path d="M1400.9 -31.1047C1405.22 -31.126 1409.4 -29.6028 1412.7 -26.81L1416.76 -23.3656C1417.51 -22.7374 1418.3 -22.1699 1419.13 -21.6685L1424.02 -18.722C1427.42 -16.675 1430.05 -13.569 1431.51 -9.88123L1434.66 -1.9241L1439.18 6.05703C1440.82 8.95942 1441.63 12.2587 1441.52 15.5913L1441.15 26.3619L1442.06 37.4136C1442.3 40.3503 1441.82 43.3018 1440.67 46.0119L1436.05 56.8338L1432.63 68.0932C1431.77 70.9129 1430.24 73.4812 1428.17 75.5754L1420.37 83.4562L1413.73 91.9428C1411.67 94.5687 1408.93 96.5762 1405.81 97.7443L1397.22 100.956L1389.69 105.025C1386.2 106.91 1382.19 107.597 1378.27 106.981L1372.63 106.095C1371.67 105.944 1370.7 105.87 1369.72 105.875L1364.4 105.901C1360.08 105.923 1355.89 104.399 1352.6 101.607L1348.53 98.1622C1347.79 97.5341 1347 96.9665 1346.17 96.4651L1341.28 93.5187C1337.88 91.4716 1335.25 88.3657 1333.79 84.6779L1330.63 76.7207L1326.12 68.7396C1324.48 65.8372 1323.67 62.5379 1323.78 59.2053L1324.15 48.4348L1323.24 37.383C1323 34.4463 1323.47 31.4949 1324.63 28.7847L1329.25 17.9629L1332.67 6.70344C1333.52 3.88374 1335.05 1.31542 1337.13 -0.778743L1344.93 -8.65957L1351.57 -17.1461C1353.63 -19.772 1356.37 -21.7796 1359.49 -22.9477L1368.08 -26.1597L1375.61 -30.2279C1379.1 -32.1134 1383.11 -32.8009 1387.03 -32.1848L1392.67 -31.2981C1393.63 -31.1472 1394.6 -31.0738 1395.57 -31.0785L1400.9 -31.1047Z" fill="#861719"/>
<path d="M1347.54 26.0425C1347.23 26.2311 1346.83 25.9882 1346.86 25.6227L1347.74 13.04C1347.75 12.8926 1347.83 12.7595 1347.95 12.6834L1352.53 9.93611C1352.84 9.74747 1353.24 9.99042 1353.21 10.3559L1352.33 22.9386C1352.32 23.086 1352.24 23.2191 1352.12 23.2952L1347.54 26.0425Z" fill="#151515" fill-opacity="0.4"/>
<path d="M1368.17 12.9665C1367.8 12.9856 1367.57 12.585 1367.76 12.2743L1374.44 1.57752C1374.52 1.45221 1374.66 1.37298 1374.8 1.36527L1380.13 1.08678C1380.5 1.06766 1380.73 1.46827 1380.54 1.77894L1373.86 12.4758C1373.78 12.6011 1373.64 12.6803 1373.5 12.688L1368.17 12.9665Z" fill="#151515" fill-opacity="0.4"/>
<path d="M1392.1 57.3964C1391.85 57.6686 1391.4 57.5522 1391.32 57.1952L1388.48 44.9051C1388.45 44.7611 1388.49 44.6099 1388.59 44.5001L1392.16 40.5357C1392.4 40.2635 1392.85 40.3799 1392.94 40.7369L1395.77 53.0271C1395.81 53.1711 1395.77 53.3222 1395.67 53.432L1392.1 57.3964Z" fill="#151515" fill-opacity="0.4"/>
<path d="M1397.27 85.713C1396.92 85.8078 1396.61 85.465 1396.73 85.1207L1401.04 73.2679C1401.1 73.1291 1401.21 73.0236 1401.35 72.9854L1406.51 71.6052C1406.86 71.5105 1407.17 71.8533 1407.05 72.1975L1402.74 84.0503C1402.68 84.1892 1402.57 84.2946 1402.43 84.3328L1397.27 85.713Z" fill="#151515" fill-opacity="0.4"/>
<path d="M1360.38 86.5834C1360.34 86.9477 1359.91 87.1181 1359.63 86.8777L1350.11 78.6025C1350 78.5056 1349.94 78.3603 1349.96 78.2134L1350.52 72.9074C1350.55 72.543 1350.99 72.3727 1351.26 72.613L1360.78 80.8882C1360.89 80.9851 1360.95 81.1304 1360.94 81.2773L1360.38 86.5834Z" fill="#151515" fill-opacity="0.4"/>
<path d="M1338.07 60.881C1337.73 61.0182 1337.38 60.7162 1337.46 60.3592L1340.3 48.0691C1340.33 47.9251 1340.43 47.8064 1340.57 47.751L1345.52 45.7531C1345.86 45.6159 1346.21 45.9179 1346.13 46.2748L1343.29 58.565C1343.26 58.709 1343.16 58.8277 1343.02 58.883L1338.07 60.881Z" fill="#151515" fill-opacity="0.4"/>
<path d="M1409.4 22.4916C1409.04 22.3968 1408.94 21.9429 1409.22 21.7074L1418.88 13.5996C1419 13.5046 1419.15 13.4708 1419.29 13.5091L1424.45 14.8907C1424.8 14.9856 1424.9 15.4395 1424.62 15.675L1414.96 23.7827C1414.84 23.8777 1414.69 23.9115 1414.55 23.8732L1409.4 22.4916Z" fill="#151515" fill-opacity="0.4"/>
<rect x="1362.15" y="42.9993" width="4.35313" height="4.35313" rx="0.452819" fill="#151515" fill-opacity="0.4"/>
<rect x="1383.19" y="22.6223" width="4.35313" height="4.35313" rx="0.452819" transform="rotate(-10 1383.19 22.6223)" fill="#151515" fill-opacity="0.4"/>
<rect x="1422.24" y="47.7954" width="4.35313" height="4.35313" rx="0.452819" transform="rotate(-159 1422.24 47.7954)" fill="#151515" fill-opacity="0.4"/>
<rect x="1376.72" y="86.451" width="4.35313" height="4.35313" rx="0.452819" transform="rotate(-50 1376.72 86.451)" fill="#151515" fill-opacity="0.4"/>
<rect x="1402.76" y="4.24591" width="4.35313" height="4.35313" rx="0.452819" transform="rotate(-127 1402.76 4.24591)" fill="#151515" fill-opacity="0.4"/>
<rect x="1350.99" y="-2.31781" width="4.35313" height="4.35313" rx="0.452819" transform="rotate(-50 1350.99 -2.31781)" fill="#151515" fill-opacity="0.4"/>
<circle cx="1419.02" cy="67.4702" r="2.17656" transform="rotate(-40 1419.02 67.4702)" fill="#151515" fill-opacity="0.4"/>
<circle cx="1373.4" cy="65.0238" r="2.17656" transform="rotate(-40 1373.4 65.0238)" fill="#151515" fill-opacity="0.4"/>
<circle cx="1406.46" cy="34.4427" r="2.17656" transform="rotate(-40 1406.46 34.4427)" fill="#151515" fill-opacity="0.4"/>
<circle cx="1331.22" cy="35.0696" r="2.17656" transform="rotate(-40 1331.22 35.0696)" fill="#151515" fill-opacity="0.4"/>
<g filter="url(#filter27_d)">
<circle cx="1381.54" cy="-23.2717" r="25.3578" fill="#FFE261"/>
<path opacity="0.2" fill-rule="evenodd" clip-rule="evenodd" d="M1362.61 -23.2718C1373.06 -23.2718 1381.53 -31.7295 1381.54 -42.1687C1381.56 -31.7295 1390.03 -23.2718 1400.47 -23.2718C1402.41 -23.2718 1404.29 -23.5656 1406.06 -24.1112L1406.9 -23.2717L1406.06 -22.4321C1404.29 -22.9778 1402.41 -23.2717 1400.47 -23.2717C1390.03 -23.2717 1381.56 -14.8139 1381.54 -4.37466C1381.53 -14.8139 1373.06 -23.2717 1362.61 -23.2717C1360.67 -23.2717 1358.79 -22.9778 1357.02 -22.4321L1356.18 -23.2717L1357.02 -24.1112C1358.79 -23.5656 1360.67 -23.2718 1362.61 -23.2718ZM1380.7 1.24671L1381.54 2.08621L1382.38 1.24672C1381.84 -0.511459 1381.54 -2.37907 1381.54 -4.31481C1381.54 -2.37907 1381.25 -0.511471 1380.7 1.24671ZM1382.38 -47.7901C1381.84 -46.0319 1381.54 -44.1643 1381.54 -42.2286C1381.54 -44.1643 1381.25 -46.0319 1380.7 -47.79L1381.54 -48.6295L1382.38 -47.7901Z" fill="#861719"/>
</g>
<g filter="url(#filter28_d)">
<circle cx="1352.56" cy="-8.78139" r="25.3578" fill="#FFE261"/>
<path opacity="0.2" fill-rule="evenodd" clip-rule="evenodd" d="M1333.63 -8.78146C1344.08 -8.78146 1352.55 -17.2392 1352.56 -27.6784C1352.58 -17.2392 1361.05 -8.78146 1371.49 -8.78146C1373.43 -8.78146 1375.31 -9.07527 1377.08 -9.62095L1377.92 -8.78136L1377.08 -7.94184C1375.31 -8.48754 1373.43 -8.78136 1371.49 -8.78136C1361.05 -8.78136 1352.58 -0.32365 1352.56 10.1156C1352.55 -0.32365 1344.08 -8.78136 1333.63 -8.78136C1331.69 -8.78136 1329.81 -8.48754 1328.04 -7.94184L1327.2 -8.78136L1328.04 -9.62095C1329.81 -9.07526 1331.69 -8.78146 1333.63 -8.78146ZM1351.72 15.737L1352.56 16.5765L1353.4 15.737C1352.86 13.9788 1352.56 12.1112 1352.56 10.1755C1352.56 12.1112 1352.26 13.9788 1351.72 15.737ZM1353.4 -33.2998C1352.86 -31.5416 1352.56 -29.674 1352.56 -27.7383C1352.56 -29.674 1352.26 -31.5416 1351.72 -33.2997L1352.56 -34.1392L1353.4 -33.2998Z" fill="#861719"/>
</g>
<g filter="url(#filter29_d)">
<circle cx="1333.54" cy="23.8213" r="25.3578" fill="#FFE261"/>
<path opacity="0.2" fill-rule="evenodd" clip-rule="evenodd" d="M1314.62 23.8213C1325.06 23.8213 1333.53 15.3636 1333.54 4.92427C1333.56 15.3636 1342.03 23.8213 1352.47 23.8213C1354.42 23.8213 1356.29 23.5275 1358.06 22.9818L1358.9 23.8214L1358.06 24.6609C1356.29 24.1152 1354.42 23.8214 1352.47 23.8214C1342.03 23.8214 1333.56 32.2791 1333.54 42.7184C1333.53 32.2791 1325.06 23.8214 1314.62 23.8214C1312.67 23.8214 1310.79 24.1152 1309.02 24.6609L1308.19 23.8214L1309.02 22.9818C1310.79 23.5275 1312.67 23.8213 1314.62 23.8213ZM1332.7 48.3397L1333.54 49.1792L1334.38 48.3397C1333.84 46.5816 1333.55 44.7139 1333.54 42.7782C1333.54 44.7139 1333.25 46.5815 1332.7 48.3397ZM1334.38 -0.697033C1333.84 1.06113 1333.55 2.92872 1333.54 4.86443C1333.54 2.92872 1333.25 1.06114 1332.7 -0.697021L1333.54 -1.5365L1334.38 -0.697033Z" fill="#861719"/>
<circle cx="1328.93" cy="19.2119" r="2.30526" fill="#151515"/>
<circle cx="1328.93" cy="28.4324" r="2.30526" fill="#151515"/>
<circle cx="1338.15" cy="19.2114" r="2.30526" fill="#151515"/>
<circle cx="1338.15" cy="28.4324" r="2.30526" fill="#151515"/>
</g>
<g filter="url(#filter30_d)">
<circle cx="1327.2" cy="58.2356" r="25.3578" fill="#FFE261"/>
<path opacity="0.2" fill-rule="evenodd" clip-rule="evenodd" d="M1308.28 58.2356C1318.72 58.2356 1327.19 49.7779 1327.2 39.3386C1327.22 49.7779 1335.69 58.2356 1346.13 58.2356C1348.08 58.2356 1349.95 57.9418 1351.72 57.3961L1352.56 58.2357L1351.72 59.0752C1349.95 58.5295 1348.08 58.2357 1346.13 58.2357C1335.69 58.2357 1327.22 66.6934 1327.2 77.1327C1327.19 66.6934 1318.72 58.2357 1308.28 58.2357C1306.33 58.2357 1304.45 58.5295 1302.69 59.0752L1301.85 58.2357L1302.69 57.3961C1304.45 57.9418 1306.33 58.2356 1308.28 58.2356ZM1326.36 82.754L1327.2 83.5935L1328.04 82.754C1327.5 80.9959 1327.21 79.1283 1327.2 77.1925C1327.2 79.1283 1326.91 80.9959 1326.36 82.754ZM1328.04 33.7173C1327.5 35.4754 1327.21 37.343 1327.2 39.2787C1327.2 37.343 1326.91 35.4754 1326.36 33.7173L1327.2 32.8778L1328.04 33.7173Z" fill="#861719"/>
<circle cx="1322.59" cy="53.6251" r="2.30526" fill="#151515"/>
<circle cx="1322.59" cy="62.8458" r="2.30526" fill="#151515"/>
<circle cx="1331.81" cy="53.6249" r="2.30526" fill="#151515"/>
<circle cx="1331.81" cy="62.8458" r="2.30526" fill="#151515"/>
</g>
<g filter="url(#filter31_d)">
<circle cx="1432.14" cy="9.66724" r="16.3991" transform="rotate(-20 1432.14 9.66724)" fill="#1A458F"/>
</g>
<circle cx="1432.14" cy="9.66714" r="1.63991" transform="rotate(-20 1432.14 9.66714)" fill="#151515"/>
<g filter="url(#filter32_d)">
<mask id="mask15" mask-type="alpha" maskUnits="userSpaceOnUse" x="1419" y="29" width="34" height="34">
<path d="M1448.57 35.8174C1454.39 42.7554 1453.49 53.0992 1443.04 54.7335C1439.61 64.7426 1429.27 63.8377 1423.45 56.8996C1417.62 49.9616 1418.53 39.6178 1425.47 33.7961C1432.41 27.9744 1442.75 28.8794 1448.57 35.8174Z" fill="#C91D1D"/>
</mask>
<g mask="url(#mask15)">
<path d="M1448.57 35.8174C1454.39 42.7554 1453.49 53.0992 1443.04 54.7335C1439.61 64.7426 1429.27 63.8377 1423.45 56.8996C1417.62 49.9616 1418.53 39.6178 1425.47 33.7961C1432.41 27.9744 1442.75 28.8794 1448.57 35.8174Z" fill="#1A458F"/>
</g>
</g>
<g filter="url(#filter33_d)">
<mask id="mask16" mask-type="alpha" maskUnits="userSpaceOnUse" x="1386" y="13" width="32" height="34">
<path d="M1395.79 45.1718C1387.28 42.0741 1382.89 32.6637 1391.12 26.0225C1389.08 15.6422 1398.49 11.254 1407.01 14.3516C1415.52 17.4493 1419.9 26.8598 1416.81 35.3705C1413.71 43.8813 1404.3 48.2695 1395.79 45.1718Z" fill="#C91D1D"/>
</mask>
<g mask="url(#mask16)">
<path d="M1395.79 45.1718C1387.28 42.0741 1382.89 32.6637 1391.12 26.0225C1389.08 15.6422 1398.49 11.254 1407.01 14.3516C1415.52 17.4493 1419.9 26.8598 1416.81 35.3705C1413.71 43.8813 1404.3 48.2695 1395.79 45.1718Z" fill="#1A458F"/>
<circle cx="1391.36" cy="26.2474" r="1.63991" transform="rotate(130 1391.36 26.2474)" fill="#151515"/>
</g>
</g>
<g filter="url(#filter34_d)">
<circle cx="1394.55" cy="80.2389" r="10.8107" transform="rotate(70 1394.55 80.2389)" fill="#FA4545"/>
</g>
<path d="M1377.31 91.0697C1372.73 94.9076 1365.91 94.311 1364.84 87.4209C1358.24 85.1635 1358.83 78.3446 1363.41 74.5067C1367.98 70.6689 1374.8 71.2655 1378.64 75.8392C1382.48 80.413 1381.88 87.2319 1377.31 91.0697Z" fill="#FA4545"/>
<path d="M1371.14 56.2735C1373.18 50.663 1379.38 47.7702 1383.76 53.1985C1390.61 51.8543 1393.5 58.058 1391.46 63.6685C1389.41 69.279 1383.21 72.1718 1377.6 70.1298C1371.99 68.0877 1369.1 61.8841 1371.14 56.2735Z" fill="#FA4545"/>
<g filter="url(#filter35_d)">
<path d="M1411.78 103.268C1414.82 109.429 1409.82 114.424 1403.66 114.424C1397.5 114.424 1392.51 109.429 1392.51 103.268C1392.51 97.1071 1397.5 92.1126 1403.66 92.1126C1409.82 92.1126 1414.82 97.1071 1411.78 103.268Z" fill="#FA4545"/>
</g>
<g filter="url(#filter36_d)">
<circle cx="1379.32" cy="105.296" r="10.1413" fill="#FA4545"/>
</g>
<g filter="url(#filter37_d)">
<path fill-rule="evenodd" clip-rule="evenodd" d="M1394.66 79.9179C1395.68 80.5158 1396.91 80.9569 1398.21 80.7875C1400.76 80.457 1401.97 79.2478 1402.26 78.6845C1401.44 77.6392 1399.41 75.5404 1397.8 75.5081C1396.56 75.483 1394.74 76.5238 1393.46 77.4414C1393.31 77.1388 1393.16 76.8374 1393.01 76.5374C1390.82 72.1179 1388.63 67.9755 1386.65 64.7015C1385.66 63.065 1384.71 61.6327 1383.84 60.4862C1383.41 59.9209 1382.98 59.41 1382.57 58.973C1383.67 58.9242 1384.84 58.6439 1385.8 57.9057C1387.95 56.2669 1388.42 54.5273 1388.38 53.8623C1387.09 53.3388 1384.14 52.4957 1382.66 53.3108C1382.03 53.6555 1381.42 54.3775 1380.88 55.2078C1380.34 54.3775 1379.72 53.6555 1379.1 53.3108C1377.62 52.4957 1374.66 53.3388 1373.37 53.8623C1373.34 54.5273 1373.81 56.2669 1375.95 57.9057C1376.84 58.5842 1377.89 58.8758 1378.92 58.9565C1375.37 61.9666 1371.03 68.3713 1370.64 78.1792C1370.41 77.8612 1370.15 77.5987 1369.87 77.4244C1368.49 76.5935 1365.41 76.8229 1363.94 77.0873C1364.24 78.3506 1365.21 81.2152 1367.58 82.2006C1368.87 82.7376 1369.95 82.8511 1370.75 82.7877C1371.22 88.4584 1372.96 95.0641 1376.67 102.606C1375.5 103.402 1374.35 104.579 1373.72 105.326C1374.76 106.106 1377.35 107.673 1379.8 106.906C1382.24 106.139 1383.23 104.737 1383.41 104.133C1382.43 103.245 1380.06 101.531 1378.48 101.778C1378.42 101.787 1378.36 101.798 1378.3 101.812C1366.23 77.2803 1375.68 63.528 1380.8 59.7735C1381.26 60.186 1381.79 60.7881 1382.4 61.5841C1383.22 62.6606 1384.13 64.0338 1385.1 65.6399C1387.04 68.8511 1389.21 72.9422 1391.39 77.3415C1395.52 85.6713 1399.66 95.0542 1402.38 101.541C1401.04 102.438 1399.79 105.05 1399.3 106.395C1400.54 106.774 1403.51 107.361 1405.55 105.803C1407.59 104.245 1408.03 102.592 1408 101.96C1407.15 101.615 1405.54 101.125 1404.17 101.113C1401.8 95.4467 1398.3 87.4798 1394.66 79.9179Z" fill="#20C06B"/>
</g>
<path d="M1393.01 8.37107C1391.14 6.00922 1386.21 7.80276 1386.29 10.8167C1388.17 13.1784 1393.1 11.3849 1393.01 8.37107Z" fill="#FFE3AD"/>
<path d="M1343.45 110.225C1342.15 107.505 1345.92 103.862 1348.6 105.258C1349.9 107.978 1346.12 111.62 1343.45 110.225Z" fill="#FFE3AD"/>
<path d="M1431.42 86.4341C1432.76 89.134 1437.95 88.4042 1438.5 85.4389C1437.16 82.7392 1431.96 83.469 1431.42 86.4341Z" fill="#FFE3AD"/>
<path d="M1300.94 14.9317C1297.99 14.3272 1295.36 18.8686 1297.36 21.1245C1300.32 21.7289 1302.94 17.1875 1300.94 14.9317Z" fill="#FFE3AD"/>
<path d="M1404.85 55.659C1405.03 58.6688 1410.09 60.026 1411.76 57.5099C1411.57 54.5003 1406.51 53.143 1404.85 55.659Z" fill="#FFE3AD"/>
<circle cx="1372.97" cy="31.6902" r="1.812" fill="#FCC3C3"/>
<circle cx="1301.97" cy="36.986" r="1.812" fill="#FCC3C3"/>
<circle cx="1335.04" cy="99.8736" r="1.812" fill="#FA4545"/>
<circle cx="1403.32" cy="122.349" r="1.812" fill="#FCC3C3"/>
<rect x="1429.57" y="97.7165" width="3.62401" height="3.62401" transform="rotate(30 1429.57 97.7165)" fill="#FA4545"/>
</g>
<g filter="url(#filter38_d)">
<path d="M1266.08 -42.0777C1289.2 -108.26 1286.6 -114.347 1297.72 -110.301C1308.83 -106.256 1297.03 -94.397 1276.6 -38.251C1266.63 -10.8634 1252.99 14.3353 1249.28 31.1998C1247.25 40.4278 1262.91 65.7187 1243.97 92.5089C1233.34 107.545 1207.73 103.035 1207.32 79.1708C1206.85 51.5025 1239.56 32.7212 1241.77 28.4666C1249.72 13.1473 1257.99 -18.9028 1266.08 -42.0777Z" fill="white"/>
</g>
<path d="M1258.43 101.156C1260.35 99.6299 1258.89 95.6169 1256.44 95.684C1254.51 97.2103 1255.97 101.223 1258.43 101.156Z" fill="white"/>
<circle cx="1247.59" cy="104.189" r="1.47567" transform="rotate(130 1247.59 104.189)" fill="#FA4545"/>
<rect x="1227.76" y="30.5931" width="2.95135" height="2.95135" transform="rotate(160 1227.76 30.5931)" fill="#C91D1D"/>
<path d="M1217.47 40.6474L1213.29 32.447L1214.92 29.5534L1219.09 37.7538L1217.47 40.6474Z" fill="#20C06B"/>
<path d="M952.249 29.1695C954.429 29.6157 956.365 26.2635 954.888 24.5984C952.708 24.1522 950.772 27.5044 952.249 29.1695Z" fill="white"/>
<circle cx="945.007" cy="22.4213" r="1.33751" transform="rotate(180 945.007 22.4213)" fill="#FA4545"/>
<path d="M1081.39 64.8534C1083.13 63.4699 1081.81 59.8326 1079.59 59.8934C1077.84 61.2768 1079.17 64.9141 1081.39 64.8534Z" fill="white"/>
<circle cx="1106" cy="47.3499" r="1.33751" transform="rotate(180 1106 47.3499)" fill="#FA4545"/>
<rect x="1069.87" y="67.755" width="2.67503" height="2.67503" transform="rotate(-150 1069.87 67.755)" fill="#C91D1D"/>
<path d="M1088.63 74.1385L1081.33 70.0943L1078.66 71.4742L1085.95 75.5184L1088.63 74.1385Z" fill="#20C06B"/>
<path d="M1091 63.6815L1089.84 55.4208L1092.09 53.4204L1093.25 61.6811L1091 63.6815Z" fill="#166B42"/>
<g filter="url(#filter39_d)">
<mask id="mask17" mask-type="alpha" maskUnits="userSpaceOnUse" x="1364" y="140" width="143" height="145">
<path d="M1441.87 266.299C1441.87 266.299 1496.07 226.097 1506.53 213.638C1493.33 190.054 1457.48 145.568 1451.18 141.791C1448.24 141.223 1446.01 141.625 1441.62 140.978C1424.39 152.077 1392.03 180.353 1383.56 188.938C1361.82 183.212 1352.49 203.818 1388.64 247.04C1421.36 286.166 1430.01 288.196 1440.48 281.057C1449.2 275.107 1443.89 269.764 1441.87 266.299Z" fill="#C4C4C4"/>
</mask>
<g mask="url(#mask17)">
<path d="M1441.87 266.299C1441.87 266.299 1496.07 226.097 1506.53 213.638C1493.33 190.054 1457.48 145.568 1451.18 141.791C1448.24 141.223 1446.01 141.625 1441.62 140.978C1424.39 152.077 1392.03 180.353 1383.56 188.938C1361.82 183.212 1352.49 203.818 1388.64 247.04C1421.36 286.166 1430.01 288.196 1440.48 281.057C1449.2 275.107 1443.89 269.764 1441.87 266.299Z" fill="#FFC044"/>
<path d="M1443.47 265.745C1443.47 265.745 1497.37 225.456 1506.78 214.233C1494.92 193.009 1457.3 145.561 1451.62 142.164C1436.11 152.166 1391.42 188.605 1383.79 196.338C1379.88 194.957 1376.87 194.436 1372.76 199.069C1368.65 203.703 1369.25 212.561 1395.83 244.351C1424.78 278.981 1433.22 286.159 1441.07 280.799C1448.93 275.438 1445.28 268.864 1443.47 265.745Z" fill="#FFE3AD"/>
</g>
</g>
<g filter="url(#filter40_d)">
<mask id="mask18" mask-type="alpha" maskUnits="userSpaceOnUse" x="1317" y="159" width="32" height="34">
<path d="M1339.1 160.688C1347.61 163.786 1352 173.196 1343.76 179.837C1345.8 190.218 1336.39 194.606 1327.88 191.508C1319.37 188.411 1314.98 179 1318.08 170.489C1321.18 161.979 1330.59 157.591 1339.1 160.688Z" fill="#C91D1D"/>
</mask>
<g mask="url(#mask18)">
<path d="M1339.1 160.688C1347.61 163.786 1352 173.196 1343.76 179.837C1345.8 190.218 1336.39 194.606 1327.88 191.508C1319.37 188.411 1314.98 179 1318.08 170.489C1321.18 161.979 1330.59 157.591 1339.1 160.688Z" fill="#1A458F"/>
<circle cx="1343.53" cy="179.613" r="1.63991" transform="rotate(-50 1343.53 179.613)" fill="#151515"/>
</g>
</g>
</g>
<defs>
<filter id="filter0_d" x="-61.2056" y="-53.1025" width="291.078" height="291.078" filterUnits="userSpaceOnUse" color-interpolation-filters="sRGB">
<feFlood flood-opacity="0" result="BackgroundImageFix"/>
<feColorMatrix in="SourceAlpha" type="matrix" values="0 0 0 0 0 0 0 0 0 0 0 0 0 0 0 0 0 0 127 0"/>
<feOffset dx="6.90303" dy="6.90303"/>
<feColorMatrix type="matrix" values="0 0 0 0 0.52549 0 0 0 0 0.0901961 0 0 0 0 0.0980392 0 0 0 0.1 0"/>
<feBlend mode="normal" in2="BackgroundImageFix" result="effect1_dropShadow"/>
<feBlend mode="normal" in="SourceGraphic" in2="effect1_dropShadow" result="shape"/>
</filter>
<filter id="filter1_d" x="-19.6389" y="-11.5356" width="201.04" height="201.04" filterUnits="userSpaceOnUse" color-interpolation-filters="sRGB">
<feFlood flood-opacity="0" result="BackgroundImageFix"/>
<feColorMatrix in="SourceAlpha" type="matrix" values="0 0 0 0 0 0 0 0 0 0 0 0 0 0 0 0 0 0 127 0"/>
<feOffset/>
<feGaussianBlur stdDeviation="3.08886"/>
<feColorMatrix type="matrix" values="0 0 0 0 0.52549 0 0 0 0 0.0901961 0 0 0 0 0.0980392 0 0 0 0.1 0"/>
<feBlend mode="normal" in2="BackgroundImageFix" result="effect1_dropShadow"/>
<feBlend mode="normal" in="SourceGraphic" in2="effect1_dropShadow" result="shape"/>
</filter>
<filter id="filter2_d" x="-19.6389" y="-11.5356" width="201.04" height="201.04" filterUnits="userSpaceOnUse" color-interpolation-filters="sRGB">
<feFlood flood-opacity="0" result="BackgroundImageFix"/>
<feColorMatrix in="SourceAlpha" type="matrix" values="0 0 0 0 0 0 0 0 0 0 0 0 0 0 0 0 0 0 127 0"/>
<feOffset/>
<feGaussianBlur stdDeviation="3.08886"/>
<feColorMatrix type="matrix" values="0 0 0 0 0.52549 0 0 0 0 0.0901961 0 0 0 0 0.0980392 0 0 0 0.1 0"/>
<feBlend mode="normal" in2="BackgroundImageFix" result="effect1_dropShadow"/>
<feBlend mode="normal" in="SourceGraphic" in2="effect1_dropShadow" result="shape"/>
</filter>
<filter id="filter3_d" x="1.91534" y="-14.1832" width="177.699" height="209.425" filterUnits="userSpaceOnUse" color-interpolation-filters="sRGB">
<feFlood flood-opacity="0" result="BackgroundImageFix"/>
<feColorMatrix in="SourceAlpha" type="matrix" values="0 0 0 0 0 0 0 0 0 0 0 0 0 0 0 0 0 0 127 0"/>
<feOffset dx="-1.23554" dy="5.55994"/>
<feColorMatrix type="matrix" values="0 0 0 0 0.52549 0 0 0 0 0.0901961 0 0 0 0 0.0980392 0 0 0 0.1 0"/>
<feBlend mode="normal" in2="BackgroundImageFix" result="effect1_dropShadow"/>
<feBlend mode="normal" in="SourceGraphic" in2="effect1_dropShadow" result="shape"/>
</filter>
<filter id="filter4_d" x="89.3564" y="80.243" width="31.5408" height="45.5434" filterUnits="userSpaceOnUse" color-interpolation-filters="sRGB">
<feFlood flood-opacity="0" result="BackgroundImageFix"/>
<feColorMatrix in="SourceAlpha" type="matrix" values="0 0 0 0 0 0 0 0 0 0 0 0 0 0 0 0 0 0 127 0"/>
<feOffset dx="4.94217" dy="4.94217"/>
<feColorMatrix type="matrix" values="0 0 0 0 0.52549 0 0 0 0 0.0901961 0 0 0 0 0.0980392 0 0 0 0.2 0"/>
<feBlend mode="normal" in2="BackgroundImageFix" result="effect1_dropShadow"/>
<feBlend mode="normal" in="SourceGraphic" in2="effect1_dropShadow" result="shape"/>
</filter>
<filter id="filter5_d" x="62.1392" y="53.8384" width="31.2917" height="36.6395" filterUnits="userSpaceOnUse" color-interpolation-filters="sRGB">
<feFlood flood-opacity="0" result="BackgroundImageFix"/>
<feColorMatrix in="SourceAlpha" type="matrix" values="0 0 0 0 0 0 0 0 0 0 0 0 0 0 0 0 0 0 127 0"/>
<feOffset dy="2.47109"/>
<feColorMatrix type="matrix" values="0 0 0 0 0.52549 0 0 0 0 0.0901961 0 0 0 0 0.0980392 0 0 0 0.2 0"/>
<feBlend mode="normal" in2="BackgroundImageFix" result="effect1_dropShadow"/>
<feBlend mode="normal" in="SourceGraphic" in2="effect1_dropShadow" result="shape"/>
</filter>
<filter id="filter6_d" x="67.7942" y="79.9832" width="27.8342" height="45.5434" filterUnits="userSpaceOnUse" color-interpolation-filters="sRGB">
<feFlood flood-opacity="0" result="BackgroundImageFix"/>
<feColorMatrix in="SourceAlpha" type="matrix" values="0 0 0 0 0 0 0 0 0 0 0 0 0 0 0 0 0 0 127 0"/>
<feOffset dx="1.23554" dy="4.94217"/>
<feColorMatrix type="matrix" values="0 0 0 0 0.52549 0 0 0 0 0.0901961 0 0 0 0 0.0980392 0 0 0 0.2 0"/>
<feBlend mode="normal" in2="BackgroundImageFix" result="effect1_dropShadow"/>
<feBlend mode="normal" in="SourceGraphic" in2="effect1_dropShadow" result="shape"/>
</filter>
<filter id="filter7_d" x="36.936" y="656.889" width="188.924" height="188.924" filterUnits="userSpaceOnUse" color-interpolation-filters="sRGB">
<feFlood flood-opacity="0" result="BackgroundImageFix"/>
<feColorMatrix in="SourceAlpha" type="matrix" values="0 0 0 0 0 0 0 0 0 0 0 0 0 0 0 0 0 0 127 0"/>
<feOffset dx="8.99403" dy="8.99403"/>
<feColorMatrix type="matrix" values="0 0 0 0 0.52549 0 0 0 0 0.0901961 0 0 0 0 0.0980392 0 0 0 0.1 0"/>
<feBlend mode="normal" in2="BackgroundImageFix" result="effect1_dropShadow"/>
<feBlend mode="normal" in="SourceGraphic" in2="effect1_dropShadow" result="shape"/>
</filter>
<filter id="filter8_i" x="51.8525" y="671.657" width="150.097" height="150.393" filterUnits="userSpaceOnUse" color-interpolation-filters="sRGB">
<feFlood flood-opacity="0" result="BackgroundImageFix"/>
<feBlend mode="normal" in="SourceGraphic" in2="BackgroundImageFix" result="shape"/>
<feColorMatrix in="SourceAlpha" type="matrix" values="0 0 0 0 0 0 0 0 0 0 0 0 0 0 0 0 0 0 127 0" result="hardAlpha"/>
<feOffset dx="-9.35379" dy="10.523"/>
<feComposite in2="hardAlpha" operator="arithmetic" k2="-1" k3="1"/>
<feColorMatrix type="matrix" values="0 0 0 0 0.0823529 0 0 0 0 0.262745 0 0 0 0 0.239216 0 0 0 0.5 0"/>
<feBlend mode="normal" in2="shape" result="effect1_innerShadow"/>
</filter>
<filter id="filter9_d" x="132.702" y="635.709" width="127.6" height="111.846" filterUnits="userSpaceOnUse" color-interpolation-filters="sRGB">
<feFlood flood-opacity="0" result="BackgroundImageFix"/>
<feColorMatrix in="SourceAlpha" type="matrix" values="0 0 0 0 0 0 0 0 0 0 0 0 0 0 0 0 0 0 127 0"/>
<feOffset dx="2.57454" dy="-3.04673"/>
<feColorMatrix type="matrix" values="0 0 0 0 0.52549 0 0 0 0 0.0901961 0 0 0 0 0.0980392 0 0 0 0.1 0"/>
<feBlend mode="normal" in2="BackgroundImageFix" result="effect1_dropShadow"/>
<feBlend mode="normal" in="SourceGraphic" in2="effect1_dropShadow" result="shape"/>
</filter>
<filter id="filter10_d" x="268.545" y="663.72" width="147.726" height="93.481" filterUnits="userSpaceOnUse" color-interpolation-filters="sRGB">
<feFlood flood-opacity="0" result="BackgroundImageFix"/>
<feColorMatrix in="SourceAlpha" type="matrix" values="0 0 0 0 0 0 0 0 0 0 0 0 0 0 0 0 0 0 127 0"/>
<feOffset dx="3.72481" dy="3.72481"/>
<feColorMatrix type="matrix" values="0 0 0 0 0.52549 0 0 0 0 0.0901961 0 0 0 0 0.0980392 0 0 0 0.2 0"/>
<feBlend mode="normal" in2="BackgroundImageFix" result="effect1_dropShadow"/>
<feBlend mode="normal" in="SourceGraphic" in2="effect1_dropShadow" result="shape"/>
</filter>
<filter id="filter11_d" x="243.078" y="701.822" width="137.688" height="138.425" filterUnits="userSpaceOnUse" color-interpolation-filters="sRGB">
<feFlood flood-opacity="0" result="BackgroundImageFix"/>
<feColorMatrix in="SourceAlpha" type="matrix" values="0 0 0 0 0 0 0 0 0 0 0 0 0 0 0 0 0 0 127 0"/>
<feOffset dx="5.09938" dy="5.09938"/>
<feColorMatrix type="matrix" values="0 0 0 0 0.52549 0 0 0 0 0.0901961 0 0 0 0 0.0980392 0 0 0 0.1 0"/>
<feBlend mode="normal" in2="BackgroundImageFix" result="effect1_dropShadow"/>
<feBlend mode="normal" in="SourceGraphic" in2="effect1_dropShadow" result="shape"/>
</filter>
<filter id="filter12_d" x="1017.91" y="622.98" width="309.14" height="309.14" filterUnits="userSpaceOnUse" color-interpolation-filters="sRGB">
<feFlood flood-opacity="0" result="BackgroundImageFix"/>
<feColorMatrix in="SourceAlpha" type="matrix" values="0 0 0 0 0 0 0 0 0 0 0 0 0 0 0 0 0 0 127 0"/>
<feOffset dx="7.21983" dy="7.21983"/>
<feColorMatrix type="matrix" values="0 0 0 0 0.52549 0 0 0 0 0.0901961 0 0 0 0 0.0980392 0 0 0 0.1 0"/>
<feBlend mode="normal" in2="BackgroundImageFix" result="effect1_dropShadow"/>
<feBlend mode="normal" in="SourceGraphic" in2="effect1_dropShadow" result="shape"/>
</filter>
<filter id="filter13_d" x="1234.83" y="751.458" width="32.8549" height="27.1806" filterUnits="userSpaceOnUse" color-interpolation-filters="sRGB">
<feFlood flood-opacity="0" result="BackgroundImageFix"/>
<feColorMatrix in="SourceAlpha" type="matrix" values="0 0 0 0 0 0 0 0 0 0 0 0 0 0 0 0 0 0 127 0"/>
<feOffset dx="2.62539" dy="2.62539"/>
<feColorMatrix type="matrix" values="0 0 0 0 0.0862745 0 0 0 0 0.419608 0 0 0 0 0.258824 0 0 0 0.1 0"/>
<feBlend mode="normal" in2="BackgroundImageFix" result="effect1_dropShadow"/>
<feBlend mode="normal" in="SourceGraphic" in2="effect1_dropShadow" result="shape"/>
</filter>
<filter id="filter14_d" x="1116.94" y="752.775" width="125.969" height="99.5995" filterUnits="userSpaceOnUse" color-interpolation-filters="sRGB">
<feFlood flood-opacity="0" result="BackgroundImageFix"/>
<feColorMatrix in="SourceAlpha" type="matrix" values="0 0 0 0 0 0 0 0 0 0 0 0 0 0 0 0 0 0 127 0"/>
<feOffset dx="2.62539" dy="2.62539"/>
<feColorMatrix type="matrix" values="0 0 0 0 0.0823529 0 0 0 0 0.262745 0 0 0 0 0.239216 0 0 0 0.3 0"/>
<feBlend mode="normal" in2="BackgroundImageFix" result="effect1_dropShadow"/>
<feBlend mode="normal" in="SourceGraphic" in2="effect1_dropShadow" result="shape"/>
</filter>
<filter id="filter15_d" x="1087.73" y="705.457" width="144.385" height="65.7989" filterUnits="userSpaceOnUse" color-interpolation-filters="sRGB">
<feFlood flood-opacity="0" result="BackgroundImageFix"/>
<feColorMatrix in="SourceAlpha" type="matrix" values="0 0 0 0 0 0 0 0 0 0 0 0 0 0 0 0 0 0 127 0"/>
<feOffset dx="2.62539" dy="2.62539"/>
<feColorMatrix type="matrix" values="0 0 0 0 0.0823529 0 0 0 0 0.262745 0 0 0 0 0.239216 0 0 0 0.3 0"/>
<feBlend mode="normal" in2="BackgroundImageFix" result="effect1_dropShadow"/>
<feBlend mode="normal" in="SourceGraphic" in2="effect1_dropShadow" result="shape"/>
</filter>
<filter id="filter16_d" x="1077.22" y="726.94" width="32.8551" height="27.1808" filterUnits="userSpaceOnUse" color-interpolation-filters="sRGB">
<feFlood flood-opacity="0" result="BackgroundImageFix"/>
<feColorMatrix in="SourceAlpha" type="matrix" values="0 0 0 0 0 0 0 0 0 0 0 0 0 0 0 0 0 0 127 0"/>
<feOffset dx="2.62539" dy="2.62539"/>
<feColorMatrix type="matrix" values="0 0 0 0 0.0862745 0 0 0 0 0.419608 0 0 0 0 0.258824 0 0 0 0.1 0"/>
<feBlend mode="normal" in2="BackgroundImageFix" result="effect1_dropShadow"/>
<feBlend mode="normal" in="SourceGraphic" in2="effect1_dropShadow" result="shape"/>
</filter>
<filter id="filter17_d" x="1143.25" y="689.032" width="59.4889" height="63.2826" filterUnits="userSpaceOnUse" color-interpolation-filters="sRGB">
<feFlood flood-opacity="0" result="BackgroundImageFix"/>
<feColorMatrix in="SourceAlpha" type="matrix" values="0 0 0 0 0 0 0 0 0 0 0 0 0 0 0 0 0 0 127 0"/>
<feOffset dx="2.62539" dy="2.62539"/>
<feColorMatrix type="matrix" values="0 0 0 0 0.52549 0 0 0 0 0.0901961 0 0 0 0 0.0980392 0 0 0 0.1 0"/>
<feBlend mode="normal" in2="BackgroundImageFix" result="effect1_dropShadow"/>
<feBlend mode="normal" in="SourceGraphic" in2="effect1_dropShadow" result="shape"/>
</filter>
<filter id="filter18_d" x="1371.21" y="667.529" width="56.5666" height="41.5653" filterUnits="userSpaceOnUse" color-interpolation-filters="sRGB">
<feFlood flood-opacity="0" result="BackgroundImageFix"/>
<feColorMatrix in="SourceAlpha" type="matrix" values="0 0 0 0 0 0 0 0 0 0 0 0 0 0 0 0 0 0 127 0"/>
<feOffset dx="2.78635" dy="2.78635"/>
<feColorMatrix type="matrix" values="0 0 0 0 0.52549 0 0 0 0 0.0901961 0 0 0 0 0.0980392 0 0 0 0.1 0"/>
<feBlend mode="normal" in2="BackgroundImageFix" result="effect1_dropShadow"/>
<feBlend mode="normal" in="SourceGraphic" in2="effect1_dropShadow" result="shape"/>
</filter>
<filter id="filter19_d" x="1352.48" y="621.219" width="32.0798" height="53.4585" filterUnits="userSpaceOnUse" color-interpolation-filters="sRGB">
<feFlood flood-opacity="0" result="BackgroundImageFix"/>
<feColorMatrix in="SourceAlpha" type="matrix" values="0 0 0 0 0 0 0 0 0 0 0 0 0 0 0 0 0 0 127 0"/>
<feOffset dx="2.78635" dy="2.78635"/>
<feColorMatrix type="matrix" values="0 0 0 0 0.52549 0 0 0 0 0.0901961 0 0 0 0 0.0980392 0 0 0 0.1 0"/>
<feBlend mode="normal" in2="BackgroundImageFix" result="effect1_dropShadow"/>
<feBlend mode="normal" in="SourceGraphic" in2="effect1_dropShadow" result="shape"/>
</filter>
<filter id="filter20_d" x="1176.63" y="9.18134" width="24.8639" height="25.0729" filterUnits="userSpaceOnUse" color-interpolation-filters="sRGB">
<feFlood flood-opacity="0" result="BackgroundImageFix"/>
<feColorMatrix in="SourceAlpha" type="matrix" values="0 0 0 0 0 0 0 0 0 0 0 0 0 0 0 0 0 0 127 0"/>
<feOffset dx="3.62255" dy="3.62255"/>
<feColorMatrix type="matrix" values="0 0 0 0 0.52549 0 0 0 0 0.0901961 0 0 0 0 0.0980392 0 0 0 0.2 0"/>
<feBlend mode="normal" in2="BackgroundImageFix" result="effect1_dropShadow"/>
<feBlend mode="normal" in="SourceGraphic" in2="effect1_dropShadow" result="shape"/>
</filter>
<filter id="filter21_d" x="1183.34" y="16.3275" width="11.0332" height="6.31655" filterUnits="userSpaceOnUse" color-interpolation-filters="sRGB">
<feFlood flood-opacity="0" result="BackgroundImageFix"/>
<feColorMatrix in="SourceAlpha" type="matrix" values="0 0 0 0 0 0 0 0 0 0 0 0 0 0 0 0 0 0 127 0"/>
<feOffset dx="1.69718" dy="0.84859"/>
<feColorMatrix type="matrix" values="0 0 0 0 0.52549 0 0 0 0 0.0901961 0 0 0 0 0.0980392 0 0 0 0.2 0"/>
<feBlend mode="normal" in2="BackgroundImageFix" result="effect1_dropShadow"/>
<feBlend mode="normal" in="SourceGraphic" in2="effect1_dropShadow" result="shape"/>
</filter>
<filter id="filter22_d" x="1185.89" y="34.0565" width="23.9052" height="23.9052" filterUnits="userSpaceOnUse" color-interpolation-filters="sRGB">
<feFlood flood-opacity="0" result="BackgroundImageFix"/>
<feColorMatrix in="SourceAlpha" type="matrix" values="0 0 0 0 0 0 0 0 0 0 0 0 0 0 0 0 0 0 127 0"/>
<feOffset dx="3.62255" dy="3.62255"/>
<feColorMatrix type="matrix" values="0 0 0 0 0.52549 0 0 0 0 0.0901961 0 0 0 0 0.0980392 0 0 0 0.2 0"/>
<feBlend mode="normal" in2="BackgroundImageFix" result="effect1_dropShadow"/>
<feBlend mode="normal" in="SourceGraphic" in2="effect1_dropShadow" result="shape"/>
</filter>
<filter id="filter23_d" x="1191.46" y="40.9602" width="9.8876" height="6.80799" filterUnits="userSpaceOnUse" color-interpolation-filters="sRGB">
<feFlood flood-opacity="0" result="BackgroundImageFix"/>
<feColorMatrix in="SourceAlpha" type="matrix" values="0 0 0 0 0 0 0 0 0 0 0 0 0 0 0 0 0 0 127 0"/>
<feOffset dx="1.69718" dy="0.84859"/>
<feColorMatrix type="matrix" values="0 0 0 0 0.52549 0 0 0 0 0.0901961 0 0 0 0 0.0980392 0 0 0 0.2 0"/>
<feBlend mode="normal" in2="BackgroundImageFix" result="effect1_dropShadow"/>
<feBlend mode="normal" in="SourceGraphic" in2="effect1_dropShadow" result="shape"/>
</filter>
<filter id="filter24_d" x="1117.81" y="6.92596" width="54.3394" height="54.3394" filterUnits="userSpaceOnUse" color-interpolation-filters="sRGB">
<feFlood flood-opacity="0" result="BackgroundImageFix"/>
<feColorMatrix in="SourceAlpha" type="matrix" values="0 0 0 0 0 0 0 0 0 0 0 0 0 0 0 0 0 0 127 0"/>
<feOffset dx="3.62255" dy="3.62255"/>
<feColorMatrix type="matrix" values="0 0 0 0 0.52549 0 0 0 0 0.0901961 0 0 0 0 0.0980392 0 0 0 0.1 0"/>
<feBlend mode="normal" in2="BackgroundImageFix" result="effect1_dropShadow"/>
<feBlend mode="normal" in="SourceGraphic" in2="effect1_dropShadow" result="shape"/>
</filter>
<filter id="filter25_d" x="1273.77" y="-72.1763" width="225.662" height="225.662" filterUnits="userSpaceOnUse" color-interpolation-filters="sRGB">
<feFlood flood-opacity="0" result="BackgroundImageFix"/>
<feColorMatrix in="SourceAlpha" type="matrix" values="0 0 0 0 0 0 0 0 0 0 0 0 0 0 0 0 0 0 127 0"/>
<feOffset dx="10.1197" dy="10.1197"/>
<feColorMatrix type="matrix" values="0 0 0 0 0.52549 0 0 0 0 0.0901961 0 0 0 0 0.0980392 0 0 0 0.1 0"/>
<feBlend mode="normal" in2="BackgroundImageFix" result="effect1_dropShadow"/>
<feBlend mode="normal" in="SourceGraphic" in2="effect1_dropShadow" result="shape"/>
</filter>
<filter id="filter26_i" x="1288.05" y="-59.8324" width="186.977" height="190.854" filterUnits="userSpaceOnUse" color-interpolation-filters="sRGB">
<feFlood flood-opacity="0" result="BackgroundImageFix"/>
<feBlend mode="normal" in="SourceGraphic" in2="BackgroundImageFix" result="shape"/>
<feColorMatrix in="SourceAlpha" type="matrix" values="0 0 0 0 0 0 0 0 0 0 0 0 0 0 0 0 0 0 127 0" result="hardAlpha"/>
<feOffset dx="-9.41864" dy="10.596"/>
<feComposite in2="hardAlpha" operator="arithmetic" k2="-1" k3="1"/>
<feColorMatrix type="matrix" values="0 0 0 0 1 0 0 0 0 0.960784 0 0 0 0 0.921569 0 0 0 1 0"/>
<feBlend mode="normal" in2="shape" result="effect1_innerShadow"/>
</filter>
<filter id="filter27_d" x="1356.18" y="-48.6295" width="54.3383" height="54.3383" filterUnits="userSpaceOnUse" color-interpolation-filters="sRGB">
<feFlood flood-opacity="0" result="BackgroundImageFix"/>
<feColorMatrix in="SourceAlpha" type="matrix" values="0 0 0 0 0 0 0 0 0 0 0 0 0 0 0 0 0 0 127 0"/>
<feOffset dx="3.62255" dy="3.62255"/>
<feColorMatrix type="matrix" values="0 0 0 0 0.52549 0 0 0 0 0.0901961 0 0 0 0 0.0980392 0 0 0 0.1 0"/>
<feBlend mode="normal" in2="BackgroundImageFix" result="effect1_dropShadow"/>
<feBlend mode="normal" in="SourceGraphic" in2="effect1_dropShadow" result="shape"/>
</filter>
<filter id="filter28_d" x="1327.2" y="-34.1392" width="54.3383" height="54.3383" filterUnits="userSpaceOnUse" color-interpolation-filters="sRGB">
<feFlood flood-opacity="0" result="BackgroundImageFix"/>
<feColorMatrix in="SourceAlpha" type="matrix" values="0 0 0 0 0 0 0 0 0 0 0 0 0 0 0 0 0 0 127 0"/>
<feOffset dx="3.62255" dy="3.62255"/>
<feColorMatrix type="matrix" values="0 0 0 0 0.52549 0 0 0 0 0.0901961 0 0 0 0 0.0980392 0 0 0 0.1 0"/>
<feBlend mode="normal" in2="BackgroundImageFix" result="effect1_dropShadow"/>
<feBlend mode="normal" in="SourceGraphic" in2="effect1_dropShadow" result="shape"/>
</filter>
<filter id="filter29_d" x="1308.19" y="-1.5365" width="54.3383" height="54.3383" filterUnits="userSpaceOnUse" color-interpolation-filters="sRGB">
<feFlood flood-opacity="0" result="BackgroundImageFix"/>
<feColorMatrix in="SourceAlpha" type="matrix" values="0 0 0 0 0 0 0 0 0 0 0 0 0 0 0 0 0 0 127 0"/>
<feOffset dx="3.62255" dy="3.62255"/>
<feColorMatrix type="matrix" values="0 0 0 0 0.52549 0 0 0 0 0.0901961 0 0 0 0 0.0980392 0 0 0 0.1 0"/>
<feBlend mode="normal" in2="BackgroundImageFix" result="effect1_dropShadow"/>
<feBlend mode="normal" in="SourceGraphic" in2="effect1_dropShadow" result="shape"/>
</filter>
<filter id="filter30_d" x="1301.85" y="32.8778" width="54.3383" height="54.3383" filterUnits="userSpaceOnUse" color-interpolation-filters="sRGB">
<feFlood flood-opacity="0" result="BackgroundImageFix"/>
<feColorMatrix in="SourceAlpha" type="matrix" values="0 0 0 0 0 0 0 0 0 0 0 0 0 0 0 0 0 0 127 0"/>
<feOffset dx="3.62255" dy="3.62255"/>
<feColorMatrix type="matrix" values="0 0 0 0 0.52549 0 0 0 0 0.0901961 0 0 0 0 0.0980392 0 0 0 0.1 0"/>
<feBlend mode="normal" in2="BackgroundImageFix" result="effect1_dropShadow"/>
<feBlend mode="normal" in="SourceGraphic" in2="effect1_dropShadow" result="shape"/>
</filter>
<filter id="filter31_d" x="1415.74" y="-6.73627" width="36.4296" height="36.4296" filterUnits="userSpaceOnUse" color-interpolation-filters="sRGB">
<feFlood flood-opacity="0" result="BackgroundImageFix"/>
<feColorMatrix in="SourceAlpha" type="matrix" values="0 0 0 0 0 0 0 0 0 0 0 0 0 0 0 0 0 0 127 0"/>
<feOffset dx="3.62255" dy="3.62255"/>
<feColorMatrix type="matrix" values="0 0 0 0 0.52549 0 0 0 0 0.0901961 0 0 0 0 0.0980392 0 0 0 0.2 0"/>
<feBlend mode="normal" in2="BackgroundImageFix" result="effect1_dropShadow"/>
<feBlend mode="normal" in="SourceGraphic" in2="effect1_dropShadow" result="shape"/>
</filter>
<filter id="filter32_d" x="1419.61" y="29.959" width="36.1612" height="35.8441" filterUnits="userSpaceOnUse" color-interpolation-filters="sRGB">
<feFlood flood-opacity="0" result="BackgroundImageFix"/>
<feColorMatrix in="SourceAlpha" type="matrix" values="0 0 0 0 0 0 0 0 0 0 0 0 0 0 0 0 0 0 127 0"/>
<feOffset dx="3.62255" dy="3.62255"/>
<feColorMatrix type="matrix" values="0 0 0 0 0.52549 0 0 0 0 0.0901961 0 0 0 0 0.0980392 0 0 0 0.2 0"/>
<feBlend mode="normal" in2="BackgroundImageFix" result="effect1_dropShadow"/>
<feBlend mode="normal" in="SourceGraphic" in2="effect1_dropShadow" result="shape"/>
</filter>
<filter id="filter33_d" x="1386.74" y="13.3766" width="34.6863" height="36.4112" filterUnits="userSpaceOnUse" color-interpolation-filters="sRGB">
<feFlood flood-opacity="0" result="BackgroundImageFix"/>
<feColorMatrix in="SourceAlpha" type="matrix" values="0 0 0 0 0 0 0 0 0 0 0 0 0 0 0 0 0 0 127 0"/>
<feOffset dx="3.62255" dy="3.62255"/>
<feColorMatrix type="matrix" values="0 0 0 0 0.52549 0 0 0 0 0.0901961 0 0 0 0 0.0980392 0 0 0 0.2 0"/>
<feBlend mode="normal" in2="BackgroundImageFix" result="effect1_dropShadow"/>
<feBlend mode="normal" in="SourceGraphic" in2="effect1_dropShadow" result="shape"/>
</filter>
<filter id="filter34_d" x="1383.73" y="69.4252" width="25.2499" height="25.2499" filterUnits="userSpaceOnUse" color-interpolation-filters="sRGB">
<feFlood flood-opacity="0" result="BackgroundImageFix"/>
<feColorMatrix in="SourceAlpha" type="matrix" values="0 0 0 0 0 0 0 0 0 0 0 0 0 0 0 0 0 0 127 0"/>
<feOffset dx="3.62255" dy="3.62255"/>
<feColorMatrix type="matrix" values="0 0 0 0 0.52549 0 0 0 0 0.0901961 0 0 0 0 0.0980392 0 0 0 0.2 0"/>
<feBlend mode="normal" in2="BackgroundImageFix" result="effect1_dropShadow"/>
<feBlend mode="normal" in="SourceGraphic" in2="effect1_dropShadow" result="shape"/>
</filter>
<filter id="filter35_d" x="1392.51" y="92.1126" width="23.8083" height="25.9335" filterUnits="userSpaceOnUse" color-interpolation-filters="sRGB">
<feFlood flood-opacity="0" result="BackgroundImageFix"/>
<feColorMatrix in="SourceAlpha" type="matrix" values="0 0 0 0 0 0 0 0 0 0 0 0 0 0 0 0 0 0 127 0"/>
<feOffset dx="3.62255" dy="3.62255"/>
<feColorMatrix type="matrix" values="0 0 0 0 0.52549 0 0 0 0 0.0901961 0 0 0 0 0.0980392 0 0 0 0.2 0"/>
<feBlend mode="normal" in2="BackgroundImageFix" result="effect1_dropShadow"/>
<feBlend mode="normal" in="SourceGraphic" in2="effect1_dropShadow" result="shape"/>
</filter>
<filter id="filter36_d" x="1369.18" y="95.1547" width="23.9052" height="23.9052" filterUnits="userSpaceOnUse" color-interpolation-filters="sRGB">
<feFlood flood-opacity="0" result="BackgroundImageFix"/>
<feColorMatrix in="SourceAlpha" type="matrix" values="0 0 0 0 0 0 0 0 0 0 0 0 0 0 0 0 0 0 127 0"/>
<feOffset dx="3.62255" dy="3.62255"/>
<feColorMatrix type="matrix" values="0 0 0 0 0.52549 0 0 0 0 0.0901961 0 0 0 0 0.0980392 0 0 0 0.2 0"/>
<feBlend mode="normal" in2="BackgroundImageFix" result="effect1_dropShadow"/>
<feBlend mode="normal" in="SourceGraphic" in2="effect1_dropShadow" result="shape"/>
</filter>
<filter id="filter37_d" x="1363.94" y="52.9715" width="44.9646" height="55.046" filterUnits="userSpaceOnUse" color-interpolation-filters="sRGB">
<feFlood flood-opacity="0" result="BackgroundImageFix"/>
<feColorMatrix in="SourceAlpha" type="matrix" values="0 0 0 0 0 0 0 0 0 0 0 0 0 0 0 0 0 0 127 0"/>
<feOffset dx="0.905638" dy="0.905638"/>
<feColorMatrix type="matrix" values="0 0 0 0 0 0 0 0 0 0 0 0 0 0 0 0 0 0 0.1 0"/>
<feBlend mode="normal" in2="BackgroundImageFix" result="effect1_dropShadow"/>
<feBlend mode="normal" in="SourceGraphic" in2="effect1_dropShadow" result="shape"/>
</filter>
<filter id="filter38_d" x="1207.32" y="-111.27" width="99.1606" height="216.953" filterUnits="userSpaceOnUse" color-interpolation-filters="sRGB">
<feFlood flood-opacity="0" result="BackgroundImageFix"/>
<feColorMatrix in="SourceAlpha" type="matrix" values="0 0 0 0 0 0 0 0 0 0 0 0 0 0 0 0 0 0 127 0"/>
<feOffset dx="4.48863" dy="4.48863"/>
<feColorMatrix type="matrix" values="0 0 0 0 0.52549 0 0 0 0 0.0901961 0 0 0 0 0.0980392 0 0 0 0.1 0"/>
<feBlend mode="normal" in2="BackgroundImageFix" result="effect1_dropShadow"/>
<feBlend mode="normal" in="SourceGraphic" in2="effect1_dropShadow" result="shape"/>
</filter>
<filter id="filter39_d" x="1364.37" y="140.978" width="146.808" height="147.954" filterUnits="userSpaceOnUse" color-interpolation-filters="sRGB">
<feFlood flood-opacity="0" result="BackgroundImageFix"/>
<feColorMatrix in="SourceAlpha" type="matrix" values="0 0 0 0 0 0 0 0 0 0 0 0 0 0 0 0 0 0 127 0"/>
<feOffset dx="4.64698" dy="4.64698"/>
<feColorMatrix type="matrix" values="0 0 0 0 0.52549 0 0 0 0 0.0901961 0 0 0 0 0.0980392 0 0 0 0.1 0"/>
<feBlend mode="normal" in2="BackgroundImageFix" result="effect1_dropShadow"/>
<feBlend mode="normal" in="SourceGraphic" in2="effect1_dropShadow" result="shape"/>
</filter>
<filter id="filter40_d" x="1317.09" y="159.695" width="34.6863" height="36.4112" filterUnits="userSpaceOnUse" color-interpolation-filters="sRGB">
<feFlood flood-opacity="0" result="BackgroundImageFix"/>
<feColorMatrix in="SourceAlpha" type="matrix" values="0 0 0 0 0 0 0 0 0 0 0 0 0 0 0 0 0 0 127 0"/>
<feOffset dx="3.62255" dy="3.62255"/>
<feColorMatrix type="matrix" values="0 0 0 0 0.52549 0 0 0 0 0.0901961 0 0 0 0 0.0980392 0 0 0 0.2 0"/>
<feBlend mode="normal" in2="BackgroundImageFix" result="effect1_dropShadow"/>
<feBlend mode="normal" in="SourceGraphic" in2="effect1_dropShadow" result="shape"/>
</filter>
<clipPath id="clip0">
<rect width="1473.31" height="768" fill="white" transform="matrix(-1 0 0 1 1473.61 0)"/>
</clipPath>
</defs>
</svg>
