<svg width="34" height="23" viewBox="0 0 34 23" fill="none" xmlns="http://www.w3.org/2000/svg">
<path fill-rule="evenodd" clip-rule="evenodd" d="M26.8263 22.8H27.1999C27.255 22.8 27.3084 22.7925 27.3591 22.7786C31.0742 22.4932 33.9999 19.3883 33.9999 15.6C33.9999 11.6236 30.7763 8.40001 26.7999 8.40001C26.7265 8.40001 26.6533 8.40111 26.5805 8.40329C26.2733 3.71092 22.37 0 17.6 0C12.7842 0 8.8519 3.78231 8.61159 8.53833C8.15513 8.4476 7.68312 8.40001 7.2 8.40001C3.22355 8.40001 0 11.6236 0 15.6C0 19.3882 2.92562 22.4932 6.64068 22.7786C6.69139 22.7925 6.74478 22.8 6.79991 22.8H7.17351L7.2 22.8L7.22649 22.8H26.7734C26.7822 22.8 26.791 22.8 26.7999 22.8C26.8087 22.8 26.8175 22.8 26.8263 22.8Z" fill="black"/>
</svg>
