<svg width="48" height="49" viewBox="0 0 48 49" fill="none" xmlns="http://www.w3.org/2000/svg">
<path d="M5.18813 33.7494C5.00647 33.352 5.29688 32.8999 5.73381 32.8999H42.2658C42.7027 32.8999 42.9931 33.352 42.8115 33.7494L40.6172 38.5494C40.5196 38.7629 40.3063 38.8999 40.0715 38.8999H7.9281C7.69328 38.8999 7.48004 38.7629 7.38241 38.5494L5.18813 33.7494Z" fill="black"/>
<path fill-rule="evenodd" clip-rule="evenodd" d="M39.5964 29.2999C39.6468 29.9608 39.1047 30.4999 38.442 30.4999H9.55708C8.89434 30.4999 8.35226 29.9608 8.40267 29.2999C9.01708 21.245 15.7653 14.8999 23.9995 14.8999C32.2338 14.8999 38.982 21.245 39.5964 29.2999Z" fill="black"/>
<circle cx="23.9996" cy="10.1" r="2.4" fill="black"/>
</svg>
