<svg width="41" height="40" viewBox="0 0 41 40" fill="none" xmlns="http://www.w3.org/2000/svg">
<rect width="7.14286" height="3" rx="0.5" transform="matrix(-0.707107 -0.707107 -0.707107 0.707107 15.1924 10.4071)" fill="black"/>
<rect width="6.93296" height="3" rx="0.5" transform="matrix(-0.707107 -0.707107 -0.707107 0.707107 36.1309 31.3453)" fill="black"/>
<circle cx="20.5" cy="20" r="18.5" stroke="black" stroke-width="3"/>
<path d="M22.7957 14.2013C22.7957 14.9427 22.2857 16.4255 20.5009 16.4255C18.716 16.4255 18.2061 14.9427 18.2061 14.2013C18.2061 12.4269 19.481 10 20.5009 10C21.5208 10 22.7957 12.4269 22.7957 14.2013Z" fill="black"/>
<path d="M19.2222 18.9206C19.6988 19.4885 20.2613 20.9522 18.894 22.0995C17.5267 23.2467 16.1829 22.4387 15.7064 21.8707C14.5659 20.5115 13.9825 17.8329 14.7638 17.1773C15.5451 16.5217 18.0817 17.5613 19.2222 18.9206Z" fill="black"/>
<path d="M19.2222 25.3461C19.6988 25.914 20.2613 27.3777 18.894 28.525C17.5267 29.6723 16.1829 28.8642 15.7064 28.2962C14.5659 26.937 13.9825 24.2584 14.7638 23.6028C15.5451 22.9472 18.0817 23.9869 19.2222 25.3461Z" fill="black"/>
<path d="M25.2948 21.8704C24.8183 22.4384 23.4745 23.2465 22.1072 22.0992C20.7399 20.9519 21.3024 19.4882 21.779 18.9203C22.9195 17.561 25.4561 16.5214 26.2374 17.177C27.0187 17.8326 26.4354 20.5112 25.2948 21.8704Z" fill="black"/>
<path d="M25.2948 28.2961C24.8183 28.864 23.4745 29.6721 22.1072 28.5248C20.7399 27.3776 21.3024 25.9139 21.779 25.3459C22.9195 23.9867 25.4561 22.9471 26.2374 23.6026C27.0187 24.2582 26.4354 26.9369 25.2948 28.2961Z" fill="black"/>
</svg>
