<svg width="9" height="16" viewBox="0 0 9 16" fill="none" xmlns="http://www.w3.org/2000/svg">
<path d="M6.07653 2.92745C6.07653 3.34303 5.79069 4.17419 4.79022 4.17419C3.78975 4.17419 3.50391 3.34303 3.50391 2.92745C3.50391 1.93288 4.21853 0.57251 4.79022 0.57251C5.36192 0.57251 6.07653 1.93288 6.07653 2.92745Z" fill="#6E798C"/>
<path d="M4.07432 5.5727C4.34145 5.89105 4.65673 6.7115 3.89033 7.35458C3.12393 7.99767 2.3707 7.54471 2.10357 7.22636C1.46427 6.46447 1.13727 4.96302 1.57522 4.59554C2.01316 4.22806 3.43502 4.81081 4.07432 5.5727Z" fill="#6E798C"/>
<path d="M4.07432 9.17451C4.34145 9.49286 4.65673 10.3133 3.89033 10.9564C3.12393 11.5995 2.3707 11.1465 2.10357 10.8282C1.46427 10.0663 1.13727 8.56482 1.57522 8.19734C2.01316 7.82986 3.43502 8.41262 4.07432 9.17451Z" fill="#6E798C"/>
<path d="M4.07432 12.7762C4.34145 13.0945 4.65673 13.915 3.89033 14.5581C3.12393 15.2012 2.3707 14.7482 2.10357 14.4298C1.46427 13.668 1.13727 12.1665 1.57522 11.799C2.01316 11.4315 3.43502 12.0143 4.07432 12.7762Z" fill="#6E798C"/>
<path d="M7.4785 7.2262C7.21137 7.54455 6.45814 7.99752 5.69174 7.35443C4.92534 6.71134 5.24063 5.8909 5.50776 5.57255C6.14706 4.81066 7.56891 4.2279 8.00686 4.59538C8.4448 4.96286 8.1178 6.46431 7.4785 7.2262Z" fill="#6E798C"/>
<path d="M7.4785 10.828C7.21137 11.1464 6.45814 11.5993 5.69174 10.9562C4.92534 10.3131 5.24063 9.4927 5.50776 9.17435C6.14706 8.41246 7.56891 7.82971 8.00686 8.19719C8.4448 8.56467 8.1178 10.0661 7.4785 10.828Z" fill="#6E798C"/>
<path d="M7.4785 14.4297C7.21137 14.748 6.45814 15.201 5.69174 14.5579C4.92534 13.9148 5.24063 13.0944 5.50776 12.776C6.14706 12.0141 7.56891 11.4314 8.00686 11.7989C8.4448 12.1664 8.1178 13.6678 7.4785 14.4297Z" fill="#6E798C"/>
</svg>
