<svg width="11" height="15" viewBox="0 0 11 15" fill="none" xmlns="http://www.w3.org/2000/svg">
<path d="M3.06743 3.05976C2.95345 2.88879 3.07601 2.65979 3.28148 2.65979H8.83741C8.92342 2.65979 9.00375 2.70278 9.05146 2.77435L9.7375 3.8034C9.85147 3.97437 9.72892 4.20337 9.52344 4.20337H3.96752C3.8815 4.20337 3.80117 4.16038 3.75346 4.08881L3.06743 3.05976Z" fill="#6E798C"/>
<path d="M2.80078 0.601806C2.80078 0.317642 3.03114 0.0872803 3.31531 0.0872803H8.46056C8.74473 0.0872803 8.97509 0.317641 8.97509 0.601806V1.37359C8.97509 1.51568 8.85991 1.63086 8.71783 1.63086H3.05804C2.91596 1.63086 2.80078 1.51568 2.80078 1.37359V0.601806Z" fill="#6E798C"/>
<rect x="3.83008" y="5.23254" width="6.17431" height="9.26146" rx="0.514526" fill="#6E798C"/>
<rect x="0.742188" y="5.23254" width="2.0581" height="9.26146" rx="0.514526" fill="#6E798C"/>
<path d="M2.31959 4.20337H1.22289C1.01741 4.20337 0.894855 3.97437 1.00883 3.8034L1.55718 2.98087C1.65901 2.82813 1.88346 2.82813 1.98529 2.98087L2.53365 3.8034C2.64762 3.97437 2.52506 4.20337 2.31959 4.20337Z" fill="#6E798C"/>
</svg>
