<svg width="144" height="49" viewBox="0 0 144 49" fill="none" xmlns="http://www.w3.org/2000/svg">
<path d="M43.8662 21.2196C43.4906 21.2196 43.3027 21.1032 43.3027 20.8703V20.8165C43.3027 20.709 43.4637 20.5299 43.7857 20.279C44.1256 20.0103 44.2955 19.6968 44.2955 19.3385V4.02056C44.2955 3.69808 44.1256 3.40247 43.7857 3.13374C43.4637 2.865 43.3027 2.66793 43.3027 2.54252V2.4619C43.3027 2.24691 43.4906 2.13942 43.8662 2.13942H48.857C50.0198 2.13942 51.0931 2.25587 52.0769 2.48877C53.0608 2.72168 53.9462 3.07999 54.7333 3.56371C55.5383 4.04744 56.1644 4.70136 56.6116 5.52548C57.0767 6.33168 57.3092 7.27226 57.3092 8.3472C57.3092 10.3896 56.6205 11.9662 55.2431 13.0769C53.8657 14.1877 51.9427 14.7431 49.4742 14.7431H46.7104V19.3385C46.7104 19.6968 46.8804 20.0103 47.2203 20.279C47.578 20.5299 47.7569 20.709 47.7569 20.8165V20.8703C47.7569 21.1032 47.578 21.2196 47.2203 21.2196H43.8662ZM47.6764 13.6413H49.4742C51.1199 13.6413 52.4168 13.2292 53.3649 12.4051C54.3308 11.5631 54.8138 10.4075 54.8138 8.93841C54.8138 7.0931 54.2324 5.68672 53.0697 4.71927C51.9249 3.73391 50.5206 3.24123 48.857 3.24123H47.4081C46.943 3.24123 46.7104 3.52788 46.7104 4.10118V12.6738C46.7104 13.3188 47.0324 13.6413 47.6764 13.6413Z" fill="white"/>
<path d="M69.3265 17.4304C69.4517 17.2334 69.6217 17.1617 69.8363 17.2155C70.051 17.2513 70.1404 17.3946 70.1047 17.6454C69.9079 18.595 69.3355 19.4728 68.3874 20.279C67.4393 21.0852 66.1961 21.4883 64.6577 21.4883C62.8868 21.4883 61.402 20.8613 60.2035 19.6072C59.0229 18.3531 58.4326 16.7049 58.4326 14.6625C58.4326 12.7813 59.0408 11.2137 60.2572 9.95961C61.4736 8.6876 62.9762 8.05159 64.765 8.05159C66.2855 8.05159 67.493 8.46365 68.3874 9.28777C69.2997 10.094 69.7558 11.0077 69.7558 12.0289C69.7558 12.7992 69.3355 13.3278 68.4947 13.6144L61.0622 16.0599C61.3663 17.2244 61.9029 18.1381 62.6721 18.801C63.4592 19.446 64.3983 19.7684 65.4895 19.7684C67.332 19.7684 68.611 18.9891 69.3265 17.4304ZM64.3625 8.91154C63.2893 8.91154 62.4217 9.37735 61.7598 10.309C61.0979 11.2406 60.767 12.4051 60.767 13.8025C60.767 14.34 60.8028 14.7968 60.8743 15.1731L66.858 13.0232C67.2873 12.844 67.5019 12.5305 67.5019 12.0826C67.5019 11.4018 67.1889 10.7031 66.5628 9.98648C65.9546 9.26985 65.2212 8.91154 64.3625 8.91154Z" fill="white"/>
<path d="M78.4795 8.05159C79.2487 8.05159 79.8479 8.24866 80.2773 8.64281C80.7245 9.03695 80.9481 9.52963 80.9481 10.1208C80.9481 10.9629 80.5903 11.3839 79.8748 11.3839C79.5707 11.3839 79.3292 11.2854 79.1503 11.0883C78.9714 10.8912 78.8462 10.6762 78.7746 10.4433C78.721 10.2104 78.5868 9.99544 78.3722 9.79837C78.1575 9.60129 77.8623 9.50276 77.4867 9.50276C76.7712 9.50276 76.2077 9.86107 75.7963 10.5777C75.4027 11.2764 75.2059 12.1543 75.2059 13.2113V19.3385C75.2059 19.6968 75.3938 20.0013 75.7694 20.2522C76.1451 20.4851 76.3329 20.6642 76.3329 20.7896V20.8971C76.3329 21.1121 76.154 21.2196 75.7963 21.2196H72.4691C72.1113 21.2196 71.9324 21.1121 71.9324 20.8971V20.7896C71.9324 20.6642 72.0934 20.4851 72.4154 20.2522C72.7553 20.0013 72.9252 19.6968 72.9252 19.3385V11.1689C72.9252 10.7927 72.7463 10.4702 72.3886 10.2015C72.0308 9.93273 71.8519 9.73566 71.8519 9.61025V9.55651C71.8519 9.37735 71.9861 9.21611 72.2544 9.07278L74.2936 8.15908C74.7587 7.94409 74.9913 8.0695 74.9913 8.53531V10.6852C75.5995 8.92946 76.7622 8.05159 78.4795 8.05159Z" fill="white"/>
<path d="M87.1987 21.4615C85.553 21.4615 84.2293 21.13 83.2276 20.4672C82.2437 19.8043 81.7518 19.1145 81.7518 18.3979C81.7518 17.735 82.1006 17.4036 82.7982 17.4036C83.1023 17.4036 83.3438 17.52 83.5227 17.7529C83.7195 17.9679 83.8894 18.2366 84.0325 18.5591C84.1756 18.8816 84.3456 19.2041 84.5423 19.5266C84.757 19.8491 85.0879 20.1268 85.5351 20.3597C85.9823 20.5746 86.5369 20.6821 87.1987 20.6821C88.0931 20.6821 88.8266 20.4761 89.399 20.064C89.9714 19.6341 90.2576 19.0518 90.2576 18.3173C90.2576 17.6006 89.9714 17.0453 89.399 16.6511C88.8445 16.257 88.1647 15.9793 87.3597 15.818C86.5548 15.6389 85.7498 15.4418 84.9448 15.2268C84.1399 15.0118 83.4512 14.6177 82.8787 14.0444C82.3242 13.4711 82.0469 12.7007 82.0469 11.7333C82.0469 10.6941 82.521 9.82524 83.469 9.12653C84.4171 8.4099 85.6246 8.05159 87.0914 8.05159C88.6477 8.05159 89.9088 8.38303 90.8748 9.04591C91.8407 9.70879 92.3237 10.4344 92.3237 11.2227C92.3237 11.4914 92.2253 11.7153 92.0286 11.8945C91.8497 12.0737 91.6261 12.1632 91.3578 12.1632C91.0358 12.1632 90.7585 11.993 90.5259 11.6526C90.2934 11.3122 90.0966 10.936 89.9356 10.524C89.7925 10.1119 89.4884 9.73566 89.0233 9.39526C88.5582 9.05487 87.95 8.88467 87.1987 8.88467C86.4117 8.88467 85.7498 9.10861 85.2131 9.55651C84.6944 10.0044 84.435 10.5598 84.435 11.2227C84.435 11.9214 84.7123 12.4678 85.2668 12.8619C85.8392 13.2382 86.5279 13.5159 87.3329 13.695C88.1379 13.8742 88.9339 14.0713 89.721 14.2862C90.5259 14.5012 91.2057 14.9043 91.7602 15.4956C92.3327 16.0689 92.6189 16.8482 92.6189 17.8335C92.6189 18.8727 92.118 19.7416 91.1163 20.4403C90.1324 21.1211 88.8266 21.4615 87.1987 21.4615Z" fill="white"/>
<path d="M96.6651 5.76734C96.1106 5.76734 95.6723 5.61506 95.3503 5.31049C95.0283 5.00592 94.8673 4.60282 94.8673 4.10118C94.8673 3.59954 95.0283 3.19644 95.3503 2.89187C95.6902 2.56939 96.1285 2.40815 96.6651 2.40815C97.1839 2.40815 97.6042 2.56939 97.9262 2.89187C98.2482 3.19644 98.4092 3.59954 98.4092 4.10118C98.4092 4.60282 98.2482 5.00592 97.9262 5.31049C97.6042 5.61506 97.1839 5.76734 96.6651 5.76734ZM95.1088 21.2196C94.7689 21.2196 94.599 21.1032 94.599 20.8703V20.7628C94.599 20.6373 94.6795 20.5209 94.8405 20.4134C95.0015 20.288 95.1625 20.1447 95.3235 19.9834C95.4845 19.8043 95.565 19.5803 95.565 19.3116V11.3033C95.565 10.8912 95.404 10.5329 95.082 10.2283C94.76 9.92378 94.599 9.7267 94.599 9.63713V9.58338C94.599 9.45797 94.7332 9.3236 95.0015 9.18028L97.0676 8.15908C97.3538 8.05159 97.5595 8.03367 97.6847 8.10533C97.8278 8.177 97.8994 8.32032 97.8994 8.53531V19.3116C97.8994 19.5266 97.9531 19.7147 98.0604 19.8759C98.1677 20.0193 98.2929 20.1268 98.436 20.1984C98.5791 20.2701 98.7044 20.3597 98.8117 20.4672C98.919 20.5567 98.9727 20.6553 98.9727 20.7628V20.8703C98.9727 21.1032 98.7849 21.2196 98.4092 21.2196H95.1088Z" fill="white"/>
<path d="M101.499 21.2196C101.159 21.2196 100.99 21.1032 100.99 20.8703V20.7896C100.99 20.6463 101.142 20.4582 101.446 20.2253C101.768 19.9745 101.929 19.6789 101.929 19.3385V4.23555C101.929 3.93098 101.848 3.68016 101.687 3.48309C101.544 3.2681 101.392 3.0979 101.231 2.9725C101.07 2.84708 100.99 2.73063 100.99 2.62314V2.56939C100.99 2.42607 101.115 2.28274 101.365 2.13942L103.458 1.11822C103.726 1.01073 103.932 1.00177 104.075 1.09135C104.218 1.16301 104.29 1.29738 104.29 1.49445V19.3385C104.29 19.6789 104.46 19.9745 104.8 20.2253C105.157 20.4582 105.336 20.6463 105.336 20.7896V20.8703C105.336 21.1032 105.157 21.2196 104.8 21.2196H101.499Z" fill="white"/>
<path d="M57.2287 46.212C57.4255 46.4986 57.667 46.7405 57.9532 46.9376C58.2573 47.1167 58.4898 47.26 58.6508 47.3675C58.8297 47.4571 58.9191 47.5736 58.9191 47.7169V47.7706C58.9191 47.9856 58.7403 48.0931 58.3825 48.0931H54.6528C54.295 48.0931 54.1162 47.9856 54.1162 47.7706V47.7169C54.1162 47.5915 54.2056 47.4571 54.3845 47.3138C54.5813 47.1705 54.7154 47.0451 54.787 46.9376C54.8585 46.8121 54.8138 46.5703 54.6528 46.212L50.628 40.6492C50.4849 40.6671 50.2613 40.676 49.9572 40.676L46.7373 40.7298V46.212C46.7373 46.4807 46.8178 46.7047 46.9788 46.8838C47.1576 47.063 47.3365 47.2152 47.5154 47.3407C47.6943 47.4661 47.7837 47.5915 47.7837 47.7169V47.7706C47.7837 47.9856 47.6049 48.0931 47.2471 48.0931H43.8662C43.5084 48.0931 43.3296 47.9856 43.3296 47.7706V47.7169C43.3296 47.5915 43.4906 47.4034 43.8125 47.1525C44.1345 46.8838 44.2955 46.5703 44.2955 46.212V30.8941C44.2955 30.5358 44.1345 30.2312 43.8125 29.9804C43.4906 29.7116 43.3296 29.5146 43.3296 29.3892V29.3354C43.3296 29.1204 43.5084 29.0129 43.8662 29.0129H49.3668C51.7817 29.0129 53.7316 29.5146 55.2163 30.5178C56.701 31.5032 57.4523 32.9723 57.4702 34.9251C57.4702 36.1792 57.0767 37.281 56.2896 38.2305C55.5025 39.1801 54.3845 39.8609 52.9355 40.2729L57.2287 46.212ZM49.7157 39.6011C51.2898 39.6011 52.5599 39.2159 53.5258 38.4455C54.4918 37.6752 54.9748 36.6181 54.9748 35.2745C54.9748 33.5904 54.4203 32.3094 53.3112 31.4315C52.22 30.5537 50.8605 30.1147 49.2327 30.1147H47.4349C46.9698 30.1147 46.7373 30.4193 46.7373 31.0284V38.338C46.7373 39.1801 47.1129 39.6011 47.8642 39.6011H49.7157Z" fill="white"/>
<path d="M66.4833 48.3619C64.4083 48.3619 62.7179 47.69 61.412 46.3463C60.1241 44.9847 59.4801 43.3544 59.4801 41.4554C59.4801 39.5921 60.1062 38.0424 61.3584 36.8062C62.6105 35.5521 64.1579 34.9251 66.0004 34.9251C67.986 34.9251 69.6138 35.588 70.8838 36.9137C72.1718 38.2216 72.8158 39.834 72.8158 41.751C72.8158 43.6321 72.2255 45.2087 71.0448 46.4807C69.8642 47.7348 68.3437 48.3619 66.4833 48.3619ZM66.8053 47.475C67.8607 47.475 68.7283 47.0271 69.4081 46.1314C70.1057 45.2356 70.4545 44.0442 70.4545 42.5572C70.4545 40.6581 70.0073 39.0636 69.1129 37.7737C68.2185 36.4658 67.0915 35.8119 65.732 35.8119C64.5872 35.8119 63.657 36.2598 62.9415 37.1556C62.226 38.0335 61.8682 39.2159 61.8682 40.7029C61.8682 42.4945 62.3333 44.071 63.2635 45.4326C64.1937 46.7942 65.3743 47.475 66.8053 47.475Z" fill="white"/>
<path d="M96.3056 46.1851C96.3235 46.5434 96.4934 46.8569 96.8154 47.1257C97.1374 47.3765 97.2984 47.5646 97.2984 47.69V47.7975C97.2984 48.0125 97.1195 48.12 96.7617 48.12H93.5419C93.1841 48.12 93.0052 48.0125 93.0052 47.7975V47.69C93.0052 47.5646 93.1662 47.3765 93.4882 47.1257C93.8102 46.8749 93.9622 46.5703 93.9443 46.212L93.676 40.9716C93.5866 39.2159 93.2557 37.9439 92.6832 37.1556C92.1287 36.3673 91.3416 35.9732 90.322 35.9732C89.4633 35.9732 88.721 36.3136 88.0949 36.9944C87.4867 37.6752 87.1647 38.5172 87.1289 39.5205C87.2005 39.8788 87.2363 40.3177 87.2363 40.8373V46.212C87.2363 46.5703 87.3883 46.8749 87.6924 47.1257C88.0144 47.3765 88.1754 47.5646 88.1754 47.69V47.7975C88.1754 48.0125 88.0055 48.12 87.6656 48.12H84.4994C84.1237 48.12 83.9359 48.0125 83.9359 47.7975V47.69C83.9359 47.5646 84.0879 47.3765 84.392 47.1257C84.714 46.8749 84.875 46.5703 84.875 46.212V40.7029C84.875 39.2517 84.553 38.1051 83.9091 37.2631C83.283 36.4031 82.4959 35.9732 81.5478 35.9732C80.6176 35.9732 79.8395 36.3225 79.2134 37.0212C78.5873 37.7199 78.2564 38.5799 78.2206 39.6011L78.2474 46.212C78.2474 46.5703 78.4174 46.8749 78.7572 47.1257C79.115 47.3765 79.2939 47.5646 79.2939 47.69V47.7975C79.2939 48.0125 79.115 48.12 78.7572 48.12H75.4032C75.0454 48.12 74.8666 48.0125 74.8666 47.7975V47.69C74.8666 47.5646 75.0365 47.3765 75.3764 47.1257C75.7163 46.8749 75.8862 46.5703 75.8862 46.212V38.0693C75.8862 37.7647 75.7967 37.5139 75.6179 37.3168C75.439 37.1198 75.2601 36.9675 75.0812 36.86C74.9023 36.7346 74.8129 36.6092 74.8129 36.4838V36.4031C74.8129 36.2419 74.9471 36.1075 75.2154 36L77.3083 35.0326C77.5587 34.9072 77.7466 34.8893 77.8718 34.9788C78.0149 35.0684 78.0864 35.2207 78.0864 35.4357V37.3437C78.48 36.6092 79.0256 36.0269 79.7232 35.5969C80.4387 35.149 81.2169 34.9251 82.0576 34.9251C83.0594 34.9251 83.9627 35.1849 84.7677 35.7044C85.5905 36.2061 86.2166 36.9317 86.646 37.8812C86.9858 36.9675 87.5404 36.2509 88.3096 35.7313C89.0787 35.1938 89.9553 34.9251 90.9391 34.9251C92.3881 34.9251 93.5597 35.4178 94.4542 36.4031C95.3665 37.3706 95.8852 38.9113 96.0104 41.0254L96.3056 46.1851Z" fill="white"/>
<path d="M109.947 45.9432C109.983 46.3195 110.081 46.6151 110.242 46.8301C110.403 47.0271 110.573 47.1525 110.752 47.2063C110.931 47.2421 111.092 47.2959 111.235 47.3675C111.378 47.4392 111.45 47.5467 111.45 47.69C111.45 48.0662 110.877 48.2544 109.732 48.2544C109.088 48.2544 108.614 48.1379 108.31 47.905C108.006 47.6542 107.827 47.1794 107.773 46.4807C107.094 47.7348 105.806 48.3619 103.91 48.3619C102.407 48.3619 101.2 48.0035 100.287 47.2869C99.375 46.5703 98.9188 45.576 98.9188 44.304C98.9009 43.0499 99.3481 42.0735 100.26 41.3747C101.191 40.676 102.38 40.3267 103.829 40.3267C105.26 40.3267 106.36 40.685 107.129 41.4016L107.076 40.676C106.915 39.0278 106.584 37.8006 106.083 36.9944C105.582 36.1882 104.813 35.7851 103.775 35.7851C103.149 35.7851 102.631 35.9463 102.219 36.2688C101.808 36.5913 101.522 36.9406 101.361 37.3168C101.217 37.6931 101.039 38.0424 100.824 38.3649C100.609 38.6874 100.359 38.8486 100.073 38.8486C99.7506 38.8486 99.4912 38.7591 99.2945 38.5799C99.1156 38.4007 99.0261 38.1589 99.0261 37.8543C99.0261 37.1019 99.4644 36.43 100.341 35.8388C101.235 35.2297 102.38 34.9251 103.775 34.9251C105.403 34.9251 106.7 35.4267 107.666 36.43C108.65 37.4154 109.231 38.8038 109.41 40.5954L109.947 45.9432ZM104.5 47.5019C105.376 47.5019 106.092 47.2242 106.647 46.6688C107.201 46.0955 107.46 45.3879 107.425 44.5458L107.317 43.3365C107.174 42.6915 106.834 42.172 106.298 41.7778C105.779 41.3837 105.135 41.1866 104.366 41.1866C103.453 41.1866 102.711 41.4464 102.139 41.966C101.566 42.4855 101.28 43.1573 101.28 43.9815C101.28 44.9847 101.575 45.8268 102.166 46.5076C102.774 47.1705 103.552 47.5019 104.5 47.5019Z" fill="white"/>
<path d="M119.173 34.9251C119.943 34.9251 120.542 35.1222 120.971 35.5163C121.418 35.9105 121.642 36.4031 121.642 36.9944C121.642 37.8364 121.284 38.2574 120.569 38.2574C120.265 38.2574 120.023 38.1589 119.844 37.9618C119.665 37.7647 119.54 37.5497 119.469 37.3168C119.415 37.0839 119.281 36.8689 119.066 36.6719C118.851 36.4748 118.556 36.3763 118.181 36.3763C117.465 36.3763 116.902 36.7346 116.49 37.4512C116.097 38.1499 115.9 39.0278 115.9 40.0848V46.212C115.9 46.5703 116.088 46.8749 116.463 47.1257C116.839 47.3586 117.027 47.5377 117.027 47.6631V47.7706C117.027 47.9856 116.848 48.0931 116.49 48.0931H113.163C112.805 48.0931 112.626 47.9856 112.626 47.7706V47.6631C112.626 47.5377 112.787 47.3586 113.109 47.1257C113.449 46.8749 113.619 46.5703 113.619 46.212V38.0424C113.619 37.6662 113.44 37.3437 113.082 37.075C112.725 36.8062 112.546 36.6092 112.546 36.4838V36.43C112.546 36.2509 112.68 36.0896 112.948 35.9463L114.988 35.0326C115.453 34.8176 115.685 34.943 115.685 35.4088V37.5587C116.293 35.803 117.456 34.9251 119.173 34.9251Z" fill="white"/>
<path d="M124.939 32.6408C124.384 32.6408 123.946 32.4886 123.624 32.184C123.302 31.8794 123.141 31.4763 123.141 30.9747C123.141 30.4731 123.302 30.0699 123.624 29.7654C123.964 29.4429 124.402 29.2817 124.939 29.2817C125.457 29.2817 125.878 29.4429 126.2 29.7654C126.522 30.0699 126.683 30.4731 126.683 30.9747C126.683 31.4763 126.522 31.8794 126.2 32.184C125.878 32.4886 125.457 32.6408 124.939 32.6408ZM123.382 48.0931C123.042 48.0931 122.873 47.9767 122.873 47.7438V47.6363C122.873 47.5109 122.953 47.3944 123.114 47.2869C123.275 47.1615 123.436 47.0182 123.597 46.8569C123.758 46.6778 123.838 46.4538 123.838 46.1851V38.1768C123.838 37.7647 123.678 37.4064 123.356 37.1019C123.034 36.7973 122.873 36.6002 122.873 36.5106V36.4569C122.873 36.3315 123.007 36.1971 123.275 36.0538L125.341 35.0326C125.627 34.9251 125.833 34.9072 125.958 34.9788C126.101 35.0505 126.173 35.1938 126.173 35.4088V46.1851C126.173 46.4001 126.227 46.5882 126.334 46.7494C126.441 46.8928 126.566 47.0003 126.71 47.0719C126.853 47.1436 126.978 47.2332 127.085 47.3407C127.193 47.4302 127.246 47.5288 127.246 47.6363V47.7438C127.246 47.9767 127.058 48.0931 126.683 48.0931H123.382Z" fill="white"/>
<path d="M142.035 46.1582C142.053 46.4449 142.143 46.6778 142.304 46.8569C142.465 47.0361 142.617 47.1884 142.76 47.3138C142.921 47.4213 143.001 47.5377 143.001 47.6631V47.7706C143.001 48.0035 142.813 48.12 142.438 48.12H139.245C138.869 48.12 138.681 48.0035 138.681 47.7706V47.6631C138.681 47.5377 138.842 47.3496 139.164 47.0988C139.504 46.848 139.665 46.5434 139.647 46.1851L139.379 40.8104C139.307 39.2159 138.976 38.0156 138.386 37.2093C137.814 36.3852 137.044 35.9732 136.078 35.9732C135.095 35.9732 134.29 36.3225 133.664 37.0212C133.037 37.7199 132.724 38.6068 132.724 39.6817V46.212C132.724 46.427 132.778 46.6151 132.885 46.7763C133.011 46.9196 133.136 47.0271 133.261 47.0988C133.386 47.1705 133.503 47.26 133.61 47.3675C133.735 47.4571 133.798 47.5556 133.798 47.6631V47.7706C133.798 48.0035 133.61 48.12 133.234 48.12H129.88C129.522 48.12 129.344 48.0035 129.344 47.7706V47.6631C129.344 47.5198 129.513 47.3317 129.853 47.0988C130.211 46.8659 130.39 46.5703 130.39 46.212V38.0693C130.39 37.7289 130.292 37.4691 130.095 37.29C129.916 37.0929 129.728 36.9406 129.531 36.8331C129.352 36.7256 129.263 36.6092 129.263 36.4838V36.4031C129.263 36.2419 129.406 36.1075 129.692 36L131.705 35.0326C131.955 34.9072 132.143 34.8893 132.268 34.9788C132.393 35.0684 132.456 35.2207 132.456 35.4357V37.3975C132.85 36.645 133.413 36.0448 134.147 35.5969C134.898 35.149 135.73 34.9251 136.642 34.9251C138.037 34.9251 139.2 35.4178 140.13 36.4031C141.078 37.3885 141.615 38.8755 141.74 40.8641L142.035 46.1582Z" fill="white"/>
<path d="M122.524 19.9641C122.748 19.9641 122.861 20.0488 122.861 20.2183V20.2977C122.861 20.4884 122.706 20.6843 122.395 20.8855C122.085 21.0761 121.737 21.1715 121.352 21.1715C120.902 21.1715 120.511 21.0867 120.18 20.9173C119.848 20.7372 119.516 20.4619 119.184 20.0912C118.221 20.8114 117.081 21.1715 115.765 21.1715C114.491 21.1715 113.506 20.9226 112.811 20.4248C112.126 19.927 111.783 19.1804 111.783 18.1848C111.783 16.9563 112.677 15.876 114.464 14.944C114.004 14.4357 113.656 13.9803 113.421 13.5778C113.185 13.1648 113.068 12.7146 113.068 12.2275C113.068 11.4331 113.362 10.7977 113.951 10.3211C114.539 9.83392 115.31 9.59033 116.262 9.59033C117.14 9.59033 117.852 9.80744 118.398 10.2417C118.944 10.6759 119.216 11.2478 119.216 11.9574C119.216 13.1012 118.43 14.0332 116.856 14.7534L119.65 17.7718C120.099 16.7021 120.324 15.5053 120.324 14.1815C120.324 13.9908 120.442 13.8532 120.677 13.7684C120.913 13.6837 121.143 13.6837 121.368 13.7684C121.603 13.8426 121.721 13.9855 121.721 14.1974C121.721 15.966 121.314 17.4647 120.501 18.6932L120.822 19.0268C121.4 19.6517 121.833 19.9641 122.122 19.9641H122.524ZM116.07 10.2099C115.738 10.2099 115.47 10.3529 115.267 10.6388C115.074 10.9142 114.978 11.2849 114.978 11.7509C114.978 12.1745 115.074 12.5558 115.267 12.8947C115.47 13.223 115.781 13.6043 116.198 14.0385C116.99 13.5195 117.386 12.8153 117.386 11.9256C117.386 11.4067 117.263 10.9936 117.017 10.6865C116.782 10.3688 116.466 10.2099 116.07 10.2099ZM116.038 20.5996C117.012 20.5996 117.863 20.213 118.59 19.4399L115.106 15.643C114.165 16.3102 113.694 17.2158 113.694 18.3596C113.694 19.0268 113.897 19.5669 114.304 19.98C114.71 20.393 115.288 20.5996 116.038 20.5996Z" fill="white"/>
<path fill-rule="evenodd" clip-rule="evenodd" d="M23.8363 24.4353C23.9122 24.4196 23.9423 24.3233 23.9028 24.2565V24.2565C23.8637 24.1904 23.766 24.1689 23.7152 24.2264C23.6936 24.2509 23.6715 24.2759 23.6488 24.3016V24.3016C23.589 24.3693 23.6494 24.474 23.7378 24.4557C23.7708 24.4489 23.8036 24.4421 23.8363 24.4353ZM25.2734 30.9534C25.778 30.7115 26.3751 30.7666 26.8258 31.0983L30.2632 33.6282C30.7017 33.9509 30.6184 34.6291 30.1149 34.8362L26.1053 36.4852C25.7376 36.6364 25.5702 37.0638 25.7374 37.4245L27.6032 41.4489C27.8546 41.9913 27.3524 42.5782 26.7776 42.4137L22.0171 41.0511C21.6282 40.9398 21.2264 41.1813 21.1421 41.5769L20.0654 46.6336C19.9511 47.1704 19.2907 47.3715 18.8966 46.9895L15.8379 44.0244C15.527 43.723 15.0196 43.7744 14.7754 44.132L12.9023 46.875C12.6001 47.3176 11.9327 47.2688 11.6981 46.787L9.41737 42.1039C9.28131 41.8245 8.97694 41.6686 8.67071 41.7216L3.92078 42.5431C3.30516 42.6496 2.87033 41.9558 3.23455 41.4482L6.09116 37.4668C6.35085 37.1049 6.20973 36.5956 5.80078 36.4189L0.421336 34.095C-0.0907763 33.8737 -0.149402 33.1709 0.31898 32.8679L3.55124 30.7767C3.88248 30.5624 3.97049 30.1164 3.74548 29.7924L1.1976 26.1228C0.893917 25.6854 1.17198 25.0827 1.70183 25.0299L6.12082 24.5894V24.5894C6.24082 24.5774 6.37025 24.6229 6.42139 24.7321C6.46837 24.8324 6.51606 24.9325 6.56441 25.0323C6.91273 25.7583 7.3011 26.4643 7.6891 27.1696L7.6891 27.1696L7.68931 27.17C7.82448 27.4156 7.95969 27.6614 8.09306 27.9078C9.28936 30.1091 10.3743 31.8884 12.1536 34.2099C13.1195 35.4702 13.9627 35.5507 14.6163 35.3487C14.9921 35.2326 15.3628 35.1267 15.7327 35.0211L15.7339 35.0207C16.7275 34.7369 17.7162 34.4544 18.784 33.9794C20.0437 33.4182 22.5057 32.2802 25.2734 30.9534Z" fill="white"/>
<path d="M24.8598 20.7273C24.53 20.7975 24.1883 20.8703 23.8309 20.9417L23.9974 20.7537C24.2114 20.5118 24.3683 20.3344 24.5276 20.1654C24.9181 19.7436 25.3134 19.327 25.7083 18.9109C26.7124 17.8528 27.7135 16.7979 28.6243 15.6691C29.3073 14.7991 29.8226 13.8085 30.1439 12.7477C30.5483 11.436 29.3195 10.1676 28.2064 10.6658C27.4088 11.0241 26.6747 11.5333 25.9458 12.039C25.8097 12.1334 25.6738 12.2277 25.5377 12.3209C25.0983 12.6585 24.3206 13.1522 23.9658 13.3988C23.9658 13.3988 24.2918 12.8903 24.4263 12.5526C24.6521 11.9858 24.9286 11.4961 25.1318 10.92C26.4378 7.21685 26.5304 5.49107 26.4105 4.46232C26.2905 3.43357 25.5144 2.55809 24.3554 2.79931C23.5078 2.97301 23.0009 3.53996 22.5133 4.11034C20.8365 6.06872 20.6645 6.68654 19.6728 9.04673C19.4076 9.67753 19.143 10.3085 18.8628 10.9766L18.8614 10.98L18.8583 10.9875L18.8574 10.9897C18.6728 11.4298 18.4814 11.8863 18.2785 12.3696L18.1364 11.7625C18.0587 11.4166 17.988 11.0677 17.9171 10.7186L17.9171 10.7186L17.9171 10.7185C17.7405 9.84842 17.5634 8.97593 17.2783 8.14077C16.7713 6.65039 15.0879 6.37965 13.9445 7.45259C13.527 7.84209 13.1906 8.31093 12.9545 8.83215C12.7185 9.35337 12.5875 9.9167 12.5691 10.4898C12.488 11.9516 12.5055 13.4182 12.5229 14.8838L12.5229 14.8838C12.5263 15.17 12.5297 15.4561 12.5324 15.7421C12.5321 16.2188 12.5819 16.6958 12.6318 17.1727C12.6544 17.3885 12.5716 17.6689 12.5895 17.8846L12.4339 17.6742L12.4339 17.6741C12.3567 17.5302 12.2793 17.3858 12.2084 17.2385C12.0502 16.9166 11.9023 16.5877 11.7544 16.2587C11.4307 15.5387 11.1069 14.8186 10.6753 14.1722C9.8685 12.9621 8.54493 12.3413 7.56427 13.5734C7.11726 14.1885 6.8923 14.9387 6.92635 15.701C7.0493 17.7057 7.69602 19.6061 8.5867 21.4131C8.90403 22.0628 9.25741 22.6947 9.61045 23.3259L9.61051 23.326C9.73357 23.546 9.85666 23.7661 9.9781 23.9867C11.0668 25.957 12.0532 27.5495 13.6684 29.6272C14.5452 30.7551 15.3063 30.827 15.8951 30.6459C16.2337 30.5418 16.5676 30.447 16.9009 30.3522L16.902 30.3519C17.7973 30.0975 18.6881 29.8444 19.6495 29.4188C21.2269 28.7195 24.8979 27.0207 28.4903 25.2576C28.6996 25.1549 28.9016 25.0563 29.0973 24.9608C30.5118 24.2703 31.603 23.7376 32.8198 22.9382C32.9826 22.8344 33.1161 22.6904 33.2075 22.5197C33.2989 22.3491 33.3452 22.1577 33.3418 21.9637C33.3385 21.7696 33.2858 21.5795 33.1886 21.4114C33.0915 21.2433 32.9531 21.1029 32.7868 21.0035C32.4416 20.7864 32.0635 20.6275 31.6675 20.5332C30.0871 20.1682 28.4536 20.1048 26.8522 20.3465C26.1991 20.4421 25.5534 20.5796 24.8598 20.7273Z" fill="white"/>
</svg>
