<svg width="119" height="44" viewBox="0 0 119 44" fill="none" xmlns="http://www.w3.org/2000/svg">
<path d="M36.6332 18.1056C36.326 18.1056 36.1723 18.0105 36.1723 17.8203V17.7764C36.1723 17.6886 36.304 17.5423 36.5674 17.3374C36.8454 17.118 36.9844 16.8619 36.9844 16.5693V4.05938C36.9844 3.79601 36.8454 3.55459 36.5674 3.33512C36.304 3.11565 36.1723 2.9547 36.1723 2.85228V2.78644C36.1723 2.61086 36.326 2.52307 36.6332 2.52307H40.7154C41.6664 2.52307 42.5443 2.61818 43.3491 2.80839C44.1538 2.9986 44.8781 3.29123 45.5218 3.68628C46.1803 4.08133 46.6924 4.61537 47.0581 5.28842C47.4386 5.94684 47.6288 6.71499 47.6288 7.59288C47.6288 9.26087 47.0655 10.5484 45.9388 11.4556C44.8122 12.3627 43.2393 12.8163 41.2202 12.8163H38.9596V16.5693C38.9596 16.8619 39.0986 17.118 39.3766 17.3374C39.6692 17.5423 39.8156 17.6886 39.8156 17.7764V17.8203C39.8156 18.0105 39.6692 18.1056 39.3766 18.1056H36.6332ZM39.7497 11.9165H41.2202C42.5663 11.9165 43.6271 11.58 44.4025 10.9069C45.1926 10.2192 45.5877 9.2755 45.5877 8.07572C45.5877 6.56868 45.1122 5.42011 44.1611 4.63001C43.2247 3.82528 42.0761 3.42291 40.7154 3.42291H39.5302C39.1498 3.42291 38.9596 3.65701 38.9596 4.12522V11.1264C38.9596 11.6531 39.223 11.9165 39.7497 11.9165ZM57.4582 15.011C57.5606 14.8501 57.6996 14.7916 57.8752 14.8355C58.0508 14.8647 58.1239 14.9818 58.0947 15.1866C57.9337 15.9621 57.4655 16.679 56.69 17.3374C55.9146 17.9959 54.8977 18.3251 53.6394 18.3251C52.1909 18.3251 50.9765 17.813 49.9962 16.7888C49.0305 15.7646 48.5476 14.4185 48.5476 12.7505C48.5476 11.2142 49.0451 9.93391 50.04 8.90971C51.035 7.87088 52.264 7.35146 53.7272 7.35146C54.9709 7.35146 55.9585 7.68798 56.69 8.36103C57.4363 9.01945 57.8094 9.76565 57.8094 10.5996C57.8094 11.2288 57.4655 11.6604 56.7778 11.8945L50.6985 13.8917C50.9472 14.8428 51.3861 15.589 52.0153 16.1303C52.6591 16.6571 53.4272 16.9204 54.3197 16.9204C55.8268 16.9204 56.8729 16.284 57.4582 15.011ZM53.398 8.05377C52.5201 8.05377 51.8105 8.43419 51.2691 9.19503C50.7277 9.95586 50.457 10.9069 50.457 12.0482C50.457 12.4871 50.4863 12.8602 50.5448 13.1675L55.4391 11.4117C55.7902 11.2654 55.9658 11.0093 55.9658 10.6435C55.9658 10.0875 55.7097 9.51692 55.1976 8.93166C54.7002 8.3464 54.1003 8.05377 53.398 8.05377ZM64.9448 7.35146C65.5739 7.35146 66.0641 7.51241 66.4152 7.8343C66.781 8.15619 66.9639 8.55856 66.9639 9.04139C66.9639 9.72907 66.6713 10.0729 66.086 10.0729C65.8373 10.0729 65.6398 9.99244 65.4934 9.83149C65.3471 9.67055 65.2447 9.49497 65.1862 9.30476C65.1423 9.11455 65.0326 8.93897 64.857 8.77803C64.6814 8.61708 64.44 8.53661 64.1327 8.53661C63.5475 8.53661 63.0866 8.82924 62.75 9.4145C62.4282 9.98512 62.2672 10.7021 62.2672 11.5653V16.5693C62.2672 16.8619 62.4208 17.1107 62.7281 17.3155C63.0354 17.5057 63.189 17.652 63.189 17.7544V17.8422C63.189 18.0178 63.0427 18.1056 62.75 18.1056H60.0286C59.736 18.1056 59.5897 18.0178 59.5897 17.8422V17.7544C59.5897 17.652 59.7213 17.5057 59.9847 17.3155C60.2627 17.1107 60.4017 16.8619 60.4017 16.5693V9.89734C60.4017 9.59008 60.2554 9.32671 59.9628 9.10724C59.6701 8.88776 59.5238 8.72682 59.5238 8.6244V8.5805C59.5238 8.43419 59.6335 8.30251 59.853 8.18545L61.521 7.43925C61.9014 7.26367 62.0916 7.36609 62.0916 7.74651V9.50229C62.5891 8.0684 63.5401 7.35146 64.9448 7.35146ZM72.0766 18.3031C70.7305 18.3031 69.6478 18.0324 68.8284 17.4911C68.0237 16.9497 67.6213 16.3864 67.6213 15.8011C67.6213 15.2598 67.9066 14.9891 68.4772 14.9891C68.726 14.9891 68.9235 15.0842 69.0698 15.2744C69.2308 15.45 69.3698 15.6695 69.4868 15.9328C69.6039 16.1962 69.7429 16.4596 69.9038 16.7229C70.0794 16.9863 70.3501 17.2131 70.7159 17.4033C71.0816 17.5789 71.5352 17.6666 72.0766 17.6666C72.8082 17.6666 73.408 17.4984 73.8763 17.1619C74.3445 16.8107 74.5786 16.3352 74.5786 15.7353C74.5786 15.15 74.3445 14.6965 73.8763 14.3746C73.4227 14.0527 72.8667 13.8259 72.2083 13.6942C71.5498 13.5479 70.8914 13.3869 70.233 13.2114C69.5746 13.0358 69.0113 12.7139 68.5431 12.2457C68.0895 11.7775 67.8627 11.1483 67.8627 10.3582C67.8627 9.5096 68.2504 8.79998 69.0259 8.22935C69.8014 7.64409 70.789 7.35146 71.9888 7.35146C73.2617 7.35146 74.2932 7.62214 75.0833 8.16351C75.8734 8.70487 76.2685 9.29745 76.2685 9.94123C76.2685 10.1607 76.188 10.3436 76.0271 10.4899C75.8808 10.6362 75.6979 10.7094 75.4784 10.7094C75.215 10.7094 74.9882 10.5704 74.798 10.2924C74.6078 10.0144 74.4469 9.70713 74.3152 9.3706C74.1981 9.03408 73.9494 8.72682 73.569 8.44882C73.1886 8.17082 72.6911 8.03182 72.0766 8.03182C71.4328 8.03182 70.8914 8.21472 70.4525 8.5805C70.0282 8.94629 69.816 9.39987 69.816 9.94123C69.816 10.5119 70.0428 10.9581 70.4964 11.28C70.9646 11.5873 71.5279 11.8141 72.1863 11.9604C72.8447 12.1067 73.4958 12.2676 74.1396 12.4432C74.798 12.6188 75.354 12.948 75.8076 13.4308C76.2758 13.899 76.5099 14.5355 76.5099 15.3402C76.5099 16.1889 76.1002 16.8985 75.2809 17.4691C74.4761 18.0251 73.408 18.3031 72.0766 18.3031ZM79.8195 5.48595C79.3659 5.48595 79.0074 5.36158 78.7441 5.11285C78.4807 4.86411 78.349 4.5349 78.349 4.12522C78.349 3.71554 78.4807 3.38633 78.7441 3.1376C79.0221 2.87423 79.3805 2.74255 79.8195 2.74255C80.2438 2.74255 80.5876 2.87423 80.851 3.1376C81.1144 3.38633 81.2461 3.71554 81.2461 4.12522C81.2461 4.5349 81.1144 4.86411 80.851 5.11285C80.5876 5.36158 80.2438 5.48595 79.8195 5.48595ZM78.5465 18.1056C78.2686 18.1056 78.1296 18.0105 78.1296 17.8203V17.7325C78.1296 17.6301 78.1954 17.535 78.3271 17.4472C78.4588 17.3448 78.5904 17.2277 78.7221 17.096C78.8538 16.9497 78.9197 16.7668 78.9197 16.5473V10.0071C78.9197 9.67055 78.788 9.37792 78.5246 9.12918C78.2612 8.88045 78.1296 8.7195 78.1296 8.64635V8.60245C78.1296 8.50003 78.2393 8.39029 78.4588 8.27324L80.1487 7.43925C80.3828 7.35146 80.5511 7.33683 80.6535 7.39535C80.7705 7.45388 80.8291 7.57093 80.8291 7.74651V16.5473C80.8291 16.7229 80.873 16.8765 80.9607 17.0082C81.0485 17.1253 81.1509 17.2131 81.268 17.2716C81.3851 17.3301 81.4875 17.4033 81.5753 17.4911C81.6631 17.5642 81.7069 17.6447 81.7069 17.7325V17.8203C81.7069 18.0105 81.5533 18.1056 81.2461 18.1056H78.5465ZM83.7736 18.1056C83.4956 18.1056 83.3566 18.0105 83.3566 17.8203V17.7544C83.3566 17.6374 83.481 17.4838 83.7297 17.2935C83.9931 17.0887 84.1247 16.8473 84.1247 16.5693V4.23496C84.1247 3.98622 84.0589 3.78138 83.9272 3.62044C83.8102 3.44486 83.6858 3.30586 83.5541 3.20344C83.4224 3.10102 83.3566 3.00591 83.3566 2.91812V2.87423C83.3566 2.75718 83.459 2.64013 83.6638 2.52307L85.3757 1.68908C85.5952 1.60129 85.7635 1.59398 85.8805 1.66713C85.9976 1.72566 86.0561 1.8354 86.0561 1.99634V16.5693C86.0561 16.8473 86.1951 17.0887 86.4731 17.2935C86.7657 17.4838 86.912 17.6374 86.912 17.7544V17.8203C86.912 18.0105 86.7657 18.1056 86.4731 18.1056H83.7736ZM47.5629 38.5693C47.7239 38.8034 47.9214 39.0009 48.1555 39.1619C48.4042 39.3082 48.5944 39.4252 48.7261 39.513C48.8724 39.5862 48.9456 39.6813 48.9456 39.7983V39.8422C48.9456 40.0178 48.7993 40.1056 48.5067 40.1056H45.456C45.1634 40.1056 45.0171 40.0178 45.0171 39.8422V39.7983C45.0171 39.6959 45.0902 39.5862 45.2365 39.4691C45.3975 39.3521 45.5072 39.2496 45.5657 39.1619C45.6243 39.0594 45.5877 38.8619 45.456 38.5693L42.1639 34.0262C42.0469 34.0408 41.864 34.0482 41.6152 34.0482L38.9816 34.0921V38.5693C38.9816 38.7888 39.0474 38.9717 39.1791 39.118C39.3254 39.2643 39.4717 39.3886 39.618 39.4911C39.7644 39.5935 39.8375 39.6959 39.8375 39.7983V39.8422C39.8375 40.0178 39.6912 40.1056 39.3986 40.1056H36.6332C36.3406 40.1056 36.1943 40.0178 36.1943 39.8422V39.7983C36.1943 39.6959 36.326 39.5423 36.5893 39.3374C36.8527 39.118 36.9844 38.8619 36.9844 38.5693V26.0594C36.9844 25.7667 36.8527 25.518 36.5893 25.3132C36.326 25.0937 36.1943 24.9328 36.1943 24.8303V24.7864C36.1943 24.6109 36.3406 24.5231 36.6332 24.5231H41.1324C43.1076 24.5231 44.7025 24.9328 45.9169 25.7521C47.1313 26.5568 47.7458 27.7566 47.7605 29.3515C47.7605 30.3757 47.4386 31.2755 46.7948 32.051C46.151 32.8264 45.2365 33.3824 44.0514 33.719L47.5629 38.5693ZM41.4177 33.1703C42.7053 33.1703 43.7441 32.8557 44.5342 32.2265C45.3243 31.5974 45.7194 30.7341 45.7194 29.6368C45.7194 28.2614 45.2658 27.2153 44.3586 26.4983C43.4661 25.7814 42.3541 25.4229 41.0227 25.4229H39.5522C39.1718 25.4229 38.9816 25.6716 38.9816 26.1691V32.1388C38.9816 32.8264 39.2888 33.1703 39.9034 33.1703H41.4177ZM55.1327 40.3251C53.4354 40.3251 52.0527 39.7764 50.9846 38.679C49.9312 37.567 49.4044 36.2356 49.4044 34.6846C49.4044 33.163 49.9165 31.8973 50.9407 30.8878C51.9649 29.8636 53.2306 29.3515 54.7376 29.3515C56.3617 29.3515 57.6932 29.8928 58.732 30.9756C59.7855 32.0437 60.3122 33.3605 60.3122 34.9261C60.3122 36.4624 59.8294 37.7499 58.8637 38.7888C57.898 39.813 56.6543 40.3251 55.1327 40.3251ZM55.396 39.6008C56.2593 39.6008 56.9689 39.235 57.5249 38.5034C58.0955 37.7719 58.3808 36.7989 58.3808 35.5845C58.3808 34.0335 58.0151 32.7313 57.2835 31.6779C56.5519 30.6098 55.6301 30.0757 54.5181 30.0757C53.5817 30.0757 52.8209 30.4415 52.2356 31.1731C51.6504 31.89 51.3577 32.8557 51.3577 34.0701C51.3577 35.5333 51.7382 36.8208 52.499 37.9328C53.2598 39.0448 54.2255 39.6008 55.396 39.6008ZM79.5254 38.5473C79.5401 38.84 79.6791 39.096 79.9424 39.3155C80.2058 39.5203 80.3375 39.674 80.3375 39.7764V39.8642C80.3375 40.0397 80.1912 40.1275 79.8985 40.1275H77.2649C76.9722 40.1275 76.8259 40.0397 76.8259 39.8642V39.7764C76.8259 39.674 76.9576 39.5203 77.221 39.3155C77.4843 39.1107 77.6087 38.8619 77.5941 38.5693L77.3746 34.2896C77.3014 32.8557 77.0308 31.8169 76.5626 31.1731C76.109 30.5293 75.4652 30.2074 74.6312 30.2074C73.9289 30.2074 73.3217 30.4854 72.8096 31.0414C72.3121 31.5974 72.0487 32.2851 72.0195 33.1044C72.078 33.3971 72.1073 33.7555 72.1073 34.1798V38.5693C72.1073 38.8619 72.2316 39.1107 72.4804 39.3155C72.7437 39.5203 72.8754 39.674 72.8754 39.7764V39.8642C72.8754 40.0397 72.7364 40.1275 72.4584 40.1275H69.8687C69.5614 40.1275 69.4078 40.0397 69.4078 39.8642V39.7764C69.4078 39.674 69.5321 39.5203 69.7809 39.3155C70.0442 39.1107 70.1759 38.8619 70.1759 38.5693V34.0701C70.1759 32.885 69.9126 31.9485 69.3858 31.2609C68.8737 30.5586 68.2299 30.2074 67.4545 30.2074C66.6936 30.2074 66.0572 30.4927 65.5451 31.0633C65.033 31.634 64.7623 32.3363 64.733 33.1703L64.755 38.5693C64.755 38.8619 64.894 39.1107 65.172 39.3155C65.4646 39.5203 65.6109 39.674 65.6109 39.7764V39.8642C65.6109 40.0397 65.4646 40.1275 65.172 40.1275H62.4286C62.1359 40.1275 61.9896 40.0397 61.9896 39.8642V39.7764C61.9896 39.674 62.1286 39.5203 62.4066 39.3155C62.6846 39.1107 62.8236 38.8619 62.8236 38.5693V31.9193C62.8236 31.6705 62.7504 31.4657 62.6041 31.3048C62.4578 31.1438 62.3115 31.0194 62.1652 30.9317C62.0189 30.8292 61.9457 30.7268 61.9457 30.6244V30.5586C61.9457 30.4269 62.0555 30.3171 62.2749 30.2293L63.9868 29.4392C64.1916 29.3368 64.3453 29.3222 64.4477 29.3954C64.5648 29.4685 64.6233 29.5929 64.6233 29.7685V31.3267C64.9452 30.7268 65.3914 30.2513 65.9621 29.9001C66.5473 29.5344 67.1838 29.3515 67.8715 29.3515C68.6908 29.3515 69.4297 29.5636 70.0881 29.9879C70.7612 30.3976 71.2733 30.9902 71.6244 31.7657C71.9024 31.0194 72.356 30.4342 72.9852 30.0099C73.6143 29.5709 74.3313 29.3515 75.136 29.3515C76.3211 29.3515 77.2795 29.7538 78.0111 30.5586C78.7573 31.3487 79.1816 32.607 79.284 34.3335L79.5254 38.5473ZM90.6832 38.3498C90.7124 38.6571 90.7929 38.8985 90.9246 39.0741C91.0563 39.235 91.1953 39.3374 91.3416 39.3813C91.4879 39.4106 91.6196 39.4545 91.7366 39.513C91.8537 39.5715 91.9122 39.6593 91.9122 39.7764C91.9122 40.0836 91.444 40.2373 90.5076 40.2373C89.9809 40.2373 89.5931 40.1422 89.3444 39.952C89.0957 39.7471 88.9494 39.3594 88.9055 38.7888C88.3495 39.813 87.296 40.3251 85.7451 40.3251C84.516 40.3251 83.5284 40.0324 82.7822 39.4472C82.036 38.8619 81.6629 38.0499 81.6629 37.011C81.6482 35.9868 82.014 35.1894 82.7602 34.6188C83.5211 34.0482 84.4941 33.7628 85.6792 33.7628C86.8497 33.7628 87.7496 34.0555 88.3787 34.6407L88.3348 34.0482C88.2031 32.7021 87.9325 31.6998 87.5228 31.0414C87.1131 30.383 86.484 30.0538 85.6353 30.0538C85.1232 30.0538 84.6989 30.1855 84.3624 30.4488C84.0259 30.7122 83.7918 30.9975 83.6601 31.3048C83.543 31.612 83.3967 31.8973 83.2211 32.1607C83.0456 32.4241 82.8407 32.5558 82.6066 32.5558C82.3432 32.5558 82.1311 32.4826 81.9701 32.3363C81.8238 32.19 81.7507 31.9924 81.7507 31.7437C81.7507 31.1292 82.1091 30.5805 82.8261 30.0977C83.5577 29.6002 84.4941 29.3515 85.6353 29.3515C86.9668 29.3515 88.0276 29.7611 88.8177 30.5805C89.6224 31.3852 90.0979 32.5192 90.2442 33.9823L90.6832 38.3498ZM86.2279 39.6228C86.9448 39.6228 87.5301 39.396 87.9837 38.9424C88.4373 38.4742 88.6494 37.8962 88.6201 37.2086L88.5324 36.2209C88.4153 35.6942 88.1373 35.2699 87.6984 34.948C87.274 34.6261 86.7473 34.4652 86.1182 34.4652C85.372 34.4652 84.7648 34.6773 84.2965 35.1016C83.8283 35.5259 83.5942 36.0746 83.5942 36.7477C83.5942 37.567 83.8357 38.2547 84.3185 38.8107C84.816 39.3521 85.4524 39.6228 86.2279 39.6228ZM98.2299 29.3515C98.8591 29.3515 99.3492 29.5124 99.7004 29.8343C100.066 30.1562 100.249 30.5586 100.249 31.0414C100.249 31.7291 99.9564 32.0729 99.3712 32.0729C99.1225 32.0729 98.9249 31.9924 98.7786 31.8315C98.6323 31.6705 98.5299 31.495 98.4714 31.3048C98.4275 31.1146 98.3177 30.939 98.1421 30.778C97.9666 30.6171 97.7251 30.5366 97.4179 30.5366C96.8326 30.5366 96.3717 30.8292 96.0352 31.4145C95.7133 31.9851 95.5524 32.7021 95.5524 33.5653V38.5693C95.5524 38.8619 95.706 39.1107 96.0133 39.3155C96.3205 39.5057 96.4742 39.652 96.4742 39.7544V39.8422C96.4742 40.0178 96.3278 40.1056 96.0352 40.1056H93.3138C93.0211 40.1056 92.8748 40.0178 92.8748 39.8422V39.7544C92.8748 39.652 93.0065 39.5057 93.2699 39.3155C93.5479 39.1107 93.6869 38.8619 93.6869 38.5693V31.8973C93.6869 31.5901 93.5405 31.3267 93.2479 31.1072C92.9553 30.8878 92.809 30.7268 92.809 30.6244V30.5805C92.809 30.4342 92.9187 30.3025 93.1382 30.1855L94.8062 29.4392C95.1866 29.2637 95.3768 29.3661 95.3768 29.7465V31.5023C95.8743 30.0684 96.8253 29.3515 98.2299 29.3515ZM102.945 27.4859C102.492 27.4859 102.133 27.3616 101.87 27.1128C101.607 26.8641 101.475 26.5349 101.475 26.1252C101.475 25.7155 101.607 25.3863 101.87 25.1376C102.148 24.8742 102.507 24.7425 102.945 24.7425C103.37 24.7425 103.714 24.8742 103.977 25.1376C104.24 25.3863 104.372 25.7155 104.372 26.1252C104.372 26.5349 104.24 26.8641 103.977 27.1128C103.714 27.3616 103.37 27.4859 102.945 27.4859ZM101.673 40.1056C101.395 40.1056 101.256 40.0105 101.256 39.8203V39.7325C101.256 39.6301 101.321 39.535 101.453 39.4472C101.585 39.3448 101.716 39.2277 101.848 39.096C101.98 38.9497 102.046 38.7668 102.046 38.5473V32.0071C102.046 31.6705 101.914 31.3779 101.651 31.1292C101.387 30.8804 101.256 30.7195 101.256 30.6463V30.6025C101.256 30.5 101.365 30.3903 101.585 30.2732L103.275 29.4392C103.509 29.3515 103.677 29.3368 103.779 29.3954C103.897 29.4539 103.955 29.5709 103.955 29.7465V38.5473C103.955 38.7229 103.999 38.8765 104.087 39.0082C104.175 39.1253 104.277 39.2131 104.394 39.2716C104.511 39.3301 104.613 39.4033 104.701 39.4911C104.789 39.5642 104.833 39.6447 104.833 39.7325V39.8203C104.833 40.0105 104.679 40.1056 104.372 40.1056H101.673ZM116.929 38.5254C116.944 38.7595 117.017 38.9497 117.149 39.096C117.281 39.2423 117.405 39.3667 117.522 39.4691C117.654 39.5569 117.72 39.652 117.72 39.7544V39.8422C117.72 40.0324 117.566 40.1275 117.259 40.1275H114.647C114.34 40.1275 114.186 40.0324 114.186 39.8422V39.7544C114.186 39.652 114.318 39.4984 114.581 39.2935C114.859 39.0887 114.991 38.84 114.976 38.5473L114.757 34.1579C114.698 32.8557 114.427 31.8754 113.945 31.217C113.476 30.5439 112.847 30.2074 112.057 30.2074C111.252 30.2074 110.594 30.4927 110.082 31.0633C109.57 31.634 109.314 32.3582 109.314 33.2361V38.5693C109.314 38.7449 109.358 38.8985 109.445 39.0302C109.548 39.1472 109.65 39.235 109.753 39.2935C109.855 39.3521 109.95 39.4252 110.038 39.513C110.14 39.5862 110.192 39.6666 110.192 39.7544V39.8422C110.192 40.0324 110.038 40.1275 109.731 40.1275H106.987C106.695 40.1275 106.548 40.0324 106.548 39.8422V39.7544C106.548 39.6374 106.687 39.4838 106.965 39.2935C107.258 39.1033 107.404 38.8619 107.404 38.5693V31.9193C107.404 31.6413 107.324 31.4291 107.163 31.2828C107.017 31.1219 106.863 30.9975 106.702 30.9097C106.556 30.8219 106.483 30.7268 106.483 30.6244V30.5586C106.483 30.4269 106.6 30.3171 106.834 30.2293L108.48 29.4392C108.685 29.3368 108.838 29.3222 108.941 29.3954C109.043 29.4685 109.094 29.5929 109.094 29.7685V31.3706C109.416 30.7561 109.877 30.2659 110.477 29.9001C111.092 29.5344 111.772 29.3515 112.518 29.3515C113.659 29.3515 114.61 29.7538 115.371 30.5586C116.147 31.3633 116.586 32.5777 116.688 34.2018L116.929 38.5254Z" fill="#151515"/>
<path d="M100.359 17.2377C100.541 17.2377 100.632 17.3069 100.632 17.4452V17.51C100.632 17.6657 100.506 17.8256 100.256 17.9899C100.005 18.1455 99.7238 18.2233 99.4125 18.2233C99.0494 18.2233 98.7338 18.1541 98.4658 18.0158C98.1978 17.8688 97.9298 17.644 97.6617 17.3414C96.8836 17.9294 95.9628 18.2233 94.8994 18.2233C93.8705 18.2233 93.0751 18.0201 92.5131 17.6138C91.9598 17.2074 91.6831 16.5979 91.6831 15.7852C91.6831 14.7823 92.4051 13.9004 93.8489 13.1395C93.4771 12.7245 93.1962 12.3528 93.0059 12.0242C92.8157 11.687 92.7206 11.3196 92.7206 10.9219C92.7206 10.2734 92.9584 9.75469 93.4339 9.36562C93.9094 8.96791 94.5319 8.76906 95.3014 8.76906C96.0104 8.76906 96.5853 8.9463 97.0263 9.30078C97.4672 9.65526 97.6877 10.1221 97.6877 10.7014C97.6877 11.6352 97.0522 12.396 95.7813 12.9839L98.0378 15.448C98.401 14.5748 98.5825 13.5978 98.5825 12.517C98.5825 12.3614 98.6776 12.249 98.8678 12.1799C99.0581 12.1107 99.2439 12.1107 99.4255 12.1799C99.6157 12.2404 99.7108 12.3571 99.7108 12.53C99.7108 13.9739 99.3823 15.1973 98.7252 16.2002L98.9846 16.4725C99.4514 16.9826 99.8016 17.2377 100.035 17.2377H100.359ZM95.1458 9.27484C94.8778 9.27484 94.6616 9.39156 94.4974 9.625C94.3417 9.84979 94.2639 10.1524 94.2639 10.5328C94.2639 10.8786 94.3417 11.1899 94.4974 11.4666C94.6616 11.7346 94.9124 12.0458 95.2495 12.4003C95.8893 11.9767 96.2092 11.4017 96.2092 10.6755C96.2092 10.2518 96.1098 9.91464 95.911 9.66391C95.7207 9.40453 95.4657 9.27484 95.1458 9.27484ZM95.1199 17.7564C95.9066 17.7564 96.594 17.4409 97.1819 16.8097L94.3677 13.7102C93.6068 14.2549 93.2264 14.9941 93.2264 15.9278C93.2264 16.4725 93.3907 16.9135 93.7192 17.2507C94.0478 17.5878 94.5146 17.7564 95.1199 17.7564Z" fill="#151515"/>
<path fill-rule="evenodd" clip-rule="evenodd" d="M20.0545 21.415C19.9853 21.3465 19.934 21.2607 19.9069 21.1658C19.8599 21.2188 19.81 21.2753 19.7562 21.3363L19.6048 21.5077C19.7578 21.4769 19.9076 21.4459 20.0545 21.415ZM21.7515 26.4421L25.1544 28.9467C25.5122 29.21 25.4443 29.7634 25.0334 29.9324L21.7616 31.2779C21.4616 31.4013 21.325 31.7501 21.4615 32.0444L22.9839 35.3283C23.1891 35.7709 22.7793 36.2498 22.3103 36.1156L18.4257 35.0037C18.1084 34.9129 17.7805 35.1099 17.7118 35.4328L16.8331 39.559C16.7399 39.997 16.201 40.1611 15.8794 39.8494L13.3836 37.4299C13.1299 37.184 12.7158 37.2259 12.5166 37.5177L10.9881 39.756C10.7416 40.1171 10.1969 40.0773 10.0055 39.6841L8.14445 35.8627C8.03342 35.6348 7.78506 35.5076 7.53518 35.5508L3.65929 36.2212C3.15694 36.3081 2.80212 35.7419 3.09932 35.3277L5.43029 32.079C5.6422 31.7836 5.52705 31.368 5.19335 31.2239L0.803767 29.3275C0.385888 29.147 0.338051 28.5735 0.720246 28.3262L3.35774 26.6199C3.62803 26.445 3.69984 26.0811 3.51624 25.8167L1.43719 22.8223C1.18939 22.4654 1.41629 21.9736 1.84864 21.9305L5.4545 21.5711C5.51463 21.5651 5.57174 21.5499 5.62451 21.527C5.68661 21.6628 5.75032 21.798 5.81551 21.9326C6.09974 22.525 6.41665 23.101 6.73325 23.6765L6.73346 23.6769C6.84374 23.8774 6.95406 24.0779 7.06287 24.2789C8.03905 26.0752 8.92432 27.5271 10.3762 29.4214C11.1644 30.4497 11.8524 30.5155 12.3858 30.3506C12.6924 30.2559 12.9948 30.1695 13.2966 30.0833L13.2977 30.083C14.1085 29.8514 14.9153 29.6209 15.7866 29.2333C16.9151 28.7305 19.2262 27.6604 21.7515 26.4421Z" fill="#151515"/>
<path fill-rule="evenodd" clip-rule="evenodd" d="M20.7722 18.5311C20.5037 18.5882 20.2255 18.6475 19.9344 18.7056L20.0705 18.5517C20.2453 18.3539 20.3736 18.2087 20.5037 18.0705C20.8227 17.7255 21.1456 17.3847 21.4682 17.0443C22.2884 16.1788 23.1061 15.3158 23.8506 14.3923C24.4089 13.6805 24.8313 12.8697 25.0959 12.0012C25.4289 10.9273 24.4331 9.88708 23.5259 10.2939C22.8758 10.5865 22.2771 11.0028 21.6824 11.4161C21.5714 11.4933 21.4605 11.5704 21.3495 11.6465C20.991 11.9226 20.6491 12.2201 20.3257 12.5375C20.3166 12.3133 20.3626 12.0904 20.4596 11.8887C20.645 11.4246 20.8343 10.9617 21.0236 10.4987C21.463 9.42375 21.9029 8.34781 22.2961 7.25583C22.6915 6.16024 22.9727 5.01953 22.8383 3.82584C22.7438 2.98311 22.1151 2.2652 21.1713 2.46149C20.4812 2.60283 20.067 3.06664 19.6686 3.53327C18.2983 5.13543 17.4019 7.02639 16.5878 8.95841C16.37 9.47478 16.1528 9.99125 15.9228 10.5382L15.9217 10.541L15.9191 10.5471L15.9183 10.5489C15.7668 10.9092 15.6097 11.2829 15.4431 11.6785L15.3294 11.1811C15.2673 10.8976 15.2107 10.6119 15.1541 10.3258C15.0131 9.61294 14.8717 8.89812 14.6423 8.21376C14.2344 6.9925 12.8656 6.7689 11.932 7.64644C11.5911 7.965 11.3159 8.34863 11.1223 8.77527C10.9286 9.20192 10.8203 9.66317 10.8036 10.1325C10.7331 11.3297 10.7429 12.531 10.7526 13.7314C10.7545 13.9658 10.7564 14.2001 10.7577 14.4344C10.756 14.8248 10.7951 15.2156 10.8342 15.6063C10.8519 15.783 10.8696 15.9598 10.8835 16.1365L10.7486 16.1634C10.7233 16.1145 10.6975 16.0657 10.6716 16.0168C10.6093 15.8988 10.5468 15.7804 10.4895 15.6597C10.3618 15.3959 10.2424 15.1263 10.1231 14.8567C9.86191 14.2666 9.60066 13.6765 9.25152 13.1465C8.59878 12.1545 7.52379 11.6446 6.72214 12.6527C6.35655 13.156 6.17123 13.7702 6.1966 14.3945C6.2905 16.0367 6.81087 17.5939 7.53002 19.0749C7.78623 19.6074 8.07183 20.1253 8.35716 20.6428C8.45661 20.8231 8.55609 21.0035 8.65422 21.1843C9.53397 22.7993 10.3316 24.1047 11.6394 25.8083C12.3494 26.733 12.9684 26.7927 13.4481 26.6451C13.7241 26.5601 13.9964 26.4827 14.2682 26.4054C14.9974 26.198 15.723 25.9916 16.5064 25.6442C17.792 25.0731 20.784 23.6857 23.7123 22.2456C23.8829 22.1617 24.0475 22.0812 24.207 22.0032C25.36 21.4392 26.2494 21.0041 27.2419 20.3507C27.3747 20.2658 27.4838 20.148 27.5586 20.0084C27.6335 19.8687 27.6717 19.712 27.6696 19.5531C27.6675 19.3941 27.6252 19.2383 27.5467 19.1006C27.4681 18.9628 27.356 18.8476 27.221 18.766C26.9408 18.5878 26.6336 18.4573 26.3117 18.3796C25.027 18.0789 23.6982 18.0252 22.3945 18.2213C21.8628 18.2989 21.337 18.4109 20.7722 18.5311Z" fill="#151515"/>
</svg>
