<svg width="17" height="17" viewBox="0 0 17 17" fill="none" xmlns="http://www.w3.org/2000/svg">
<path d="M0.599609 8.766C0.599609 13.303 4.29934 16.981 8.86319 16.981C11.8455 16.981 14.4587 15.4105 15.9118 13.056C16.0416 12.8458 15.8684 12.5798 15.6215 12.5889C14.1321 12.6439 10.121 12.5068 7.84185 9.68904C5.54701 6.8519 6.35713 2.77628 6.75064 1.32195C6.81434 1.08653 6.60028 0.859073 6.36762 0.932251C3.02352 1.98411 0.599609 5.09365 0.599609 8.766Z" fill="#151515"/>
<path d="M14.4606 5.12243C14.5354 4.89037 14.8638 4.89037 14.9386 5.12243L15.1124 5.66131C15.1459 5.76523 15.2428 5.83559 15.352 5.83535L15.9182 5.83411C16.162 5.83358 16.2634 6.14584 16.0659 6.28872L15.6071 6.62053C15.5186 6.68452 15.4816 6.79836 15.5156 6.90214L15.6917 7.44025C15.7676 7.67198 15.502 7.86497 15.305 7.72122L14.8477 7.38741C14.7595 7.32303 14.6398 7.32303 14.5516 7.38741L14.0942 7.72122C13.8973 7.86497 13.6316 7.67198 13.7075 7.44025L13.8836 6.90214C13.9176 6.79836 13.8806 6.68452 13.7921 6.62053L13.3333 6.28873C13.1358 6.14584 13.2372 5.83358 13.4811 5.83411L14.0473 5.83535C14.1565 5.83559 14.2533 5.76523 14.2868 5.66131L14.4606 5.12243Z" fill="#151515"/>
<path d="M10.9167 1.34816C10.974 1.17056 11.2252 1.17056 11.2825 1.34816L11.3916 1.68636C11.4172 1.7659 11.4914 1.81974 11.5749 1.81956L11.9303 1.81878C12.1169 1.81837 12.1945 2.05735 12.0433 2.1667L11.7554 2.37494C11.6877 2.42392 11.6594 2.51104 11.6854 2.59046L11.7959 2.92818C11.854 3.10553 11.6507 3.25322 11.4999 3.1432L11.2129 2.93371C11.1454 2.88444 11.0538 2.88444 10.9863 2.93371L10.6993 3.1432C10.5485 3.25322 10.3453 3.10553 10.4033 2.92818L10.5139 2.59046C10.5399 2.51104 10.5116 2.42392 10.4438 2.37494L10.1559 2.1667C10.0047 2.05735 10.0823 1.81837 10.2689 1.81878L10.6243 1.81956C10.7079 1.81974 10.782 1.7659 10.8076 1.68636L10.9167 1.34816Z" fill="#151515"/>
</svg>
