<svg width="41" height="40" viewBox="0 0 41 40" fill="none" xmlns="http://www.w3.org/2000/svg">
<ellipse cx="20.2749" cy="23.8716" rx="6.7026" ry="4.58947" fill="black"/>
<path fill-rule="evenodd" clip-rule="evenodd" d="M14.7328 18.3566C14.1979 18.7392 13.2463 18.4728 13.1686 17.8197C12.938 15.8813 12.7701 13.8031 12.8437 12.2218C12.8702 11.6528 13.5284 11.4378 13.932 11.8398L16.102 14.0011C16.5892 14.4864 16.9253 14.2027 17.4382 13.7696C18.008 13.2886 18.796 12.6233 20.252 12.6233C21.708 12.6233 22.496 13.2886 23.0658 13.7697C23.5787 14.2027 23.9147 14.4864 24.402 14.0011L26.3244 12.0865C26.7066 11.7057 27.3327 11.8778 27.3907 12.4141C27.5541 13.9281 27.4046 15.9148 27.159 17.7851C27.0781 18.4014 26.2437 18.6494 25.7325 18.296C24.3722 17.3555 22.4308 16.7672 20.2757 16.7672C18.0747 16.7672 16.0965 17.3809 14.7328 18.3566Z" fill="black"/>
<ellipse cx="17.3427" cy="23.8715" rx="1.25674" ry="1.25167" fill="white"/>
<ellipse cx="23.2079" cy="23.8715" rx="1.25674" ry="1.25167" fill="white"/>
<rect width="4.65923" height="3" rx="0.5" transform="matrix(-0.707107 -0.707107 -0.707107 0.707107 13.4365 8.65088)" fill="black"/>
<rect width="8.10729" height="3" rx="0.5" transform="matrix(-0.707107 -0.707107 -0.707107 0.707107 36.1309 31.3453)" fill="black"/>
<circle cx="20.5" cy="20" r="18.5" stroke="black" stroke-width="3"/>
</svg>
