<svg width="41" height="41" viewBox="0 0 41 41" fill="none" xmlns="http://www.w3.org/2000/svg">
<rect width="7.14286" height="3" rx="0.5" transform="matrix(-0.707107 -0.707107 -0.707107 0.707107 15.1924 11.3103)" fill="black"/>
<rect width="6.93296" height="3" rx="0.5" transform="matrix(-0.707107 -0.707107 -0.707107 0.707107 36.1309 32.2485)" fill="black"/>
<circle cx="20.5" cy="20.9032" r="18.5" stroke="black" stroke-width="3"/>
<path fill-rule="evenodd" clip-rule="evenodd" d="M20.5398 19.3838C22.513 19.3838 23.4535 21.8128 23.8727 22.2719C24.292 22.731 25.9493 23.9983 25.9493 25.6085C25.9493 27.0871 24.4692 27.9741 23.8727 27.8989C22.7879 27.7622 21.3175 27.1771 20.5398 27.2788C19.762 27.1771 18.2917 27.7622 17.2068 27.8989C16.6103 27.9741 15.1303 27.0871 15.1303 25.6085C15.1303 23.9983 16.7876 22.731 17.2068 22.2719C17.6261 21.8128 18.5666 19.3838 20.5398 19.3838ZM18.316 18.9081C17.3382 19.029 16.4091 18.0088 16.2408 16.6294C16.0726 15.25 16.7289 14.0338 17.7067 13.9129C18.6845 13.7921 19.6136 14.8123 19.7818 16.1917C19.9501 17.5711 19.2938 18.7873 18.316 18.9081ZM15.5739 21.8884C14.7149 22.2378 13.6528 21.61 13.2017 20.4861C12.7507 19.3623 13.0814 18.168 13.9405 17.8186C14.7996 17.4692 15.8616 18.097 16.3127 19.2209C16.7637 20.3447 16.433 21.539 15.5739 21.8884ZM22.684 18.9144C21.7062 18.7936 21.0499 17.5774 21.2182 16.198C21.3864 14.8186 22.3155 13.7984 23.2933 13.9192C24.2711 14.0401 24.9274 15.2563 24.7592 16.6357C24.5909 18.015 23.6618 19.0353 22.684 18.9144ZM25.4261 21.8947C24.567 21.5453 24.2363 20.351 24.6873 19.2272C25.1384 18.1033 26.2004 17.4755 27.0595 17.8249C27.9186 18.1743 28.2493 19.3686 27.7983 20.4924C27.3472 21.6163 26.2851 22.2441 25.4261 21.8947Z" fill="black"/>
</svg>
