<svg width="41" height="41" viewBox="0 0 41 41" fill="none" xmlns="http://www.w3.org/2000/svg">
<g clip-path="url(#clip0)">
<rect width="40" height="40" transform="translate(0.5 0.903198)" fill="white"/>
<rect width="7.14286" height="3" rx="0.5" transform="matrix(-0.707107 -0.707107 -0.707107 0.707107 15.1924 11.3103)" fill="black"/>
<rect width="6.93296" height="3" rx="0.5" transform="matrix(-0.707107 -0.707107 -0.707107 0.707107 36.1309 32.2485)" fill="black"/>
<path d="M24.329 10.6174C22.1195 10.6174 20.784 11.7608 19.8683 12.9817C19.4903 13.4858 19.1655 14.0275 18.8859 14.4939C18.8401 14.5702 18.7956 14.6446 18.7522 14.7164C18.4223 15.2623 18.1667 15.6512 17.9077 15.9103C17.0365 16.7814 15.7487 17.2974 14.411 17.6639C13.894 17.8055 13.4006 17.9173 12.9342 18.023C12.8027 18.0528 12.6734 18.0821 12.5464 18.1115C12.0198 18.233 11.4376 18.3737 11.0247 18.5801C10.2417 18.9717 8.90822 19.8156 8.33681 21.3265C7.73016 22.9307 8.10913 24.9076 9.97673 27.2421C10.9347 28.4396 12.6855 29.0695 14.5257 29.3473C16.4216 29.6335 18.6505 29.5824 20.8361 29.2104C23.0206 28.8386 25.2175 28.1367 27.0312 27.0796C28.8381 26.0266 30.3523 24.5672 30.992 22.6479C32.2278 18.9406 31.6874 15.9228 30.2086 13.8097C28.755 11.7328 26.4474 10.6174 24.329 10.6174Z" fill="white" stroke="black" stroke-width="2"/>
<path d="M24.3288 13.7604C21.4952 13.7604 20.1771 18.4275 19.0436 19.1515C17.3581 20.228 14.2831 20.3098 13.3764 20.5994C12.2429 20.9614 10.0446 23.4402 12.8096 25.6479C15.0765 27.4579 26.4111 25.3053 28.1113 22.0474C29.9389 18.5452 27.1625 13.7604 24.3288 13.7604Z" fill="black"/>
<path d="M15.043 19.4746C16.7096 20.6651 19.9001 25.046 19.3287 27.3317C19.1513 25.9127 20.0311 21.8494 24.0353 20.1254M29.3287 18.7603C27.1428 19.0518 25.406 19.5352 24.0353 20.1254M24.0353 20.1254C23.895 18.0037 23.4715 13.6174 22.9001 13.046" stroke="white" stroke-width="1.42857"/>
<circle cx="20.5" cy="20.9032" r="18.5" stroke="black" stroke-width="3"/>
</g>
<defs>
<clipPath id="clip0">
<rect width="40" height="40" fill="white" transform="translate(0.5 0.903198)"/>
</clipPath>
</defs>
</svg>
